<svg width="174" height="215" viewBox="0 0 174 215" fill="none" xmlns="http://www.w3.org/2000/svg">
<path d="M144.159 215L88.1591 197.182L30 215V102.2H144.159V215Z" fill="url(#paint0_linear_7_7337)"/>
<path opacity="0.3" d="M65.2339 150.161H37.5095V150.84H65.2339V150.161Z" fill="#2AD2FF"/>
<path opacity="0.3" d="M134.137 150.161H106.413V150.84H134.137V150.161Z" fill="#2AD2FF"/>
<path d="M78.7132 154V152.625H75.7212C77.6242 151.239 78.6582 150.15 78.6582 148.896C78.6582 147.433 77.4152 146.553 75.8532 146.553C74.8302 146.553 73.7412 146.927 73.0262 147.752L73.9172 148.786C74.4122 148.269 75.0502 147.939 75.8862 147.939C76.4912 147.939 77.0742 148.258 77.0742 148.896C77.0742 149.798 76.1942 150.557 73.1912 152.779V154H78.7132ZM82.6799 154.132C84.7699 154.132 85.7159 152.229 85.7159 150.337C85.7159 148.445 84.7699 146.553 82.6799 146.553C80.5789 146.553 79.6439 148.445 79.6439 150.337C79.6439 152.229 80.5789 154.132 82.6799 154.132ZM82.6799 152.746C81.6239 152.746 81.2279 151.69 81.2279 150.337C81.2279 148.984 81.6239 147.939 82.6799 147.939C83.7249 147.939 84.1209 148.984 84.1209 150.337C84.1209 151.69 83.7249 152.746 82.6799 152.746ZM92.1302 154V152.625H89.1382C91.0412 151.239 92.0752 150.15 92.0752 148.896C92.0752 147.433 90.8322 146.553 89.2702 146.553C88.2472 146.553 87.1582 146.927 86.4432 147.752L87.3342 148.786C87.8292 148.269 88.4672 147.939 89.3032 147.939C89.9082 147.939 90.4912 148.258 90.4912 148.896C90.4912 149.798 89.6112 150.557 86.6082 152.779V154H92.1302ZM98.7259 154V152.625H95.7339C97.6369 151.239 98.6709 150.15 98.6709 148.896C98.6709 147.433 97.4279 146.553 95.8659 146.553C94.8429 146.553 93.7539 146.927 93.0389 147.752L93.9299 148.786C94.4249 148.269 95.0629 147.939 95.8989 147.939C96.5039 147.939 97.0869 148.258 97.0869 148.896C97.0869 149.798 96.2069 150.557 93.2039 152.779V154H98.7259Z" fill="#2AD2FF"/>
<path d="M144.159 0H30V102.879H144.159V0Z" fill="url(#paint1_radial_7_7337)"/>
<path d="M156.425 167.552H17.5316V190.655H156.425V167.552Z" fill="#0460B5"/>
<path d="M30.2381 183.26C33.1641 183.26 35.1941 181.412 35.1941 178.598C35.1941 175.784 33.1641 173.922 30.2381 173.922H26.5561V183.26H30.2381ZM30.2381 181.51H28.5441V175.672H30.2381C32.1561 175.672 33.1641 176.946 33.1641 178.598C33.1641 180.18 32.0861 181.51 30.2381 181.51ZM43.493 183.26V181.51H38.873V179.396H43.395V177.646H38.873V175.672H43.493V173.922H36.885V183.26H43.493ZM48.6451 183.428C51.1651 183.428 52.3831 182.14 52.3831 180.432C52.3831 176.946 47.0211 177.94 47.0211 176.456C47.0211 175.896 47.4971 175.518 48.3511 175.518C49.3031 175.518 50.3111 175.84 51.0671 176.54L52.1731 175.084C51.2491 174.23 50.0171 173.782 48.5331 173.782C46.3351 173.782 44.9911 175.07 44.9911 176.624C44.9911 180.138 50.3671 179.004 50.3671 180.656C50.3671 181.188 49.8351 181.692 48.7431 181.692C47.4551 181.692 46.4331 181.118 45.7751 180.432L44.6971 181.944C45.5651 182.826 46.8531 183.428 48.6451 183.428ZM55.9896 183.26V173.922H54.0016V183.26H55.9896ZM62.6454 183.442C64.3394 183.442 65.6694 182.742 66.6214 181.678V178.094H62.1694V179.83H64.6334V180.95C64.2554 181.3 63.4714 181.664 62.6454 181.664C60.9514 181.664 59.7194 180.362 59.7194 178.598C59.7194 176.834 60.9514 175.532 62.6454 175.532C63.6394 175.532 64.4374 176.092 64.8574 176.75L66.5094 175.854C65.8094 174.748 64.5914 173.768 62.6454 173.768C59.9154 173.768 57.6754 175.644 57.6754 178.598C57.6754 181.538 59.9154 183.442 62.6454 183.442ZM76.8376 183.26V173.922H74.8496V179.788L70.5236 173.922H68.4796V183.26H70.4676V177.17L74.9196 183.26H76.8376ZM86.5188 183.26L84.4188 179.704C85.4268 179.466 86.4628 178.584 86.4628 176.932C86.4628 175.196 85.2728 173.922 83.3268 173.922H78.9588V183.26H80.9468V179.942H82.4028L84.2368 183.26H86.5188ZM83.0328 178.192H80.9468V175.672H83.0328C83.8308 175.672 84.4328 176.148 84.4328 176.932C84.4328 177.716 83.8308 178.192 83.0328 178.192ZM92.4489 183.428C95.2909 183.428 96.6629 181.846 96.6629 179.522V173.922H94.6329V179.466C94.6329 180.768 93.8909 181.664 92.4489 181.664C91.0069 181.664 90.2509 180.768 90.2509 179.466V173.922H88.2349V179.536C88.2349 181.832 89.6069 183.428 92.4489 183.428ZM102.1 183.428C104.62 183.428 105.838 182.14 105.838 180.432C105.838 176.946 100.476 177.94 100.476 176.456C100.476 175.896 100.952 175.518 101.806 175.518C102.758 175.518 103.766 175.84 104.522 176.54L105.628 175.084C104.704 174.23 103.472 173.782 101.988 173.782C99.7905 173.782 98.4465 175.07 98.4465 176.624C98.4465 180.138 103.822 179.004 103.822 180.656C103.822 181.188 103.29 181.692 102.198 181.692C100.91 181.692 99.8885 181.118 99.2305 180.432L98.1525 181.944C99.0205 182.826 100.308 183.428 102.1 183.428ZM115.857 183.26V173.922H113.855V177.59H109.445V173.922H107.457V183.26H109.445V179.34H113.855V183.26H115.857ZM118.845 183.414C119.461 183.414 119.979 182.896 119.979 182.28C119.979 181.664 119.461 181.146 118.845 181.146C118.229 181.146 117.711 181.664 117.711 182.28C117.711 182.896 118.229 183.414 118.845 183.414ZM124.893 183.428C126.279 183.428 127.119 182.826 127.567 182.196L126.405 181.118C126.083 181.566 125.593 181.846 124.977 181.846C123.899 181.846 123.143 181.048 123.143 179.872C123.143 178.696 123.899 177.912 124.977 177.912C125.593 177.912 126.083 178.164 126.405 178.64L127.567 177.548C127.119 176.932 126.279 176.33 124.893 176.33C122.807 176.33 121.309 177.8 121.309 179.872C121.309 181.958 122.807 183.428 124.893 183.428ZM132.145 183.428C134.385 183.428 135.729 181.804 135.729 179.872C135.729 177.954 134.385 176.33 132.145 176.33C129.919 176.33 128.575 177.954 128.575 179.872C128.575 181.804 129.919 183.428 132.145 183.428ZM132.145 181.846C131.039 181.846 130.423 180.936 130.423 179.872C130.423 178.822 131.039 177.912 132.145 177.912C133.251 177.912 133.881 178.822 133.881 179.872C133.881 180.936 133.251 181.846 132.145 181.846ZM147.506 183.26V178.374C147.506 176.988 146.764 176.33 145.518 176.33C144.482 176.33 143.586 176.946 143.194 177.562C142.942 176.792 142.312 176.33 141.318 176.33C140.282 176.33 139.386 176.974 139.106 177.38V176.498H137.328V183.26H139.106V178.71C139.372 178.332 139.89 177.912 140.506 177.912C141.234 177.912 141.514 178.36 141.514 178.99V183.26H143.306V178.696C143.558 178.332 144.076 177.912 144.706 177.912C145.434 177.912 145.714 178.36 145.714 178.99V183.26H147.506Z" fill="white"/>
<path d="M28.268 156H0L5.84386 167.552L0 179.104H15.6289L15.7648 166.465L28.268 156Z" fill="#0460B5"/>
<path d="M145.825 156H173.957L168.113 167.552L173.957 179.104H158.328V166.465L145.825 156Z" fill="#0460B5"/>
<path d="M84.4992 93.6701L81.4006 91.4642H85.2035L86.4711 87.4937L87.5978 91.4642H91.4006L88.302 93.6701L89.4288 97.4937L86.3302 95.1407L83.0908 97.4937L84.4992 93.6701Z" fill="#2AD2FF"/>
<path d="M102.337 93.6701L99.238 91.4642H103.041L104.308 87.4937L105.435 91.4642H109.238L106.139 93.6701L107.266 97.4937L104.168 95.1407L100.928 97.4937L102.337 93.6701Z" fill="#2AD2FF"/>
<path d="M120.174 93.6701L117.075 91.4642H120.878L122.146 87.4937L123.273 91.4642H127.075L123.977 93.6701L125.104 97.4937L122.005 95.1407L118.766 97.4937L120.174 93.6701Z" fill="#2AD2FF"/>
<path d="M67.936 93.6701L64.8374 91.4642H68.6402L69.9078 87.4937L71.0346 91.4642H74.8374L71.7388 93.6701L72.8656 97.4937L69.767 95.1407L66.6684 97.4937L67.936 93.6701Z" fill="#2AD2FF"/>
<path d="M50.0986 93.6701L47 91.4642H50.8028L52.0704 87.4937L53.1972 91.4642H57L53.9014 93.6701L55.0282 97.4937L51.9296 95.1407L48.831 97.4937L50.0986 93.6701Z" fill="#2AD2FF"/>
<path d="M86.8626 65.0689C86.711 65.0689 86.711 64.9183 86.8626 65.0689L86.1046 64.6171L85.953 64.4665L68.0641 51.815C68.0641 51.815 67.9125 51.815 67.9125 51.6644L67.6093 51.3632L67.4576 51.2126H67.1544L62 47.5979L72.1573 49.104C72.6121 49.104 72.7637 49.2546 73.2185 49.4052C73.3701 49.4052 73.6733 49.5559 73.6733 49.5559C74.1281 49.7065 74.2797 49.8571 74.5829 50.0077C74.8861 50.1583 75.0377 50.3089 75.3409 50.4595C75.4925 50.6101 75.7957 50.7608 75.7957 50.9114C75.9473 51.062 76.0989 51.062 76.2505 51.2126C76.5537 51.3632 76.7053 51.5138 76.7053 51.6644C77.1601 52.1163 77.4633 52.5681 77.9181 52.8693L85.953 64.1653L86.1046 64.3159L86.8626 65.0689Z" fill="#18AAD1"/>
<path d="M86.711 82.54L85.953 81.3351L85.8014 81.1844L62 47.5979L67.1544 51.2126L68.0641 51.815L85.953 64.4665H86.1046L86.711 64.9183C86.711 64.9183 86.8626 64.9183 86.8626 65.0689L87.6206 64.4665L111.725 47.5979L87.469 81.3351L87.3174 81.4857L86.711 82.54Z" fill="url(#paint2_linear_7_7337)"/>
<path d="M86.9956 59.6934L86.3308 58.5174L86.1978 58.3704L81.0126 50.4329L86.1978 51.6088H86.3308L86.9956 51.7558L87.6603 51.6088L92.7126 50.2859L87.6603 58.5174V58.6644L86.9956 59.6934Z" fill="#18AAD1"/>
<path d="M111.725 47.5979L104.236 48.6432L101.391 49.0912C99.1441 49.3898 97.0472 50.5844 95.6993 52.5256L87.7612 63.8743L87.6114 64.0237L86.8625 65.0689L87.7612 64.173L87.911 64.0237L86.8625 65.0689L107.082 50.7337L111.725 47.5979Z" fill="#18AAD1"/>
<path d="M89.7875 24.1457C89.7875 30.8085 78.4457 34.2914 78.4457 41.4085C78.2964 43.0742 78.7441 44.7399 79.4903 46.2542C79.4903 46.2542 75.1625 42.0142 75.1625 37.4714C75.1625 32.9285 79.3411 26.1143 79.3411 26.1143C79.3411 29.1428 80.535 30.0514 81.7288 30.2028H81.8781C83.2212 30.2028 83.9674 29.1428 83.9674 27.6285C83.9674 26.1143 82.3258 24.6 82.3258 21.5714C82.3258 18.6943 85.9074 14 85.9074 14C88.4444 17.0286 89.7875 20.5114 89.7875 24.1457Z" fill="#2AD2FF"/>
<path d="M87.8103 47.5981C83.9259 47.5981 81.0126 44.8623 81.0126 41.5505V41.4065C81.0126 34.0629 92.5039 33.3429 92.5039 23.4075C92.8276 23.8394 95.9028 27.5832 95.9028 31.615C95.9028 36.6547 90.5617 37.9507 90.5617 40.3985C90.5617 41.4065 91.0473 42.1264 92.6658 42.1264C92.8277 42.1264 92.9895 42.1264 93.1514 41.9824C96.2265 40.8305 98.3306 38.2386 98.4924 35.2148C98.4924 35.3588 100.111 47.5981 87.8103 47.5981Z" fill="#2AD2FF"/>
<path d="M92.873 42.1279C93.1546 42.0391 92.4673 42.4706 92.1161 42.5584C90.0391 43.0776 87.4429 44.1161 86.7444 40.8434C86.7444 35.9917 94.4051 34.9303 94.4051 30.8367C94.4051 28.2592 93.848 25.6817 92.5944 23.4075C92.873 23.8623 95.7508 27.409 95.7508 31.6543C95.7508 36.9609 90.923 37.731 90.923 40.3085C91.0623 41.3698 91.6194 42.1279 92.873 42.1279Z" fill="#18AAD1"/>
<path d="M85.5187 26.7507C85.5187 30.5009 81.3893 30.2009 81.1312 30.0509H81.5184C82.6798 30.0509 83.325 29.0008 83.325 27.5007C83.325 26.0007 81.9055 24.5006 81.9055 21.5004C81.9055 18.6503 85.8852 14 85.8852 14C84.8528 15.9501 83.454 18.0502 83.325 20.1503C83.325 23.6005 85.5187 23.9005 85.5187 26.7507Z" fill="#18AAD1"/>
<path d="M44.8738 123C46.6518 123 47.5898 121.88 47.5898 120.48C47.5898 119.304 46.7918 118.338 45.7978 118.184C46.6798 118.002 47.4078 117.218 47.4078 116.042C47.4078 114.796 46.4978 113.662 44.7198 113.662H39.8058V123H44.8738ZM44.2858 117.4H41.7938V115.37H44.2858C44.9578 115.37 45.3778 115.804 45.3778 116.392C45.3778 116.98 44.9578 117.4 44.2858 117.4ZM44.3558 121.278H41.7938V119.108H44.3558C45.1398 119.108 45.5598 119.612 45.5598 120.2C45.5598 120.872 45.1118 121.278 44.3558 121.278ZM55.697 123V121.25H51.077V119.136H55.599V117.386H51.077V115.412H55.697V113.662H49.089V123H55.697ZM60.5691 123.168C63.0891 123.168 64.3071 121.88 64.3071 120.172C64.3071 116.686 58.9451 117.68 58.9451 116.196C58.9451 115.636 59.4211 115.258 60.2751 115.258C61.2271 115.258 62.2351 115.58 62.9911 116.28L64.0971 114.824C63.1731 113.97 61.9411 113.522 60.4571 113.522C58.2591 113.522 56.9151 114.81 56.9151 116.364C56.9151 119.878 62.2911 118.744 62.2911 120.396C62.2911 120.928 61.7591 121.432 60.6671 121.432C59.3791 121.432 58.3571 120.858 57.6991 120.172L56.6211 121.684C57.4891 122.566 58.7771 123.168 60.5691 123.168ZM69.6259 123V115.412H72.3419V113.662H64.8939V115.412H67.6239V123H69.6259ZM86.4524 123L89.1124 113.662H86.8724L85.2484 120.41L83.4844 113.662H81.9304L80.1524 120.41L78.5144 113.662H76.2884L78.9624 123H81.0764L82.7004 116.588L84.3384 123H86.4524ZM96.658 123V121.25H92.038V119.136H96.56V117.386H92.038V115.412H96.658V113.662H90.05V123H96.658ZM103.28 123C105.058 123 105.996 121.88 105.996 120.48C105.996 119.304 105.198 118.338 104.204 118.184C105.086 118.002 105.814 117.218 105.814 116.042C105.814 114.796 104.904 113.662 103.126 113.662H98.2121V123H103.28ZM102.692 117.4H100.2V115.37H102.692C103.364 115.37 103.784 115.804 103.784 116.392C103.784 116.98 103.364 117.4 102.692 117.4ZM102.762 121.278H100.2V119.108H102.762C103.546 119.108 103.966 119.612 103.966 120.2C103.966 120.872 103.518 121.278 102.762 121.278ZM110.813 123.168C113.333 123.168 114.551 121.88 114.551 120.172C114.551 116.686 109.189 117.68 109.189 116.196C109.189 115.636 109.665 115.258 110.519 115.258C111.471 115.258 112.479 115.58 113.235 116.28L114.341 114.824C113.417 113.97 112.185 113.522 110.701 113.522C108.503 113.522 107.159 114.81 107.159 116.364C107.159 119.878 112.535 118.744 112.535 120.396C112.535 120.928 112.003 121.432 110.911 121.432C109.623 121.432 108.601 120.858 107.943 120.172L106.865 121.684C107.733 122.566 109.021 123.168 110.813 123.168ZM117.878 123V113.662H115.89V123H117.878ZM123.89 123V115.412H126.606V113.662H119.158V115.412H121.888V123H123.89ZM134.488 123V121.25H129.868V119.136H134.39V117.386H129.868V115.412H134.488V113.662H127.88V123H134.488ZM66.2447 137C69.1707 137 71.2007 135.152 71.2007 132.338C71.2007 129.524 69.1707 127.662 66.2447 127.662H62.5627V137H66.2447ZM66.2447 135.25H64.5507V129.412H66.2447C68.1627 129.412 69.1707 130.686 69.1707 132.338C69.1707 133.92 68.0927 135.25 66.2447 135.25ZM79.2195 137V135.25H74.5995V133.136H79.1215V131.386H74.5995V129.412H79.2195V127.662H72.6115V137H79.2195ZM84.0916 137.168C86.6116 137.168 87.8296 135.88 87.8296 134.172C87.8296 130.686 82.4676 131.68 82.4676 130.196C82.4676 129.636 82.9436 129.258 83.7976 129.258C84.7496 129.258 85.7576 129.58 86.5136 130.28L87.6196 128.824C86.6956 127.97 85.4636 127.522 83.9796 127.522C81.7816 127.522 80.4376 128.81 80.4376 130.364C80.4376 133.878 85.8136 132.744 85.8136 134.396C85.8136 134.928 85.2816 135.432 84.1896 135.432C82.9016 135.432 81.8796 134.858 81.2216 134.172L80.1436 135.684C81.0116 136.566 82.2996 137.168 84.0916 137.168ZM91.1561 137V127.662H89.1681V137H91.1561ZM97.5319 137.182C99.2259 137.182 100.556 136.482 101.508 135.418V131.834H97.0559V133.57H99.5199V134.69C99.1419 135.04 98.3579 135.404 97.5319 135.404C95.8379 135.404 94.6059 134.102 94.6059 132.338C94.6059 130.574 95.8379 129.272 97.5319 129.272C98.5259 129.272 99.3239 129.832 99.7439 130.49L101.396 129.594C100.696 128.488 99.4779 127.508 97.5319 127.508C94.8019 127.508 92.5619 129.384 92.5619 132.338C92.5619 135.278 94.8019 137.182 97.5319 137.182ZM111.444 137V127.662H109.456V133.528L105.13 127.662H103.086V137H105.074V130.91L109.526 137H111.444Z" fill="white"/>
<defs>
<linearGradient id="paint0_linear_7_7337" x1="87.0796" y1="104.941" x2="87.0796" y2="204.035" gradientUnits="userSpaceOnUse">
<stop stop-color="#1E4282"/>
<stop offset="1" stop-color="#001D51"/>
</linearGradient>
<radialGradient id="paint1_radial_7_7337" cx="0" cy="0" r="1" gradientUnits="userSpaceOnUse" gradientTransform="translate(87.1471 51.4761) scale(54.2026 54.5253)">
<stop offset="0.4134" stop-color="#295AB3"/>
<stop offset="1" stop-color="#1E4282"/>
</radialGradient>
<linearGradient id="paint2_linear_7_7337" x1="86.8626" y1="82.643" x2="86.8626" y2="64.1567" gradientUnits="userSpaceOnUse">
<stop offset="1" stop-color="#2AD2FF"/>
</linearGradient>
</defs>
</svg>
