<svg width="203" height="274" viewBox="0 0 203 274" fill="none" xmlns="http://www.w3.org/2000/svg">
<path d="M11 183H0L4.07759 198L0 213H10.9052L11 196.588V183Z" fill="#00539F"/>
<path d="M191 183H203L198.513 198L203 213H191V196.588L191 183Z" fill="#00539F"/>
<g filter="url(#filter0_d_101_1964)">
<path d="M11 53.4051L100.765 10L191 53.4051V220.059L101.235 264L11 220.059V53.4051Z" fill="white"/>
</g>
<path d="M16 58.8418L100.279 18L185 58.8418V215.654L100.721 257L16 215.654V58.8418Z" fill="url(#paint0_linear_101_1964)"/>
<path d="M99.169 92.3235L97 90.7794H99.662L100.549 88L101.338 90.7794H104L101.831 92.3235L102.62 95L100.451 93.3529L98.1831 95L99.169 92.3235Z" fill="#2AD2FF"/>
<path d="M113.169 92.3235L111 90.7794H113.662L114.549 88L115.338 90.7794H118L115.831 92.3235L116.62 95L114.451 93.3529L112.183 95L113.169 92.3235Z" fill="#2AD2FF"/>
<path d="M87.169 92.3235L85 90.7794H87.662L88.5493 88L89.338 90.7794H92L89.831 92.3235L90.6197 95L88.4507 93.3529L86.2817 95L87.169 92.3235Z" fill="#2AD2FF"/>
<path d="M101 74C100.896 74 100.896 73.8879 101 74L100.482 73.6638L100.378 73.5517L88.1463 64.1379C88.1463 64.1379 88.0427 64.1379 88.0427 64.0259L87.8354 63.8017L87.7317 63.6897H87.5244L84 61L90.9451 62.1207C91.2561 62.1207 91.3598 62.2328 91.6707 62.3448C91.7744 62.3448 91.9817 62.4569 91.9817 62.4569C92.2927 62.569 92.3963 62.681 92.6037 62.7931C92.811 62.9052 92.9146 63.0172 93.122 63.1293C93.2256 63.2414 93.4329 63.3534 93.4329 63.4655C93.5366 63.5776 93.6402 63.5776 93.7439 63.6897C93.9512 63.8017 94.0549 63.9138 94.0549 64.0259C94.3659 64.3621 94.5732 64.6983 94.8841 64.9224L100.378 73.3276L100.482 73.4397L101 74Z" fill="#18AAD1"/>
<path d="M101.393 86L100.86 85.1379L100.753 85.0302L84 61L87.628 63.5862L88.2683 64.0172L100.86 73.069H100.966L101.393 73.3922C101.393 73.3922 101.5 73.3922 101.5 73.5L102.034 73.069L119 61L101.927 85.1379L101.82 85.2457L101.393 86Z" fill="url(#paint1_linear_101_1964)"/>
<path d="M101.091 70L100.636 69.125L100.545 69.0156L97 63.1094L100.545 63.9844H100.636L101.091 64.0938L101.545 63.9844L105 63L101.545 69.125V69.2344L101.091 70Z" fill="#18AAD1"/>
<path d="M119 61L113.578 61.7778L111.518 62.1111C109.892 62.3333 108.373 63.2222 107.398 64.6667L101.651 73.1111L101.542 73.2222L101 74L101.651 73.3333L101.759 73.2222L101 74L115.639 63.3333L119 61Z" fill="#18AAD1"/>
<path d="M103 45.6056C103 49.9437 95.2449 52.2113 95.2449 56.8451C95.1429 57.9296 95.449 59.0141 95.9592 60C95.9592 60 93 57.2394 93 54.2817C93 51.3239 95.8571 46.8873 95.8571 46.8873C95.8571 48.8592 96.6735 49.4507 97.4898 49.5493H97.5918C98.5102 49.5493 99.0204 48.8592 99.0204 47.8732C99.0204 46.8873 97.898 45.9014 97.898 43.9296C97.898 42.0563 100.347 39 100.347 39C102.082 40.9718 103 43.2394 103 45.6056Z" fill="#2AD2FF"/>
<path d="M101.648 61C98.992 61 97 59.1905 97 57V56.9048C97 52.0476 104.857 51.5714 104.857 45C105.079 45.2857 107.181 47.7619 107.181 50.4286C107.181 53.7619 103.529 54.619 103.529 56.2381C103.529 56.9048 103.861 57.3809 104.968 57.3809C105.079 57.3809 105.189 57.381 105.3 57.2857C107.403 56.5238 108.841 54.8095 108.952 52.8095C108.952 52.9048 110.059 61 101.648 61Z" fill="#2AD2FF"/>
<path d="M105.083 57.3366C105.27 57.2781 104.813 57.5624 104.579 57.6202C103.195 57.9624 101.465 58.6468 101 56.4901C101 53.2928 106.104 52.5934 106.104 49.8958C106.104 48.1972 105.732 46.4987 104.897 45C105.083 45.2997 107 47.637 107 50.4345C107 53.9315 103.784 54.4391 103.784 56.1376C103.877 56.837 104.248 57.3366 105.083 57.3366Z" fill="#18AAD1"/>
<path d="M99.7688 47.697C99.7688 50.255 97.1629 50.0503 97 49.948H97.2443C97.9772 49.948 98.3844 49.2318 98.3844 48.2086C98.3844 47.1854 97.4886 46.1623 97.4886 44.1159C97.4886 42.1719 100 39 100 39C99.3485 40.3301 98.4658 41.7626 98.3844 43.195C98.3844 45.5483 99.7688 45.753 99.7688 47.697Z" fill="#18AAD1"/>
<path d="M55.4341 145.617L61.5991 124.319H55.3372L52.1095 138.528L48.4298 124.319H44.1692L40.4896 138.528L37.2296 124.319H31L37.165 145.617H43.0395L46.2995 132.27L49.5596 145.617H55.4341Z" fill="white"/>
<path d="M79.4339 145.617V140.827H69.2019V137.219H79.208V132.43H69.2019V129.109H79.4339V124.319H63.6502V145.617H79.4339Z" fill="white"/>
<path d="M95.5684 145.617C99.7967 145.617 101.895 142.935 101.895 139.837C101.895 137.155 100.087 134.984 97.7955 134.633C99.829 134.186 101.475 132.398 101.475 129.747C101.475 127.065 99.4739 124.319 95.181 124.319H82.9801V145.617H95.5684ZM93.9222 132.43H88.5319V129.109H93.9222C95.0519 129.109 95.8266 129.747 95.8266 130.769C95.8266 131.823 95.0519 132.43 93.9222 132.43ZM94.1159 140.827H88.5319V137.219H94.1159C95.4715 137.219 96.2462 137.954 96.2462 139.007C96.2462 140.157 95.4392 140.827 94.1159 140.827Z" fill="white"/>
<path d="M113.246 146C119.024 146 122.219 143.158 122.219 138.88C122.219 130.961 110.051 132.94 110.051 130.322C110.051 129.396 110.761 128.853 112.375 128.853C114.505 128.853 116.861 129.588 118.669 131.089L121.703 126.97C119.411 125.022 116.41 124 112.956 124C107.436 124 104.402 127.193 104.402 130.769C104.402 138.975 116.571 136.644 116.571 139.454C116.571 140.508 115.409 141.147 113.537 141.147C110.567 141.147 108.179 139.869 106.629 138.337L103.692 142.615C105.855 144.627 108.889 146 113.246 146Z" fill="white"/>
<path d="M130.691 145.617V124.319H125.139V145.617H130.691Z" fill="white"/>
<path d="M145.247 145.617V129.109H151.251V124.319H133.66V129.109H139.696V145.617H145.247Z" fill="white"/>
<path d="M170 145.617V140.827H159.768V137.219H169.774V132.43H159.768V129.109H170V124.319H154.216V145.617H170Z" fill="white"/>
<path d="M70.6098 165.774C74.7823 165.774 77.7968 163.381 77.7968 159.481C77.7968 155.581 74.7823 153.207 70.5899 153.207H65V165.774H70.6098ZM70.5899 162.948H68.4338V156.033H70.6098C73.0454 156.033 74.2832 157.541 74.2832 159.481C74.2832 161.346 72.9256 162.948 70.5899 162.948Z" fill="white"/>
<path d="M89.4669 165.774V162.948H83.1384V160.819H89.3272V157.993H83.1384V156.033H89.4669V153.207H79.7046V165.774H89.4669Z" fill="white"/>
<path d="M96.6113 166C100.185 166 102.161 164.323 102.161 161.799C102.161 157.126 94.6349 158.294 94.6349 156.749C94.6349 156.203 95.0741 155.883 96.0723 155.883C97.3899 155.883 98.8473 156.316 99.9652 157.201L101.842 154.771C100.424 153.622 98.5678 153.019 96.4316 153.019C93.0178 153.019 91.1412 154.903 91.1412 157.013C91.1412 161.855 98.6676 160.48 98.6676 162.138C98.6676 162.759 97.9489 163.136 96.791 163.136C94.9543 163.136 93.477 162.383 92.5187 161.478L90.702 164.003C92.0396 165.19 93.9162 166 96.6113 166Z" fill="white"/>
<path d="M107.401 165.774V153.207H103.967V165.774H107.401Z" fill="white"/>
<path d="M116.524 166C119.039 166 120.996 165.039 122.413 163.551V158.558H115.985V161.403H118.98V162.383C118.5 162.759 117.502 163.136 116.524 163.136C114.348 163.136 112.811 161.554 112.811 159.5C112.811 157.428 114.348 155.864 116.524 155.864C117.822 155.864 118.84 156.636 119.339 157.465L122.214 156.052C121.295 154.488 119.499 153 116.524 153C112.551 153 109.317 155.506 109.317 159.5C109.317 163.494 112.551 166 116.524 166Z" fill="white"/>
<path d="M137 165.774V153.207H133.546V160.122L128.156 153.207H124.622V165.774H128.056V158.501L133.686 165.774H137Z" fill="white"/>
<path d="M91.6222 232.843V231.21H88.1382C90.3541 229.565 91.5582 228.271 91.5582 226.782C91.5582 225.045 90.1107 224 88.2919 224C87.1007 224 85.8326 224.444 85 225.424L86.0375 226.652C86.6139 226.038 87.3568 225.646 88.3303 225.646C89.0348 225.646 89.7137 226.025 89.7137 226.782C89.7137 227.853 88.689 228.755 85.1921 231.393V232.843H91.6222Z" fill="#2AD2FF"/>
<path d="M97.2659 233C99.6996 233 100.801 230.74 100.801 228.493C100.801 226.247 99.6996 224 97.2659 224C94.8194 224 93.7307 226.247 93.7307 228.493C93.7307 230.74 94.8194 233 97.2659 233ZM97.2659 231.354C96.0363 231.354 95.5751 230.1 95.5751 228.493C95.5751 226.887 96.0363 225.646 97.2659 225.646C98.4828 225.646 98.9439 226.887 98.9439 228.493C98.9439 230.1 98.4828 231.354 97.2659 231.354Z" fill="#2AD2FF"/>
<path d="M109.295 232.843V231.21H105.811C108.027 229.565 109.231 228.271 109.231 226.782C109.231 225.045 107.784 224 105.965 224C104.773 224 103.505 224.444 102.673 225.424L103.71 226.652C104.287 226.038 105.03 225.646 106.003 225.646C106.708 225.646 107.386 226.025 107.386 226.782C107.386 227.853 106.362 228.755 102.865 231.393V232.843H109.295Z" fill="#2AD2FF"/>
<path d="M118 232.843V231.21H114.516C116.732 229.565 117.936 228.271 117.936 226.782C117.936 225.045 116.489 224 114.67 224C113.478 224 112.21 224.444 111.378 225.424L112.415 226.652C112.992 226.038 113.735 225.646 114.708 225.646C115.413 225.646 116.091 226.025 116.091 226.782C116.091 227.853 115.067 228.755 111.57 231.393V232.843H118Z" fill="#2AD2FF"/>
<path d="M191 179H11V209H191V179Z" fill="#0460B5"/>
<path d="M27.7186 200.755C31.4683 200.755 34.0698 198.272 34.0698 194.491C34.0698 190.709 31.4683 188.207 27.7186 188.207H23V200.755H27.7186ZM27.7186 198.404H25.5477V190.559H27.7186C30.1765 190.559 31.4683 192.271 31.4683 194.491C31.4683 196.616 30.0868 198.404 27.7186 198.404Z" fill="white"/>
<path d="M44.7049 200.755V198.404H38.7843V195.563H44.5793V193.211H38.7843V190.559H44.7049V188.207H36.2366V200.755H44.7049Z" fill="white"/>
<path d="M51.3075 200.981C54.5369 200.981 56.0978 199.25 56.0978 196.955C56.0978 192.271 49.2263 193.606 49.2263 191.612C49.2263 190.86 49.8363 190.352 50.9307 190.352C52.1507 190.352 53.4425 190.784 54.4113 191.725L55.8287 189.768C54.6446 188.621 53.0657 188.019 51.164 188.019C48.3472 188.019 46.6248 189.75 46.6248 191.838C46.6248 196.56 53.5143 195.036 53.5143 197.256C53.5143 197.971 52.8325 198.648 51.4331 198.648C49.7825 198.648 48.4728 197.877 47.6295 196.955L46.248 198.987C47.3604 200.172 49.011 200.981 51.3075 200.981Z" fill="white"/>
<path d="M60.7197 200.755V188.207H58.172V200.755H60.7197Z" fill="white"/>
<path d="M69.2492 201C71.4201 201 73.1246 200.059 74.3446 198.63V193.813H68.6392V196.146H71.7969V197.651C71.3125 198.122 70.3078 198.611 69.2492 198.611C67.0783 198.611 65.4995 196.861 65.4995 194.491C65.4995 192.12 67.0783 190.37 69.2492 190.37C70.5231 190.37 71.5457 191.123 72.084 192.007L74.201 190.803C73.304 189.317 71.7431 188 69.2492 188C65.7507 188 62.8801 190.521 62.8801 194.491C62.8801 198.441 65.7507 201 69.2492 201Z" fill="white"/>
<path d="M87.4368 200.755V188.207H84.8892V196.09L79.3453 188.207H76.7259V200.755H79.2735V192.572L84.9789 200.755H87.4368Z" fill="white"/>
<path d="M99.8435 200.755L97.1523 195.977C98.4441 195.657 99.7718 194.472 99.7718 192.252C99.7718 189.919 98.2468 188.207 95.7529 188.207H90.1552V200.755H92.7029V196.297H94.5688L96.9191 200.755H99.8435ZM95.3761 193.945H92.7029V190.559H95.3761C96.3988 190.559 97.1703 191.198 97.1703 192.252C97.1703 193.305 96.3988 193.945 95.3761 193.945Z" fill="white"/>
<path d="M107.443 200.981C111.085 200.981 112.843 198.855 112.843 195.732V188.207H110.242V195.657C110.242 197.407 109.291 198.611 107.443 198.611C105.595 198.611 104.626 197.407 104.626 195.657V188.207H102.043V195.751C102.043 198.836 103.801 200.981 107.443 200.981Z" fill="white"/>
<path d="M119.812 200.981C123.041 200.981 124.602 199.25 124.602 196.955C124.602 192.271 117.731 193.606 117.731 191.612C117.731 190.86 118.341 190.352 119.435 190.352C120.655 190.352 121.947 190.784 122.916 191.725L124.333 189.768C123.149 188.621 121.57 188.019 119.668 188.019C116.851 188.019 115.129 189.75 115.129 191.838C115.129 196.56 122.019 195.036 122.019 197.256C122.019 197.971 121.337 198.648 119.937 198.648C118.287 198.648 116.977 197.877 116.134 196.955L114.752 198.987C115.865 200.172 117.515 200.981 119.812 200.981Z" fill="white"/>
<path d="M137.441 200.755V188.207H134.876V193.136H129.224V188.207H126.676V200.755H129.224V195.488H134.876V200.755H137.441Z" fill="white"/>
<path d="M141.271 200.962C142.06 200.962 142.724 200.266 142.724 199.438C142.724 198.611 142.06 197.915 141.271 197.915C140.481 197.915 139.817 198.611 139.817 199.438C139.817 200.266 140.481 200.962 141.271 200.962Z" fill="white"/>
<path d="M149.02 200.981C150.797 200.981 151.873 200.172 152.447 199.326L150.958 197.877C150.545 198.479 149.917 198.855 149.128 198.855C147.747 198.855 146.778 197.783 146.778 196.203C146.778 194.622 147.747 193.569 149.128 193.569C149.917 193.569 150.545 193.907 150.958 194.547L152.447 193.08C151.873 192.252 150.797 191.443 149.02 191.443C146.347 191.443 144.427 193.418 144.427 196.203C144.427 199.006 146.347 200.981 149.02 200.981Z" fill="white"/>
<path d="M158.314 200.981C161.185 200.981 162.907 198.799 162.907 196.203C162.907 193.625 161.185 191.443 158.314 191.443C155.462 191.443 153.739 193.625 153.739 196.203C153.739 198.799 155.462 200.981 158.314 200.981ZM158.314 198.855C156.897 198.855 156.108 197.632 156.108 196.203C156.108 194.792 156.897 193.569 158.314 193.569C159.732 193.569 160.539 194.792 160.539 196.203C160.539 197.632 159.732 198.855 158.314 198.855Z" fill="white"/>
<path d="M178 200.755V194.19C178 192.327 177.049 191.443 175.452 191.443C174.125 191.443 172.976 192.271 172.474 193.098C172.151 192.064 171.344 191.443 170.07 191.443C168.742 191.443 167.594 192.308 167.235 192.854V191.669H164.957V200.755H167.235V194.641C167.576 194.133 168.24 193.569 169.029 193.569C169.962 193.569 170.321 194.171 170.321 195.017V200.755H172.618V194.622C172.941 194.133 173.604 193.569 174.412 193.569C175.345 193.569 175.704 194.171 175.704 195.017V200.755H178Z" fill="white"/>
<path opacity="0.2" fill-rule="evenodd" clip-rule="evenodd" d="M68 113H58V112H68V113Z" fill="white"/>
<path opacity="0.2" fill-rule="evenodd" clip-rule="evenodd" d="M146 113H136V112H146V113Z" fill="white"/>
<path d="M89.7143 116.843C91.3682 116.843 92.2407 115.798 92.2407 114.492C92.2407 113.395 91.4984 112.493 90.5738 112.35C91.3942 112.18 92.0714 111.448 92.0714 110.351C92.0714 109.189 91.2249 108.131 89.571 108.131H85V116.843H89.7143ZM89.1673 111.618H86.8492V109.724H89.1673C89.7924 109.724 90.1831 110.129 90.1831 110.678C90.1831 111.226 89.7924 111.618 89.1673 111.618ZM89.2324 115.237H86.8492V113.212H89.2324C89.9617 113.212 90.3524 113.682 90.3524 114.231C90.3524 114.858 89.9357 115.237 89.2324 115.237Z" fill="#2AD2FF"/>
<path d="M100.694 116.843V115.21H96.3961V113.238H100.602V111.605H96.3961V109.763H100.694V108.131H94.5469V116.843H100.694Z" fill="#2AD2FF"/>
<path d="M106.137 117C108.481 117 109.614 115.798 109.614 114.205C109.614 110.952 104.627 111.88 104.627 110.495C104.627 109.972 105.069 109.62 105.864 109.62C106.749 109.62 107.687 109.92 108.39 110.573L109.419 109.215C108.56 108.418 107.414 108 106.033 108C103.989 108 102.738 109.202 102.738 110.652C102.738 113.93 107.739 112.872 107.739 114.414C107.739 114.91 107.244 115.38 106.228 115.38C105.03 115.38 104.08 114.845 103.468 114.205L102.465 115.615C103.272 116.438 104.47 117 106.137 117Z" fill="#2AD2FF"/>
<path d="M115.474 116.843V109.763H118V108.131H111.072V109.763H113.611V116.843H115.474Z" fill="#2AD2FF"/>
<defs>
<filter id="filter0_d_101_1964" x="1" y="0" width="200" height="274" filterUnits="userSpaceOnUse" color-interpolation-filters="sRGB">
<feFlood flood-opacity="0" result="BackgroundImageFix"/>
<feColorMatrix in="SourceAlpha" type="matrix" values="0 0 0 0 0 0 0 0 0 0 0 0 0 0 0 0 0 0 127 0" result="hardAlpha"/>
<feOffset/>
<feGaussianBlur stdDeviation="5"/>
<feComposite in2="hardAlpha" operator="out"/>
<feColorMatrix type="matrix" values="0 0 0 0 0 0 0 0 0 0 0 0 0 0 0 0 0 0 0.1 0"/>
<feBlend mode="normal" in2="BackgroundImageFix" result="effect1_dropShadow_101_1964"/>
<feBlend mode="normal" in="SourceGraphic" in2="effect1_dropShadow_101_1964" result="shape"/>
</filter>
<linearGradient id="paint0_linear_101_1964" x1="100.5" y1="23.808" x2="100.5" y2="233.768" gradientUnits="userSpaceOnUse">
<stop stop-color="#0460B5"/>
<stop offset="1" stop-color="#001D51"/>
</linearGradient>
<linearGradient id="paint1_linear_101_1964" x1="101.5" y1="86.0737" x2="101.5" y2="72.8473" gradientUnits="userSpaceOnUse">
<stop offset="1" stop-color="#2AD2FF"/>
</linearGradient>
</defs>
</svg>
