<?xml version="1.0" encoding="utf-8"?>
<!-- Generator: Adobe Illustrator 25.0.1, SVG Export Plug-In . SVG Version: 6.00 Build 0)  -->
<svg version="1.1" id="Layer_1" xmlns="http://www.w3.org/2000/svg" xmlns:xlink="http://www.w3.org/1999/xlink" x="0px" y="0px"
	 viewBox="0 0 100 100" style="enable-background:new 0 0 100 100;" xml:space="preserve">
<style type="text/css">
	.st0{fill:#FFFFFF;}
	.st1{fill:url(#SVGID_1_);}
	.st2{fill:url(#SVGID_2_);}
	.st3{fill:url(#SVGID_3_);}
	.st4{fill:url(#SVGID_4_);}
	.st5{fill:#CCCCCC;}
	.st6{fill:#774EFB;}
	.st7{fill:#2AF4FF;}
	.st8{opacity:0.2;enable-background:new    ;}
	.st9{fill:#50E2B6;}
	.st10{fill:#24EAEA;}
	.st11{fill:url(#SVGID_5_);}
	.st12{fill:url(#SVGID_6_);}
	.st13{fill:#519FFD;}
	.st14{fill:url(#SVGID_7_);}
	.st15{fill:#7E60FC;}
	.st16{fill:url(#SVGID_8_);}
	.st17{fill:#29ABE2;}
</style>
<g>
	<g>
		<g>
			<g>
				<path class="st0" d="M7.1,37.8c1.1,0.3,1.5,1.2,1.1,2.9l-0.8,3.2l-6.1-1.5l0.7-3c0.4-1.5,1.2-2.2,2.2-1.9c0.6,0.1,1,0.6,1.2,1.1
					C5.7,38,6.3,37.7,7.1,37.8z M2.7,41.2l1.4,0.3l0.3-1.4c0.2-0.7,0-1.1-0.5-1.2c-0.5-0.1-0.8,0.2-1,0.9L2.7,41.2z M6.6,39.2
					c-0.5-0.1-0.9,0.2-1,0.9l-0.4,1.7l1.5,0.4L7,40.5C7.2,39.8,7.1,39.4,6.6,39.2z"/>
				<path class="st0" d="M10.2,31.6l1.1,0.5l-1.9,4.5l-5.8-2.5l1.9-4.4l1.1,0.5l-1.3,3l1.3,0.5l1.1-2.7l1,0.4l-1.1,2.7l1.3,0.6
					L10.2,31.6z"/>
				<path class="st0" d="M11.3,30.6l-0.7-1c0.6-0.2,1.3-0.8,1.7-1.4c0.5-0.7,0.4-1.2,0.1-1.4c-1-0.6-2.2,2.9-4.2,1.7
					c-0.9-0.6-1.2-1.8-0.3-3.3c0.4-0.7,1-1.3,1.6-1.6l0.7,1c-0.6,0.3-1,0.8-1.3,1.2c-0.5,0.7-0.4,1.2,0,1.4c1,0.6,2.2-2.9,4.2-1.7
					c0.9,0.6,1.2,1.8,0.3,3.3C12.8,29.7,12,30.4,11.3,30.6z"/>
				<path class="st0" d="M12.5,20.9l-1.3,1.5l-0.9-0.8l3.5-4.2l0.9,0.8l-1.3,1.5l3.9,3.3l-0.9,1.1L12.5,20.9z"/>
				<path class="st0" d="M26.4,7.7l1.8,6.4l-1.3,0.9l-3.5-2.8l1.2,4.3l-1.3,0.9L18,13.3l1.3-0.8l3.7,2.9l-1.3-4.5l1.1-0.8l3.7,2.9
					l-1.3-4.5L26.4,7.7z"/>
				<path class="st0" d="M35.3,9.5l0.4,1.1l-4.5,1.9l-2.4-5.8l4.4-1.8l0.4,1.1l-3.1,1.3l0.5,1.3l2.7-1.1l0.4,1l-2.7,1.1l0.6,1.3
					L35.3,9.5z"/>
				<path class="st0" d="M42.7,7.1c0.2,1.1-0.5,1.9-2.1,2.2L37.5,10l-1.4-6.1l3-0.7c1.5-0.4,2.5,0.1,2.7,1.1
					c0.1,0.6-0.1,1.2-0.5,1.5C42,5.9,42.5,6.3,42.7,7.1z M37.7,4.6l0.3,1.4l1.4-0.3c0.7-0.2,1-0.5,0.9-1s-0.5-0.6-1.2-0.5L37.7,4.6z
					 M41.3,7.3c-0.1-0.5-0.6-0.7-1.3-0.5l-1.7,0.4l0.3,1.5l1.7-0.4C41,8.1,41.4,7.8,41.3,7.3z"/>
				<path class="st0" d="M44.3,8l0.4-1.1c0.6,0.4,1.4,0.6,2.1,0.5c0.9-0.1,1.2-0.4,1.2-0.8c-0.1-1.2-3.7-0.1-3.8-2.5
					c-0.1-1.1,0.7-2,2.5-2.1C47.5,2,48.4,2.1,49,2.4l-0.4,1.1c-0.6-0.3-1.2-0.4-1.8-0.4C46,3.2,45.6,3.6,45.7,4
					c0.1,1.2,3.7,0.1,3.8,2.4c0.1,1.1-0.7,2-2.5,2.1C46,8.6,44.9,8.4,44.3,8z"/>
				<path class="st0" d="M51.6,2.1l1.5,0.1l-0.3,6.3l-1.5-0.1L51.6,2.1z"/>
				<path class="st0" d="M57.1,3.8l-2-0.3l0.2-1.2l5.4,0.9l-0.2,1.2l-2-0.3l-0.8,5l-1.4-0.2L57.1,3.8z"/>
				<path class="st0" d="M66.1,10.2l-0.4,1.1l-4.6-1.5l2-6l4.5,1.5l-0.4,1.1l-3.1-1l-0.4,1.3l2.8,0.9l-0.4,1.1l-2.8-0.9l-0.5,1.4
					L66.1,10.2z"/>
				<path class="st0" d="M73.8,8.1l2.4,1.5c1.7,1.1,2.3,2.9,1.2,4.5c-1,1.6-2.9,1.9-4.6,0.8l-2.4-1.5L73.8,8.1z M73.4,13.9
					c1.1,0.7,2.1,0.5,2.8-0.5c0.6-1,0.4-2.1-0.7-2.8l-1.1-0.7l-2.1,3.3L73.4,13.9z"/>
				<path class="st0" d="M81.4,20.4l-0.8,0.9L77,18l4.2-4.7l3.5,3.2L84,17.4l-2.4-2.2l-0.9,1l2.2,2L82,19l-2.2-2l-1,1.1L81.4,20.4z"
					/>
				<path class="st0" d="M82,21.9l1.2-0.3c0,0.7,0.3,1.4,0.8,2c0.5,0.7,1,0.8,1.3,0.5c0.9-0.7-2-3.1-0.2-4.6
					c0.8-0.7,2.1-0.6,3.2,0.8c0.5,0.6,0.9,1.4,0.9,2.1l-1.1,0.3c-0.1-0.7-0.4-1.2-0.7-1.7c-0.5-0.7-1-0.7-1.3-0.5
					c-0.9,0.7,2,3.1,0.2,4.5c-0.8,0.7-2.1,0.6-3.2-0.8C82.5,23.5,82.1,22.6,82,21.9z"/>
				<path class="st0" d="M91.1,24.4l0.8,1.2L86.5,29l-0.8-1.2L91.1,24.4z"/>
				<path class="st0" d="M92.4,33.4l0.6,1.2l-2.3,1.1c-0.8-0.4-1.4-1.2-1.8-2c-0.8-1.8-0.2-3.7,1.5-4.5c1.7-0.8,3.6,0,4.4,1.8
					c0.5,1,0.5,2,0.1,2.9l-1.2-0.5c0.2-0.6,0.2-1.2,0-1.8c-0.5-1.1-1.6-1.5-2.7-1c-1.1,0.5-1.5,1.6-1,2.7c0.2,0.4,0.4,0.7,0.7,0.9
					L92.4,33.4z"/>
				<path class="st0" d="M98.2,41.8l-6.1,1.6l-0.3-1.2l2.9-4l-3.7,1l-0.4-1.4l6.1-1.6l0.3,1.2l-2.9,4l3.7-1L98.2,41.8z"/>
			</g>
		</g>
		<g>
			<path class="st0" d="M14.9,72.5l1.6,2.3c1.1,1.6,0.9,3.4-0.6,4.5s-3.3,0.6-4.4-1l-1.6-2.3L14.9,72.5z M12.4,77.5
				c0.7,1,1.7,1.2,2.7,0.6c1-0.7,1.1-1.7,0.4-2.7l-0.7-1.1l-3.1,2.1L12.4,77.5z"/>
			<path class="st0" d="M18.8,85.1L18,85.9l-3.3-3.4l4.4-4.2l3.2,3.3l-0.8,0.8l-2.2-2.3l-1,0.9l1.9,2l-0.8,0.8l-1.9-2l-1,1
				L18.8,85.1z"/>
			<path class="st0" d="M19.5,86.5l1-0.5c0.2,0.6,0.6,1.3,1.2,1.7c0.7,0.5,1.1,0.5,1.3,0.2c0.7-0.9-2.6-2.5-1.2-4.2
				c0.6-0.8,1.8-1,3.2,0.1c0.6,0.5,1.1,1.1,1.3,1.7l-1,0.6c-0.2-0.6-0.6-1.1-1-1.4c-0.7-0.5-1.1-0.5-1.3-0.2
				c-0.7,0.9,2.6,2.5,1.2,4.2c-0.6,0.8-1.8,1-3.2-0.1C20.3,88,19.7,87.2,19.5,86.5z"/>
			<path class="st0" d="M27.9,85.9l1.2,0.7l-3.2,5.2L24.6,91L27.9,85.9z"/>
			<path class="st0" d="M32.9,91.9l1.2,0.5l-1,2.2c-0.8,0.2-1.8,0-2.6-0.3c-1.7-0.8-2.5-2.6-1.7-4.3c0.8-1.7,2.6-2.3,4.4-1.4
				c1,0.5,1.6,1.2,1.9,2L33.8,91c-0.2-0.6-0.6-1-1.1-1.3c-1.1-0.5-2.1-0.1-2.6,0.9c-0.5,1-0.1,2.1,1,2.6c0.3,0.2,0.7,0.2,1.1,0.2
				L32.9,91.9z"/>
			<path class="st0" d="M41.9,91.7l-1.6,5.9l-1.1-0.3l-2-4.4l-1,3.6l-1.3-0.4l1.6-5.9l1.1,0.3l1.9,4.4l1-3.6L41.9,91.7z"/>
			<path class="st0" d="M70.8,92.6c-0.2-0.4-0.1-0.9,0.3-1.1s0.9-0.1,1.1,0.3c0.2,0.4,0.1,0.9-0.3,1.2C71.5,93.1,71,93,70.8,92.6z"
				/>
			<path class="st0" d="M72,89.4c-1-1.5-0.6-3.4,0.9-4.5c0.9-0.6,1.8-0.8,2.7-0.5l-0.3,1.2c-0.6-0.2-1.2-0.1-1.7,0.3
				c-0.9,0.6-1.1,1.8-0.5,2.7c0.7,0.9,1.8,1.1,2.7,0.5c0.5-0.3,0.8-0.8,0.8-1.5l1.2,0.2c-0.1,0.9-0.6,1.7-1.4,2.3
				C75,91.1,73.1,90.9,72,89.4z"/>
			<path class="st0" d="M77.6,85.5c-1.3-1.3-1.2-3.2,0.2-4.6c1.4-1.3,3.3-1.4,4.6-0.1c1.3,1.3,1.2,3.2-0.2,4.6
				C80.8,86.8,78.8,86.8,77.6,85.5z M81.3,81.8c-0.8-0.8-1.9-0.8-2.7-0.1s-0.8,1.9,0,2.7s1.9,0.8,2.7,0.1S82.1,82.7,81.3,81.8z"/>
			<path class="st0" d="M89.1,76.8l-3-2.1l1.4,3.2l-0.4,0.5l-3.4-0.2l2.9,2l-0.8,1.1l-5-3.5l0.7-1l4.4,0.3l-1.8-4l0.7-0.9l5,3.5
				L89.1,76.8z"/>
			
				<linearGradient id="SVGID_1_" gradientUnits="userSpaceOnUse" x1="84.0115" y1="132.965" x2="145.1015" y2="132.965" gradientTransform="matrix(0.9632 -0.2687 -0.2687 -0.9632 -32.0962 257.9094)">
				<stop  offset="0" style="stop-color:#784CFB"/>
				<stop  offset="1" style="stop-color:#2AF4FF"/>
			</linearGradient>
			<path class="st1" d="M59.7,92.2c-0.3,0-0.6,0-0.9,0.1c-0.2,0.1-0.5,0.2-0.6,0.3c-0.1,0.1-0.2,0.3-0.1,0.5c0,0.2,0.2,0.3,0.3,0.4
				c0.1,0.1,0.3,0.2,0.5,0.1c0.3,0,0.5,0,0.8,0c0.3,0,0.7,0.1,1,0.1c0.3,0.1,0.6,0.2,0.8,0.4c0.2,0.2,0.5,0.5,0.5,0.9
				c0.1,0.3,0.1,0.7-0.1,1c-0.2,0.3-0.3,0.6-0.6,0.9c-0.4,0.3-0.7,0.5-1.1,0.6c-0.5,0.1-1,0.2-1.4,0.1c-0.4,0-0.9-0.2-1.4-0.4
				l0.2-1.1c0.4,0.1,0.8,0.3,1.2,0.3c0.4,0.1,0.8,0,1.1,0c0.2-0.1,0.5-0.2,0.7-0.4c0.2-0.3,0.2-0.6-0.2-0.9c0,0,0-0.1-0.1-0.1
				c-0.2,0-0.3-0.2-0.5-0.1c-0.2,0-0.4,0-0.8,0c-0.3,0-0.7-0.1-1-0.1c-0.3,0-0.6-0.2-0.8-0.3c-0.2-0.2-0.5-0.5-0.5-0.8
				c-0.1-0.3-0.1-0.7,0-0.9c0.2-0.3,0.3-0.6,0.6-0.9c0.4-0.3,0.7-0.5,1.1-0.5c0.4-0.1,0.8-0.1,1.1-0.2c0.3,0,0.8,0,1.2,0.2l-0.1,1.1
				C60.4,92.2,60.1,92.2,59.7,92.2z"/>
			
				<linearGradient id="SVGID_2_" gradientUnits="userSpaceOnUse" x1="160.8248" y1="394.4463" x2="221.9148" y2="394.4463" gradientTransform="matrix(0.9319 -0.3628 -0.3628 -0.9319 8.5197 537.9875)">
				<stop  offset="0" style="stop-color:#784CFB"/>
				<stop  offset="1" style="stop-color:#2AF4FF"/>
			</linearGradient>
			<path class="st2" d="M62.3,90.5l1.1-0.4l1,2.4l2.8-1.1l-1-2.4l1.1-0.4l2.2,5.7l-1.1,0.4l-0.9-2.3l-2.8,1.1l0.9,2.3l-1.1,0.4
				L62.3,90.5z"/>
			
				<linearGradient id="SVGID_3_" gradientUnits="userSpaceOnUse" x1="33.3483" y1="-869.134" x2="94.0277" y2="-869.134" gradientTransform="matrix(0.9953 9.728349e-02 9.728349e-02 -0.9953 61.878 -776.4308)">
				<stop  offset="0" style="stop-color:#784CFB"/>
				<stop  offset="1" style="stop-color:#2AF4FF"/>
			</linearGradient>
			<path class="st3" d="M46.7,98.4l-0.9-1.9l-1.6-0.2l-0.2,1.8l-1.1-0.1l0.6-6.1l2.5,0.2c0.7,0,1.3,0.3,1.7,0.7
				c0.4,0.4,0.6,1,0.5,1.6c0,0.4-0.2,0.8-0.4,1.2c-0.3,0.3-0.6,0.5-1,0.6l1.2,2.2L46.7,98.4z M44.3,95.3l1.4,0.1c0.3,0,0.7,0,1-0.2
				c0.3-0.2,0.5-0.5,0.4-0.9c0-0.3,0-0.7-0.2-0.8c-0.3-0.2-0.6-0.4-0.9-0.3l-1.4-0.1L44.3,95.3z"/>
			
				<linearGradient id="SVGID_4_" gradientUnits="userSpaceOnUse" x1="11.4041" y1="-382.8309" x2="72.4941" y2="-382.8309" gradientTransform="matrix(0.9967 -8.109020e-02 -8.109020e-02 -0.9967 -31.4607 -281.9635)">
				<stop  offset="0" style="stop-color:#784CFB"/>
				<stop  offset="1" style="stop-color:#2AF4FF"/>
			</linearGradient>
			<path class="st4" d="M51.8,97c0.3,0.2,0.8,0.3,1.1,0.3c0.4,0,0.8-0.2,1-0.5c0.2-0.3,0.3-0.8,0.3-1.2L54,92.1l1.1-0.1l0.3,3.6
				c0,0.5,0,1-0.2,1.4s-0.5,0.8-0.8,1c-0.4,0.3-0.9,0.4-1.4,0.4c-0.5,0-1,0-1.5-0.2c-0.4-0.1-0.8-0.4-1-0.8
				c-0.3-0.4-0.4-0.9-0.4-1.4l-0.3-3.6l1.1-0.1l0.3,3.6C51.3,96.3,51.5,96.7,51.8,97z"/>
		</g>
	</g>
	<circle class="st5" cx="5.1" cy="52.9" r="1.8"/>
	<circle class="st5" cx="94.6" cy="52.9" r="1.8"/>
	<circle class="st5" cx="6.9" cy="64" r="1.8"/>
	<circle class="st5" cx="92.7" cy="64" r="1.8"/>
	<path class="st6" d="M50,53.7L50,53.7C49.9,53.7,49.9,53.7,50,53.7l-0.5-0.4l-0.1,0l-13.1-9.4c0,0-0.1,0-0.1-0.1l-0.2-0.1
		c0,0-0.1-0.1-0.1-0.1l-0.2-0.1l-3.7-2.7l7.4,1.1c0.3,0,0.5,0.1,0.8,0.2c0.1,0,0.2,0,0.4,0.1c0.2,0.1,0.5,0.2,0.7,0.3
		c0.2,0.1,0.4,0.2,0.5,0.3c0.1,0.1,0.2,0.1,0.4,0.2c0.1,0.1,0.2,0.1,0.3,0.2c0.1,0.1,0.3,0.2,0.4,0.3c0.3,0.3,0.6,0.6,0.8,1l5.9,8.4
		l0,0.1L50,53.7z"/>
	<path class="st6" d="M50,53.7l0.5-0.8l0-0.1l5.9-8.4c1-1.4,2.5-2.3,4.2-2.6l2.1-0.3l0,0l5.5-0.8L50.6,53.3L50,53.7z"/>
	<path class="st7" d="M50,66.6l-0.5-0.8l-0.1-0.1L31.8,40.8l3.7,2.7l0.7,0.4l13.1,9.4l0,0l0.4,0.3c0,0,0.1,0,0.1,0l0,0l0.6-0.4
		l17.7-12.5L50.6,65.7l0,0.1L50,66.6z"/>
	<polygon class="st7" points="50,49.5 49.4,48.7 49.4,48.6 45.1,42.5 49.4,43.5 49.4,43.5 50,43.6 50.5,43.5 50.6,43.4 54.7,42.4 
		50.6,48.7 50.5,48.8 	"/>
	<polygon class="st8" points="50,53.7 68.2,40.8 62.8,41.6 	"/>
	<path class="st8" d="M50,66.6l-0.5-0.8l-0.1-0.1L31.8,40.8l7.4,1.1c0.3,0,0.5,0.1,0.8,0.2c0.1,0,0.2,0,0.4,0.1
		c0.2,0.1,0.5,0.2,0.7,0.3c0.2,0.1,0.4,0.2,0.5,0.3c0.1,0.1,0.2,0.1,0.4,0.2c0.1,0.1,0.2,0.1,0.3,0.2c0.1,0.1,0.3,0.2,0.4,0.3
		c0.3,0.3,0.6,0.6,0.8,1l5.9,8.4l0,0.1l0.5,0.8L50,66.6z"/>
	<path class="st9" d="M31.8,40.8c0,0,15.7,10.6,18.1,12.9C43.7,49.7,37.6,45.4,31.8,40.8z"/>
	<polygon class="st8" points="50,49.5 49.4,48.7 49.4,48.6 45.1,42.5 49.4,43.5 49.4,43.5 50,43.6 	"/>
	<path class="st10" d="M50,66.6L49.7,65c-0.1-0.6-0.2-1.3-0.2-1.9v-6c0-0.7,0.1-1.3,0.2-2l0.3-1.4l0.4,1.5c0.2,0.6,0.2,1.3,0.2,2v6
		c0,0.6-0.1,1.3-0.2,1.9L50,66.6z"/>
	
		<linearGradient id="SVGID_5_" gradientUnits="userSpaceOnUse" x1="50.1828" y1="77.7766" x2="50.1828" y2="77.7766" gradientTransform="matrix(1 0 0 -1 0 97)">
		<stop  offset="0" style="stop-color:#784CFB"/>
		<stop  offset="1" style="stop-color:#2AF4FF"/>
	</linearGradient>
	<path class="st11" d="M50.2,19.2L50.2,19.2L50.2,19.2z"/>
	
		<linearGradient id="SVGID_6_" gradientUnits="userSpaceOnUse" x1="50.1828" y1="77.7766" x2="50.1828" y2="77.7766" gradientTransform="matrix(1 0 0 -1 0 97)">
		<stop  offset="0" style="stop-color:#784CFB"/>
		<stop  offset="1" style="stop-color:#2AF4FF"/>
	</linearGradient>
	<path class="st12" d="M50.2,19.2L50.2,19.2L50.2,19.2z"/>
	<path class="st6" d="M52.8,23.2c0,4.8-8.5,7.5-8.5,12.7c-0.1,1.2,0.2,2.5,0.7,3.6c0,0-3.3-3.1-3.3-6.4s3.1-8.3,3.1-8.3
		c0,2.3,0.9,2.9,1.8,3l0,0H47c1,0,1.6-0.8,1.6-1.8s-1.2-2.2-1.2-4.4s2.7-5.5,2.7-5.5C51.8,18,52.8,20.5,52.8,23.2z"/>
	<path class="st6" d="M50.4,41c-2.6,0-4.7-2.1-4.7-4.7c0,0,0-0.1,0-0.1c0-5.7,8-6.2,8-13.9l0,0c0.2,0.3,2.4,3.3,2.4,6.4
		c0,3.9-3.6,4.9-3.6,6.8c0,0.7,0.4,1.3,1.4,1.3c0.1,0,0.2,0,0.3-0.1c2.1-0.9,3.5-2.9,3.6-5.2C57.8,31.5,58.9,41,50.4,41z"/>
	<path class="st13" d="M53.9,36.8c0.1,0,0.2,0,0.3-0.1C53.1,37.1,49,38,49,35.1c0-3.6,6.1-4.3,6.1-7.4c0-1.9-0.5-3.7-1.4-5.4
		c0.2,0.3,2.4,3.3,2.4,6.4c0,3.9-3.6,4.9-3.6,6.8C52.5,36.3,52.9,36.8,53.9,36.8z"/>
	
		<linearGradient id="SVGID_7_" gradientUnits="userSpaceOnUse" x1="54.1203" y1="60.2363" x2="54.1203" y2="60.2746" gradientTransform="matrix(1 0 0 -1 0 97)">
		<stop  offset="0" style="stop-color:#784CFB"/>
		<stop  offset="1" style="stop-color:#2AF4FF"/>
	</linearGradient>
	<path class="st14" d="M54,36.7L54,36.7l0.2,0C54.2,36.7,54.1,36.7,54,36.7z"/>
	<path class="st15" d="M49.4,35.1c0-3.6,6.1-4.3,6.1-7.4c0-1.1-0.2-2.2-0.5-3.2c-0.4-0.8-0.8-1.5-1.3-2.2c0.9,1.7,1.3,3.5,1.4,5.4
		c0,3.1-6.1,3.8-6.1,7.4c0,1.7,1.5,2.1,2.9,2C50.6,37.1,49.4,36.7,49.4,35.1z"/>
	<path class="st13" d="M50.5,25.2c0,2.8-3.5,2.5-3.8,2.5H47c1,0,1.6-0.8,1.6-1.8s-1.2-2.2-1.2-4.4s2.7-5.5,2.7-5.5
		c-0.8,1.4-1.3,3-1.4,4.6C48.6,22.9,50.5,23.1,50.5,25.2z"/>
	<path class="st15" d="M48.6,20.5c0.1-1.6,0.5-3.2,1.4-4.6c-0.4,0.5-0.8,1.1-1.2,1.7c-0.4,0.9-0.5,1.9-0.5,2.9
		c0,2.4,1.9,2.6,1.9,4.7c0,2.1-1.9,2.5-3.1,2.5c1,0,3.4-0.2,3.4-2.5C50.5,23.1,48.6,22.9,48.6,20.5z"/>
	
		<linearGradient id="SVGID_8_" gradientUnits="userSpaceOnUse" x1="46.7821" y1="69.294" x2="46.7821" y2="69.294" gradientTransform="matrix(1 0 0 -1 0 97)">
		<stop  offset="0" style="stop-color:#784CFB"/>
		<stop  offset="1" style="stop-color:#2AF4FF"/>
	</linearGradient>
	<path class="st16" d="M46.8,27.7"/>
	<polygon class="st17" points="48.4,73.8 46,72.1 49,72.1 50,69.1 51,72.1 53.9,72.1 51.5,73.8 52.4,76.7 50,74.9 47.5,76.7 	"/>
	<path class="st17" d="M50,69.6l0.8,2.5l0.1,0.2h2.6l-1.9,1.4l-0.2,0.1l0.1,0.2l0.8,2.4l-2-1.4L50,74.7l-0.2,0.1l-2,1.4l0.8-2.4
		l0.1-0.2l-0.2-0.1l-1.9-1.4h2.6l0.1-0.2L50,69.6 M50,68.6l-1.1,3.3h-3.4l2.7,1.9l-1,3.3l2.7-2l2.7,2l-1-3.3l2.7-1.9H51L50,68.6
		L50,68.6z"/>
	<polygon class="st17" points="61.2,73.8 58.7,72.1 61.7,72.1 62.7,69.1 63.7,72.1 66.6,72.1 64.2,73.8 65.1,76.7 62.7,74.9 
		60.2,76.7 	"/>
	<path class="st17" d="M62.7,69.6l0.8,2.5l0.1,0.2h2.6l-1.9,1.4L64,73.7l0.1,0.2l0.8,2.4l-2-1.4l-0.2-0.1l-0.2,0.1l-2,1.4l0.8-2.4
		l0.1-0.2l-0.2-0.1l-1.9-1.4h2.6l0.1-0.2L62.7,69.6 M62.7,68.6l-1.1,3.3h-3.3l2.7,1.9l-1,3.3l2.7-2l2.7,2l-1-3.3l2.7-1.9h-3.3
		L62.7,68.6z"/>
	<polygon class="st17" points="35.7,73.8 33.3,72.1 36.2,72.1 37.2,69.1 38.2,72.1 41.2,72.1 38.8,73.8 39.7,76.7 37.2,74.9 
		34.8,76.7 	"/>
	<path class="st17" d="M37.2,69.6l0.8,2.5l0.1,0.2h2.6l-1.9,1.4l-0.2,0.1l0.1,0.2l0.8,2.4l-2-1.4l-0.2-0.1l-0.2,0.1l-2,1.4l0.8-2.4
		l0.1-0.2l-0.2-0.1l-1.9-1.4h2.6l0.1-0.2L37.2,69.6 M37.2,68.6l-1.1,3.3h-3.4l2.7,1.9l-1,3.3l2.7-2l2.7,2l-1-3.3l2.7-1.9h-3.3
		L37.2,68.6L37.2,68.6z"/>
</g>
</svg>
