<svg id="Layer_1" data-name="Layer 1" xmlns="http://www.w3.org/2000/svg" xmlns:xlink="http://www.w3.org/1999/xlink" viewBox="0 0 100 100"><defs><linearGradient id="linear-gradient" x1="-24.62" y1="789.17" x2="31.9" y2="789.17" gradientTransform="translate(-172.24 -663.9) rotate(-15.59)" gradientUnits="userSpaceOnUse"><stop offset="0" stop-color="#784cfb"/><stop offset="1" stop-color="#2af4ff"/></linearGradient><linearGradient id="linear-gradient-2" x1="1.32" y1="576.71" x2="57.85" y2="576.71" gradientTransform="translate(-192.34 -429.68) rotate(-21.27)" xlink:href="#linear-gradient"/><linearGradient id="linear-gradient-3" x1="65.56" y1="1570.35" x2="121.71" y2="1570.35" gradientTransform="translate(101.23 -1480.9) rotate(5.58)" xlink:href="#linear-gradient"/><linearGradient id="linear-gradient-4" x1="-14.23" y1="1197.44" x2="42.3" y2="1197.44" gradientTransform="translate(-68.82 -1099.78) rotate(-4.65)" xlink:href="#linear-gradient"/></defs><rect width="100" height="100"/><path d="M10.54,38.53c1,.27,1.38,1.11,1,2.68l-.74,3L5.17,42.78,5.82,40c.37-1.39,1.11-2,2-1.76a1.51,1.51,0,0,1,1.11,1A1.43,1.43,0,0,1,10.54,38.53ZM6.46,41.67l1.3.28L8,40.65c.18-.64,0-1-.47-1.11s-.74.19-.92.84Zm3.61-1.85c-.46-.09-.83.19-.92.83l-.37,1.58,1.39.37L10.44,41C10.63,40.38,10.54,40,10.07,39.82Z" style="fill:#fff"/><path d="M13.4,32.79l1,.46-1.76,4.17L7.3,35.1,9.05,31l1,.46-1.2,2.78,1.2.46,1-2.5.93.37-1,2.5,1.2.56Z" style="fill:#fff"/><path d="M14.42,31.86l-.65-.92a3.51,3.51,0,0,0,1.58-1.3c.46-.64.37-1.11.09-1.29-.93-.56-2,2.68-3.89,1.57-.83-.55-1.11-1.66-.27-3.05a3.69,3.69,0,0,1,1.48-1.48l.64.92a3.6,3.6,0,0,0-1.2,1.11c-.46.65-.37,1.11,0,1.3.93.55,2-2.69,3.89-1.58.83.56,1.11,1.67.27,3.06A4,4,0,0,1,14.42,31.86Z" style="fill:#fff"/><path d="M15.53,22.89l-1.2,1.39-.83-.74,3.24-3.89.83.74-1.21,1.39,3.61,3-.83,1Z" style="fill:#fff"/><path d="M28.39,10.67l1.67,5.93-1.2.83-3.24-2.59,1.11,4-1.2.83-4.91-3.79,1.2-.74,3.43,2.68-1.2-4.16,1-.74,3.43,2.68-1.21-4.17Z" style="fill:#fff"/><path d="M36.63,12.34l.37,1-4.16,1.76L30.61,9.75l4.08-1.67.37,1-2.87,1.2.46,1.21,2.5-1,.37.92-2.5,1,.56,1.21Z" style="fill:#fff"/><path d="M43.48,10.12c.18,1-.47,1.76-1.95,2l-2.87.65L37.37,7.16l2.78-.65c1.38-.37,2.31.09,2.49,1a1.44,1.44,0,0,1-.46,1.39A1.47,1.47,0,0,1,43.48,10.12ZM38.85,7.81l.28,1.29,1.29-.28c.65-.18.93-.46.84-.92s-.47-.56-1.11-.46Zm3.33,2.49c-.09-.46-.55-.64-1.2-.46l-1.57.37.27,1.39,1.58-.37C41.9,11,42.27,10.77,42.18,10.3Z" style="fill:#fff"/><path d="M45,11l.37-1a2.91,2.91,0,0,0,1.94.47c.83-.1,1.11-.37,1.11-.74-.09-1.11-3.42-.1-3.52-2.32-.09-1,.65-1.85,2.32-1.94a5.13,5.13,0,0,1,2.13.37l-.37,1a3.62,3.62,0,0,0-1.67-.37c-.74.09-1.11.46-1,.83.1,1.11,3.43.09,3.52,2.22.09,1-.65,1.85-2.31,1.94A4.13,4.13,0,0,1,45,11Z" style="fill:#fff"/><path d="M51.71,5.49l1.39.1-.28,5.82-1.39-.09Z" style="fill:#fff"/><path d="M56.8,7.07,55,6.79l.19-1.11,5,.83L60,7.62,58.1,7.34,57.36,12l-1.3-.19Z" style="fill:#fff"/><path d="M65.13,13l-.37,1L60.5,12.62l1.85-5.55,4.17,1.38-.37,1-2.87-.92-.37,1.2,2.59.83-.37,1-2.59-.83-.46,1.29Z" style="fill:#fff"/><path d="M72.25,11l2.22,1.39c1.58,1,2.13,2.69,1.11,4.17a2.9,2.9,0,0,1-4.25.74L69.11,16Zm-.37,5.37A1.73,1.73,0,0,0,74.47,16a1.79,1.79,0,0,0-.64-2.59l-1-.65-1.94,3Z" style="fill:#fff"/><path d="M79.29,22.43l-.74.83L75.21,20.2l3.89-4.34,3.24,3-.65.83-2.22-2-.83.93,2,1.85-.83.74-2-1.85-.93,1Z" style="fill:#fff"/><path d="M79.84,23.81,81,23.54a3,3,0,0,0,.74,1.85c.46.64.93.74,1.2.46.84-.65-1.85-2.87-.18-4.26.74-.64,1.94-.55,3,.74a3.35,3.35,0,0,1,.83,2l-1,.27A4.13,4.13,0,0,0,84.84,23c-.46-.65-.93-.65-1.2-.46-.84.65,1.85,2.87.18,4.16-.74.65-1.94.56-3-.74A4.45,4.45,0,0,1,79.84,23.81Z" style="fill:#fff"/><path d="M88.26,26.13,89,27.24l-5,3.14-.75-1.11Z" style="fill:#fff"/><path d="M89.46,34.45,90,35.57l-2.13,1a4,4,0,0,1-1.66-1.85,3,3,0,1,1,5.46-2.5,3.07,3.07,0,0,1,.09,2.69l-1.11-.47a2.62,2.62,0,0,0,0-1.66,1.89,1.89,0,0,0-3.43,1.57,2.1,2.1,0,0,0,.65.84Z" style="fill:#fff"/><path d="M94.83,42.23l-5.64,1.48-.28-1.11,2.68-3.7-3.42.92-.37-1.29,5.64-1.48.28,1.11L91,41.86l3.42-.93Z" style="fill:#fff"/><path d="M17.75,70.63l1.48,2.13a2.87,2.87,0,0,1-.55,4.17A2.78,2.78,0,0,1,14.61,76l-1.48-2.13Zm-2.31,4.63a1.74,1.74,0,0,0,2.5.56,1.64,1.64,0,0,0,.37-2.5l-.65-1-2.87,1.94Z" style="fill:#fff"/><path d="M21.36,82.29l-.74.74-3.05-3.14L21.64,76l3,3-.74.75-2-2.13-.92.83,1.76,1.85-.74.74-1.76-1.85-.93.93Z" style="fill:#fff"/><path d="M22,83.59l.92-.46a3.13,3.13,0,0,0,1.12,1.57c.64.46,1,.46,1.2.18.65-.83-2.41-2.31-1.11-3.88.55-.74,1.66-.93,3,.09a3.79,3.79,0,0,1,1.2,1.57l-.92.56a2.8,2.8,0,0,0-.93-1.3c-.65-.46-1-.46-1.2-.18-.65.83,2.4,2.31,1.11,3.88-.56.74-1.67.93-3-.09A4.38,4.38,0,0,1,22,83.59Z" style="fill:#fff"/><path d="M29.78,83l1.11.65-3,4.81-1.2-.74Z" style="fill:#fff"/><path d="M34.41,88.59l1.11.46-.93,2a4.34,4.34,0,0,1-2.4-.27,2.94,2.94,0,0,1-1.58-4,2.85,2.85,0,0,1,4.08-1.3,3.36,3.36,0,0,1,1.75,1.85l-1.2.37a2.16,2.16,0,0,0-1-1.2,1.78,1.78,0,1,0-1.48,3.24,1.89,1.89,0,0,0,1,.18Z" style="fill:#fff"/><path d="M42.74,88.4l-1.48,5.46-1-.28-1.85-4.07-.93,3.33-1.2-.37L37.74,87l1,.28,1.76,4.07L41.44,88Z" style="fill:#fff"/><path d="M69.48,89.23a.74.74,0,0,1,1.29-.74.75.75,0,1,1-1.29.74Z" style="fill:#fff"/><path d="M70.59,86.27a3,3,0,0,1,.83-4.16,2.76,2.76,0,0,1,2.5-.46l-.28,1.11a1.6,1.6,0,0,0-1.57.27,1.79,1.79,0,0,0,2,3,1.5,1.5,0,0,0,.74-1.38l1.11.18a3.1,3.1,0,0,1-1.29,2.13A2.86,2.86,0,0,1,70.59,86.27Z" style="fill:#fff"/><path d="M75.77,82.66A2.89,2.89,0,0,1,76,78.41a3,3,0,0,1,4.26-.1,3.11,3.11,0,0,1-4.44,4.35Zm3.42-3.42a1.75,1.75,0,0,0-2.49-.09,1.67,1.67,0,0,0,0,2.5,1.75,1.75,0,0,0,2.49.09A1.68,1.68,0,0,0,79.19,79.24Z" style="fill:#fff"/><path d="M86.41,74.61l-2.77-1.94,1.29,3-.37.46-3.15-.18,2.69,1.85-.74,1-4.63-3.24.65-.93,4.07.28-1.67-3.7.65-.83,4.63,3.24Z" style="fill:#fff"/><path d="M59.21,88.86a2.42,2.42,0,0,0-.84.1,3.13,3.13,0,0,0-.55.27.41.41,0,0,0-.09.47c0,.18.18.27.27.37a.43.43,0,0,0,.47.09h.74c.27,0,.64.09.92.09a1.84,1.84,0,0,1,.74.37,1.24,1.24,0,0,1,.47.83,1.1,1.1,0,0,1-.1.93,4.41,4.41,0,0,1-.55.83,2.88,2.88,0,0,1-1,.56,3.29,3.29,0,0,1-1.3.09,4.06,4.06,0,0,1-1.29-.37l.18-1a5,5,0,0,0,1.11.28,3.85,3.85,0,0,0,1,0,2.39,2.39,0,0,0,.65-.37.55.55,0,0,0-.19-.83s0-.1-.09-.1-.28-.18-.46-.09h-.74c-.28,0-.65-.09-.93-.09a1.87,1.87,0,0,1-.74-.28c-.18-.18-.46-.46-.46-.74a1.3,1.3,0,0,1,0-.83,4.18,4.18,0,0,1,.56-.83,1.67,1.67,0,0,1,1-.47c.37-.09.74-.09,1-.18a2.6,2.6,0,0,1,1.11.18l-.09,1C59.85,88.86,59.58,88.86,59.21,88.86Z" style="fill:url(#linear-gradient)"/><path d="M61.61,87.29l1-.37.93,2.22,2.59-1-.93-2.22,1-.37,2,5.28-1,.37-.84-2.13-2.59,1,.84,2.12-1,.37Z" style="fill:url(#linear-gradient-2)"/><path d="M47.18,94.6l-.83-1.76-1.49-.18-.18,1.66-1-.09.56-5.64,2.31.18a2.22,2.22,0,0,1,1.57.65,1.71,1.71,0,0,1,.47,1.48A2.7,2.7,0,0,1,48.2,92a1.9,1.9,0,0,1-.93.55l1.11,2ZM45,91.73l1.29.09a1.72,1.72,0,0,0,.93-.18.75.75,0,0,0,.37-.83c0-.28,0-.65-.19-.74a1,1,0,0,0-.83-.28l-1.3-.09Z" style="fill:url(#linear-gradient-3)"/><path d="M51.9,93.3a2,2,0,0,0,1,.28,1.15,1.15,0,0,0,.93-.46A2.16,2.16,0,0,0,54.12,92l-.19-3.24,1-.09L55.23,92A2.85,2.85,0,0,1,55,93.3a2.5,2.5,0,0,1-.74.93A2.1,2.1,0,0,1,53,94.6a3.5,3.5,0,0,1-1.39-.19,1.48,1.48,0,0,1-.93-.74,2.16,2.16,0,0,1-.37-1.29l-.27-3.33,1-.09.28,3.33A2.11,2.11,0,0,0,51.9,93.3Z" style="fill:url(#linear-gradient-4)"/><circle cx="8.68" cy="52.5" r="1.67" style="fill:#ccc"/><circle cx="91.5" cy="52.5" r="1.67" style="fill:#ccc"/><circle cx="10.35" cy="62.77" r="1.67" style="fill:#ccc"/><circle cx="89.74" cy="62.77" r="1.67" style="fill:#ccc"/><path d="M50.23,53.24h0l-.46-.37h-.09l-12.13-8.7a.09.09,0,0,1-.09-.09L37.28,44l-.1-.1L37,43.8l-3.42-2.5,6.84,1a2.17,2.17,0,0,1,.74.18.64.64,0,0,1,.37.1c.19.09.47.18.65.28a1.86,1.86,0,0,1,.46.27c.1.1.19.1.37.19s.19.09.28.18.28.19.37.28a3.53,3.53,0,0,1,.74.93l5.46,7.77v.09Z" style="fill:#774efb"/><path d="M50.23,53.24l.46-.74v-.09l5.46-7.78A6,6,0,0,1,60,42.23L62,42h0l5.09-.74L50.79,52.87Z" style="fill:#774efb"/><path d="M50.23,65.18l-.46-.75-.09-.09-16.29-23,3.42,2.5.65.37,12.12,8.7h0l.37.28h.1l.55-.37L67,41.21,50.79,64.34v.09Z" style="fill:#2af4ff"/><polygon points="50.23 49.35 49.68 48.61 49.68 48.52 45.7 42.88 49.68 43.8 49.68 43.8 50.23 43.89 50.69 43.8 50.79 43.71 54.58 42.78 50.79 48.61 50.69 48.7 50.23 49.35" style="fill:#2af4ff"/><polygon points="50.23 53.24 67.07 41.3 62.08 42.04 50.23 53.24" style="isolation:isolate;opacity:0.20000000298023224"/><path d="M50.23,65.18l-.46-.75-.09-.09-16.29-23,6.85,1a2.23,2.23,0,0,1,.74.18.67.67,0,0,1,.37.1c.18.09.46.18.65.28a2.07,2.07,0,0,1,.46.27c.09.1.18.1.37.19s.18.09.28.18.27.19.37.28a4,4,0,0,1,.74.93l5.46,7.77v.09l.46.74Z" style="isolation:isolate;opacity:0.20000000298023224"/><path d="M33.39,41.3s14.53,9.81,16.75,11.94C44.4,49.54,38.76,45.56,33.39,41.3Z" style="fill:#50e2b6"/><polygon points="50.23 49.35 49.68 48.61 49.68 48.52 45.7 42.88 49.68 43.8 49.68 43.8 50.23 43.89 50.23 49.35" style="isolation:isolate;opacity:0.20000000298023224"/><path d="M50.23,65.18,50,63.69a11.54,11.54,0,0,1-.18-1.75V56.38A13,13,0,0,1,50,54.53l.28-1.29.37,1.39a5.82,5.82,0,0,1,.19,1.85V62a11.83,11.83,0,0,1-.19,1.76Z" style="fill:#24eaea"/><path d="M52.82,25C52.82,29.46,45,32,45,36.77a6.87,6.87,0,0,0,.64,3.33s-3.05-2.87-3.05-5.92,2.87-7.68,2.87-7.68c0,2.13.83,2.68,1.67,2.77h.37a1.51,1.51,0,0,0,1.48-1.66c0-.93-1.11-2-1.11-4.07s2.49-5.09,2.49-5.09A9.77,9.77,0,0,1,52.82,25Z" style="fill:#774efb"/><path d="M50.6,41.49a4.35,4.35,0,0,1-4.35-4.35v-.09c0-5.28,7.4-5.74,7.4-12.87h0c.19.28,2.23,3.06,2.23,5.93,0,3.6-3.34,4.53-3.34,6.29a1.14,1.14,0,0,0,1.3,1.2.35.35,0,0,0,.28-.09,5.48,5.48,0,0,0,3.33-4.81S58.47,41.49,50.6,41.49Z" style="fill:#774efb"/><path d="M53.84,37.6a.35.35,0,0,0,.28-.09c-1,.37-4.81,1.2-4.81-1.48,0-3.33,5.64-4,5.64-6.85a10.53,10.53,0,0,0-1.3-5c.19.28,2.23,3.06,2.23,5.93,0,3.6-3.34,4.53-3.34,6.29C52.54,37.14,52.91,37.6,53.84,37.6Z" style="fill:#519ffd"/><path d="M49.68,36c0-3.33,5.64-4,5.64-6.85a10.29,10.29,0,0,0-.46-3,14.24,14.24,0,0,0-1.21-2,11.68,11.68,0,0,1,1.3,5c0,2.87-5.64,3.52-5.64,6.85,0,1.57,1.38,1.94,2.68,1.85C50.79,37.88,49.68,37.51,49.68,36Z" style="fill:#7e60fc"/><path d="M50.69,26.87c0,2.59-3.23,2.31-3.51,2.31h.28a1.52,1.52,0,0,0,1.48-1.67c0-.92-1.11-2-1.11-4.07s2.49-5.09,2.49-5.09A9.92,9.92,0,0,0,49,22.61C48.94,24.74,50.69,24.92,50.69,26.87Z" style="fill:#519ffd"/><path d="M48.94,22.52a8.83,8.83,0,0,1,1.29-4.26c-.37.46-.74,1-1.11,1.57a6.61,6.61,0,0,0-.46,2.69c0,2.22,1.76,2.4,1.76,4.35s-1.76,2.31-2.87,2.31c.92,0,3.14-.18,3.14-2.31C50.69,24.92,48.94,24.74,48.94,22.52Z" style="fill:#7e60fc"/><polygon points="48.75 71.84 46.53 70.26 49.31 70.26 50.23 67.49 51.16 70.26 53.84 70.26 51.62 71.84 52.45 74.52 50.23 72.86 47.92 74.52 48.75 71.84" style="fill:#29abe2"/><path d="M50.23,68,51,70.26l.09.19h2.41l-1.76,1.29-.18.1.09.18.74,2.22L50.51,73l-.28-.28-.18.09-1.85,1.3.74-2.22.09-.19-.19-.09-1.75-1.3h2.4l.09-.18L50.23,68m0-.92-1,3H46.07l2.5,1.76-.93,3L50.14,73l2.5,1.85-.93-3,2.5-1.76H51.16l-.93-3Z" style="fill:#29abe2"/><polygon points="60.59 71.84 58.28 70.26 61.06 70.26 61.98 67.49 62.91 70.26 65.59 70.26 63.37 71.84 64.2 74.52 61.98 72.86 59.67 74.52 60.59 71.84" style="fill:#29abe2"/><path d="M62,68l.74,2.31.1.19h2.4l-1.76,1.29h-.27l.09.19L64,74.15l-1.85-1.29-.19-.1-.18.1L60,74.15l.74-2.22.09-.19-.19-.09-1.75-1.29h2.4l.1-.19L62,68M62,67l-1,3H57.91l2.5,1.76-.93,3L62,73l2.5,1.85-.92-3,2.49-1.76H63Z" style="fill:#29abe2"/><polygon points="37 71.84 34.78 70.26 37.46 70.26 38.39 67.49 39.31 70.26 42.09 70.26 39.87 71.84 40.7 74.52 38.39 72.86 36.17 74.52 37 71.84" style="fill:#29abe2"/><path d="M38.39,68l.74,2.31.09.19h2.41l-1.76,1.29-.19.1.1.18.74,2.22L38.66,73l-.18-.09-.19.09-1.85,1.29L37.18,72l.1-.18-.19-.1-1.76-1.29h2.41l.09-.19L38.39,68m0-.92-1,3H34.22l2.5,1.76-.92,3L38.29,73l2.5,1.85-.92-3,2.5-1.76H39.31l-.92-3Z" style="fill:#29abe2"/></svg>