<?xml version="1.0" encoding="utf-8"?>
<!-- Generator: Adobe Illustrator 25.2.3, SVG Export Plug-In . SVG Version: 6.00 Build 0)  -->
<svg version="1.1" id="Layer_1" xmlns="http://www.w3.org/2000/svg" xmlns:xlink="http://www.w3.org/1999/xlink" x="0px" y="0px"
	 viewBox="0 0 322.73 322.73" enable-background="new 0 0 322.73 322.73" xml:space="preserve">
<g>
	<polygon points="317.82,260.26 54.15,260.26 54.15,11.5 58.97,11.5 58.97,255.44 317.82,255.44 	"/>
	<rect x="257.58" y="192.96" fill="#231F20" width="4.82" height="118.27"/>
	<rect x="4.9" y="65.09" width="121.44" height="4.82"/>
	<g>
		<g>
			<path stroke="#000000" stroke-width="0.25" stroke-miterlimit="10" d="M68.72,130.02c-1.74-1.01-3.06-2.35-3.98-4.01v5.02h-1.47
				V96.49h1.47v19.07c0.83-1.75,2.12-3.15,3.87-4.19c1.75-1.04,3.59-1.57,5.53-1.57c2,0,3.83,0.49,5.5,1.47
				c1.67,0.98,3,2.3,3.98,3.96c0.98,1.66,1.47,3.47,1.47,5.43s-0.49,3.78-1.47,5.43c-0.98,1.66-2.31,2.98-3.98,3.96
				c-1.67,0.98-3.51,1.47-5.5,1.47C72.26,131.54,70.46,131.03,68.72,130.02z M78.93,128.93c1.44-0.88,2.59-2.04,3.43-3.5
				c0.84-1.46,1.27-3.05,1.27-4.77c0-1.69-0.43-3.27-1.29-4.74c-0.86-1.47-2.01-2.65-3.45-3.52c-1.44-0.88-3.01-1.31-4.7-1.31
				c-1.69,0-3.26,0.45-4.72,1.34c-1.46,0.89-2.63,2.07-3.5,3.55c-0.88,1.47-1.31,3.06-1.31,4.74c0,1.69,0.44,3.26,1.31,4.72
				c0.88,1.46,2.05,2.63,3.52,3.5c1.47,0.88,3.05,1.31,4.74,1.31C75.92,130.25,77.48,129.81,78.93,128.93z"/>
			<path stroke="#000000" stroke-width="0.25" stroke-miterlimit="10" d="M91.96,136.51v-2.35c1.01,1.6,2.16,2.79,3.45,3.57
				c1.29,0.78,2.79,1.17,4.51,1.17c1.75,0,3.25-0.37,4.49-1.11c1.24-0.74,2.19-1.74,2.83-3.02c0.65-1.27,0.97-2.69,0.97-4.26v-3.5
				c-0.74,1.44-1.85,2.56-3.34,3.34c-1.49,0.78-3.11,1.17-4.86,1.17c-1.75,0-3.3-0.38-4.65-1.15c-1.35-0.77-2.4-1.84-3.15-3.22
				c-0.75-1.38-1.13-2.98-1.13-4.79V110.3h1.47v12.07c0,1.66,0.35,3.08,1.04,4.26c0.69,1.18,1.6,2.08,2.74,2.69
				c1.14,0.61,2.38,0.92,3.73,0.92c1.47,0,2.84-0.36,4.1-1.08c1.26-0.72,2.25-1.69,2.97-2.9c0.72-1.21,1.08-2.51,1.08-3.89V110.3
				h1.47v20.08c0,1.84-0.38,3.51-1.13,5c-0.75,1.49-1.85,2.66-3.29,3.52c-1.44,0.86-3.16,1.29-5.16,1.29
				C96.67,140.19,93.96,138.97,91.96,136.51z"/>
		</g>
		<g>
			<path stroke="#000000" stroke-width="0.25" stroke-miterlimit="10" d="M60.43,187.11c1.84,0,3.39-0.62,4.65-1.87
				c1.26-1.24,1.89-2.79,1.89-4.63v-22.06h1.47v22.06c0,1.47-0.35,2.81-1.06,4.01c-0.71,1.2-1.67,2.13-2.9,2.79
				c-1.23,0.66-2.58,0.99-4.05,0.99V187.11z M66.63,153.35c-0.32-0.31-0.48-0.69-0.48-1.15c0-0.43,0.16-0.8,0.48-1.11
				c0.32-0.31,0.7-0.46,1.13-0.46c0.43,0,0.81,0.15,1.13,0.46c0.32,0.31,0.48,0.68,0.48,1.11c0,0.46-0.16,0.85-0.48,1.15
				c-0.32,0.31-0.7,0.46-1.13,0.46C67.33,153.81,66.95,153.66,66.63,153.35z"/>
			<path stroke="#000000" stroke-width="0.25" stroke-miterlimit="10" d="M81.53,178.31c-1.69-0.98-3.02-2.31-4.01-3.98
				c-0.98-1.67-1.47-3.48-1.47-5.41c0-1.93,0.49-3.74,1.47-5.41c0.98-1.67,2.32-3,4.01-3.98c1.69-0.98,3.51-1.47,5.48-1.47
				c1.99,0,3.88,0.53,5.66,1.59c1.78,1.06,3.02,2.43,3.73,4.12v-5.2h1.47v20.73H96.4v-5.16c-0.83,1.72-2.11,3.09-3.85,4.12
				c-1.74,1.03-3.59,1.54-5.55,1.54C85.04,179.79,83.21,179.29,81.53,178.31z M91.8,177.18c1.44-0.88,2.59-2.04,3.43-3.5
				c0.84-1.46,1.27-3.05,1.27-4.77c0-1.69-0.43-3.27-1.29-4.74c-0.86-1.47-2.01-2.65-3.45-3.52c-1.44-0.88-3.01-1.31-4.7-1.31
				c-1.69,0-3.26,0.45-4.72,1.34c-1.46,0.89-2.63,2.07-3.5,3.55c-0.88,1.47-1.31,3.06-1.31,4.74c0,1.69,0.44,3.26,1.31,4.72
				c0.88,1.46,2.05,2.63,3.52,3.5c1.47,0.88,3.06,1.31,4.74,1.31C88.79,178.5,90.35,178.06,91.8,177.18z"/>
			<path stroke="#000000" stroke-width="0.25" stroke-miterlimit="10" d="M105.94,184.76v-2.35c1.01,1.6,2.16,2.79,3.45,3.57
				c1.29,0.78,2.79,1.17,4.51,1.17c1.75,0,3.25-0.37,4.49-1.11c1.24-0.74,2.19-1.74,2.83-3.02c0.65-1.27,0.97-2.69,0.97-4.26v-3.5
				c-0.74,1.44-1.85,2.56-3.34,3.34c-1.49,0.78-3.11,1.17-4.86,1.17c-1.75,0-3.3-0.38-4.65-1.15c-1.35-0.77-2.4-1.84-3.15-3.22
				c-0.75-1.38-1.13-2.98-1.13-4.79v-12.07h1.47v12.07c0,1.66,0.35,3.08,1.04,4.26c0.69,1.18,1.6,2.08,2.74,2.69
				c1.14,0.61,2.38,0.92,3.73,0.92c1.47,0,2.84-0.36,4.1-1.08c1.26-0.72,2.25-1.69,2.97-2.9c0.72-1.21,1.08-2.51,1.08-3.89v-12.07
				h1.47v20.08c0,1.84-0.38,3.51-1.13,5c-0.75,1.49-1.85,2.66-3.29,3.52c-1.44,0.86-3.16,1.29-5.16,1.29
				C110.65,188.44,107.93,187.22,105.94,184.76z"/>
			<path stroke="#000000" stroke-width="0.25" stroke-miterlimit="10" d="M135.11,178.45c-1.67-0.95-3-2.26-3.98-3.91
				s-1.47-3.53-1.47-5.62c0-1.93,0.49-3.72,1.47-5.37c0.98-1.64,2.33-2.95,4.03-3.94c1.7-0.98,3.58-1.47,5.64-1.47
				c1.72,0,3.19,0.28,4.42,0.83c1.23,0.55,2.42,1.41,3.59,2.58v2.49c-1.01-1.5-2.14-2.65-3.39-3.43c-1.24-0.78-2.79-1.17-4.63-1.17
				c-1.69,0-3.28,0.44-4.77,1.31c-1.49,0.87-2.68,2.05-3.57,3.52c-0.89,1.47-1.34,3.06-1.34,4.74c0,1.84,0.43,3.49,1.29,4.95
				c0.86,1.46,2.02,2.6,3.48,3.41c1.46,0.81,3.03,1.22,4.72,1.22c3.44,0,6.17-1.55,8.2-4.65v2.49c-1.11,1.17-2.33,2.03-3.66,2.6
				c-1.34,0.57-2.85,0.85-4.54,0.85C138.62,179.88,136.78,179.4,135.11,178.45z"/>
			<path stroke="#000000" stroke-width="0.25" stroke-miterlimit="10" d="M155.42,153.35c-0.32-0.31-0.48-0.69-0.48-1.15
				c0-0.43,0.16-0.8,0.48-1.11c0.32-0.31,0.7-0.46,1.13-0.46c0.43,0,0.81,0.15,1.13,0.46c0.32,0.31,0.48,0.68,0.48,1.11
				c0,0.46-0.16,0.85-0.48,1.15c-0.32,0.31-0.7,0.46-1.13,0.46C156.12,153.81,155.74,153.66,155.42,153.35z M155.81,158.55h1.47
				v20.73h-1.47V158.55z"/>
			<path stroke="#000000" stroke-width="0.25" stroke-miterlimit="10" d="M180.64,177.3c1.44-0.83,2.64-1.96,3.59-3.41v2.35
				c-1.14,1.26-2.38,2.17-3.73,2.74c-1.35,0.57-2.89,0.85-4.61,0.85c-1.9,0-3.69-0.51-5.37-1.52c-1.67-1.01-3.01-2.36-4.01-4.05
				c-1-1.69-1.5-3.48-1.5-5.39c0-2.06,0.49-3.91,1.47-5.55c0.98-1.64,2.33-2.92,4.03-3.85c1.7-0.92,3.6-1.38,5.69-1.38
				c3.19,0,5.91,1.26,8.15,3.78l-14.46,14.28c1.01,0.83,2,1.44,2.95,1.82c0.95,0.38,2.03,0.58,3.22,0.58
				C177.67,178.54,179.19,178.13,180.64,177.3z M169.03,175.27l13.49-13.4c-1.01-0.89-2-1.53-2.95-1.91
				c-0.95-0.38-2.09-0.58-3.41-0.58c-1.87,0-3.54,0.41-5,1.22c-1.46,0.81-2.6,1.93-3.43,3.34c-0.83,1.41-1.24,3.01-1.24,4.79
				C166.5,171.28,167.34,173.46,169.03,175.27z"/>
		</g>
		<g>
			<path stroke="#000000" stroke-width="0.25" stroke-miterlimit="10" d="M63.27,206.81h1.47v3.13c1.41-2.42,3.69-3.64,6.82-3.64
				c1.5,0,2.81,0.42,3.91,1.27c1.11,0.84,1.87,2.11,2.3,3.8c0.4-1.5,1.28-2.72,2.65-3.66c1.37-0.94,2.91-1.4,4.63-1.4
				c2.24,0,3.98,0.65,5.21,1.96c1.23,1.31,1.84,3.15,1.84,5.55v13.72h-1.47v-13.72c0-1.93-0.5-3.45-1.5-4.56
				c-1-1.11-2.31-1.66-3.94-1.66c-1.23,0-2.37,0.3-3.41,0.9c-1.04,0.6-1.87,1.4-2.49,2.42c-0.61,1.01-0.92,2.13-0.92,3.36v13.26
				H76.9v-12.9c0-2.21-0.52-3.94-1.57-5.18s-2.4-1.87-4.05-1.87c-1.11,0-2.16,0.28-3.15,0.83s-1.81,1.3-2.44,2.23
				c-0.63,0.94-0.94,1.96-0.94,3.06v13.82h-1.47V206.81z"/>
			<path stroke="#000000" stroke-width="0.25" stroke-miterlimit="10" d="M103.93,226.73c-1.69-1.03-3.01-2.4-3.96-4.1
				c-0.95-1.7-1.43-3.55-1.43-5.55c0-1.96,0.48-3.79,1.45-5.48c0.97-1.69,2.29-3.03,3.96-4.03c1.67-1,3.54-1.5,5.6-1.5
				c2.03,0,3.88,0.5,5.55,1.5c1.67,1,2.99,2.34,3.94,4.03c0.95,1.69,1.43,3.52,1.43,5.48c0,2.06-0.46,3.94-1.38,5.64
				c-0.92,1.7-2.2,3.06-3.85,4.05c-1.64,1-3.52,1.5-5.64,1.5C107.51,228.27,105.62,227.75,103.93,226.73z M114.39,225.64
				c1.44-0.89,2.57-2.08,3.39-3.57c0.81-1.49,1.22-3.12,1.22-4.9c0-1.75-0.41-3.38-1.24-4.88c-0.83-1.5-1.96-2.7-3.41-3.59
				c-1.44-0.89-3.04-1.34-4.79-1.34c-1.75,0-3.35,0.45-4.81,1.36c-1.46,0.91-2.61,2.11-3.45,3.62c-0.84,1.5-1.27,3.13-1.27,4.88
				s0.42,3.37,1.27,4.86c0.84,1.49,2,2.68,3.45,3.57c1.46,0.89,3.08,1.34,4.86,1.34C111.35,226.98,112.95,226.53,114.39,225.64z"/>
			<path stroke="#000000" stroke-width="0.25" stroke-miterlimit="10" d="M128.69,225.74c-1.49-1.38-2.23-3.29-2.23-5.71v-21.55
				h1.47v8.34h6.36v1.29h-6.36v11.93c0,2.03,0.61,3.62,1.82,4.77c1.21,1.15,2.74,1.73,4.58,1.73v1.29
				C132.06,227.81,130.18,227.12,128.69,225.74z"/>
			<path stroke="#000000" stroke-width="0.25" stroke-miterlimit="10" d="M144.32,226.56c-1.69-0.98-3.02-2.31-4.01-3.98
				c-0.98-1.67-1.47-3.48-1.47-5.41c0-1.93,0.49-3.74,1.47-5.41c0.98-1.67,2.32-3,4.01-3.98c1.69-0.98,3.51-1.47,5.48-1.47
				c1.99,0,3.88,0.53,5.66,1.59c1.78,1.06,3.02,2.43,3.73,4.12v-5.2h1.47v20.72h-1.47v-5.16c-0.83,1.72-2.11,3.09-3.85,4.12
				c-1.74,1.03-3.59,1.54-5.55,1.54C147.84,228.04,146.01,227.55,144.32,226.56z M154.6,225.44c1.44-0.88,2.59-2.04,3.43-3.5
				c0.84-1.46,1.27-3.05,1.27-4.77c0-1.69-0.43-3.27-1.29-4.74c-0.86-1.47-2.01-2.65-3.45-3.52c-1.44-0.88-3.01-1.31-4.7-1.31
				c-1.69,0-3.26,0.45-4.72,1.34c-1.46,0.89-2.63,2.07-3.5,3.55c-0.88,1.47-1.31,3.06-1.31,4.74s0.44,3.26,1.31,4.72
				c0.88,1.46,2.05,2.63,3.52,3.5c1.47,0.87,3.06,1.31,4.74,1.31S153.15,226.31,154.6,225.44z"/>
			<path stroke="#000000" stroke-width="0.25" stroke-miterlimit="10" d="M167.47,227.49c-0.32-0.31-0.48-0.69-0.48-1.15
				c0-0.43,0.16-0.8,0.48-1.11c0.32-0.31,0.7-0.46,1.13-0.46c0.43,0,0.81,0.15,1.13,0.46c0.32,0.31,0.48,0.68,0.48,1.11
				c0,0.46-0.16,0.85-0.48,1.15c-0.32,0.31-0.7,0.46-1.13,0.46C168.17,227.95,167.79,227.79,167.47,227.49z"/>
			<path stroke="#000000" stroke-width="0.25" stroke-miterlimit="10" d="M180.82,226.7c-1.67-0.95-3-2.26-3.98-3.91
				c-0.98-1.66-1.47-3.53-1.47-5.62c0-1.93,0.49-3.72,1.47-5.37s2.33-2.96,4.03-3.94c1.7-0.98,3.59-1.47,5.64-1.47
				c1.72,0,3.19,0.28,4.42,0.83c1.23,0.55,2.42,1.41,3.59,2.58v2.49c-1.01-1.5-2.14-2.65-3.39-3.43c-1.24-0.78-2.79-1.18-4.63-1.18
				c-1.69,0-3.28,0.44-4.77,1.31c-1.49,0.88-2.68,2.05-3.57,3.52c-0.89,1.47-1.34,3.06-1.34,4.74c0,1.84,0.43,3.49,1.29,4.95
				c0.86,1.46,2.02,2.59,3.48,3.41c1.46,0.81,3.03,1.22,4.72,1.22c3.44,0,6.17-1.55,8.2-4.65v2.49c-1.11,1.17-2.33,2.03-3.66,2.6
				c-1.34,0.57-2.85,0.85-4.54,0.85C184.33,228.13,182.5,227.65,180.82,226.7z"/>
			<path stroke="#000000" stroke-width="0.25" stroke-miterlimit="10" d="M205.12,226.73c-1.69-1.03-3.01-2.4-3.96-4.1
				c-0.95-1.7-1.43-3.55-1.43-5.55c0-1.96,0.48-3.79,1.45-5.48c0.97-1.69,2.29-3.03,3.96-4.03c1.67-1,3.54-1.5,5.6-1.5
				c2.03,0,3.88,0.5,5.55,1.5c1.67,1,2.99,2.34,3.94,4.03c0.95,1.69,1.43,3.52,1.43,5.48c0,2.06-0.46,3.94-1.38,5.64
				c-0.92,1.7-2.2,3.06-3.85,4.05c-1.64,1-3.52,1.5-5.64,1.5C208.69,228.27,206.81,227.75,205.12,226.73z M215.57,225.64
				c1.44-0.89,2.57-2.08,3.39-3.57c0.81-1.49,1.22-3.12,1.22-4.9c0-1.75-0.41-3.38-1.24-4.88c-0.83-1.5-1.96-2.7-3.41-3.59
				c-1.44-0.89-3.04-1.34-4.79-1.34s-3.35,0.45-4.81,1.36c-1.46,0.91-2.61,2.11-3.45,3.62c-0.84,1.5-1.27,3.13-1.27,4.88
				s0.42,3.37,1.27,4.86c0.84,1.49,2,2.68,3.45,3.57c1.46,0.89,3.08,1.34,4.86,1.34C212.53,226.98,214.13,226.53,215.57,225.64z"/>
			<path stroke="#000000" stroke-width="0.25" stroke-miterlimit="10" d="M227.64,206.81h1.47v3.13c1.41-2.42,3.69-3.64,6.82-3.64
				c1.5,0,2.81,0.42,3.91,1.27c1.11,0.84,1.87,2.11,2.3,3.8c0.4-1.5,1.28-2.72,2.65-3.66c1.37-0.94,2.91-1.4,4.63-1.4
				c2.24,0,3.98,0.65,5.21,1.96c1.23,1.31,1.84,3.15,1.84,5.55v13.72H255v-13.72c0-1.93-0.5-3.45-1.5-4.56
				c-1-1.11-2.31-1.66-3.94-1.66c-1.23,0-2.37,0.3-3.41,0.9c-1.04,0.6-1.87,1.4-2.49,2.42c-0.61,1.01-0.92,2.13-0.92,3.36v13.26
				h-1.47v-12.9c0-2.21-0.52-3.94-1.57-5.18c-1.04-1.24-2.4-1.87-4.05-1.87c-1.11,0-2.16,0.28-3.15,0.83c-1,0.55-1.81,1.3-2.44,2.23
				c-0.63,0.94-0.94,1.96-0.94,3.06v13.82h-1.47V206.81z"/>
		</g>
	</g>
	<path d="M126.55,68.42l133.52,125.41V68.42H126.55z M241.05,104.85c0,2.58-0.96,5.05-2.67,6.86l-15.1,15.95l-15.1-15.95
		c-1.71-1.8-2.67-4.28-2.67-6.86v0c0-8.64,8.94-13.75,15.53-8.88l2.24,1.66l2.24-1.66C232.11,91.11,241.05,96.21,241.05,104.85
		L241.05,104.85z"/>
</g>
</svg>
