<?xml version="1.0" encoding="utf-8"?>
<!-- Generator: Adobe Illustrator 25.2.3, SVG Export Plug-In . SVG Version: 6.00 Build 0)  -->
<svg version="1.1" id="Layer_1" xmlns="http://www.w3.org/2000/svg" xmlns:xlink="http://www.w3.org/1999/xlink" x="0px" y="0px"
	 viewBox="0 0 322.73 322.73" enable-background="new 0 0 322.73 322.73" xml:space="preserve">
<g>
	<polygon fill="#FDE3FF" points="317.82,260.26 54.15,260.26 54.15,11.5 58.97,11.5 58.97,255.44 317.82,255.44 	"/>
	<rect x="257.58" y="192.96" fill="#FDE3FF" width="4.82" height="118.27"/>
	<rect x="4.9" y="65.09" fill="#FDE3FF" width="121.44" height="4.82"/>
	<g>
		<g>
			<path fill="#FDE3FF" d="M68.72,130.02c-1.74-1.01-3.06-2.35-3.98-4.01v5.02h-1.47V96.49h1.47v19.07
				c0.83-1.75,2.12-3.15,3.87-4.19c1.75-1.04,3.59-1.57,5.53-1.57c2,0,3.83,0.49,5.5,1.47c1.67,0.98,3,2.3,3.98,3.96
				c0.98,1.66,1.47,3.47,1.47,5.43s-0.49,3.78-1.47,5.43c-0.98,1.66-2.31,2.98-3.98,3.96c-1.67,0.98-3.51,1.47-5.5,1.47
				C72.26,131.54,70.46,131.03,68.72,130.02z M78.93,128.93c1.44-0.88,2.59-2.04,3.43-3.5c0.84-1.46,1.27-3.05,1.27-4.77
				c0-1.69-0.43-3.27-1.29-4.74c-0.86-1.47-2.01-2.65-3.45-3.52c-1.44-0.88-3.01-1.31-4.7-1.31c-1.69,0-3.26,0.45-4.72,1.34
				c-1.46,0.89-2.63,2.07-3.5,3.55c-0.88,1.47-1.31,3.06-1.31,4.74c0,1.69,0.44,3.26,1.31,4.72c0.88,1.46,2.05,2.63,3.52,3.5
				c1.47,0.88,3.05,1.31,4.74,1.31C75.92,130.25,77.48,129.81,78.93,128.93z"/>
			<path fill="#FDE3FF" d="M91.96,136.51v-2.35c1.01,1.6,2.16,2.79,3.45,3.57c1.29,0.78,2.79,1.17,4.51,1.17
				c1.75,0,3.25-0.37,4.49-1.11c1.24-0.74,2.19-1.74,2.83-3.02c0.65-1.27,0.97-2.69,0.97-4.26v-3.5c-0.74,1.44-1.85,2.56-3.34,3.34
				c-1.49,0.78-3.11,1.17-4.86,1.17c-1.75,0-3.3-0.38-4.65-1.15c-1.35-0.77-2.4-1.84-3.15-3.22c-0.75-1.38-1.13-2.98-1.13-4.79
				V110.3h1.47v12.07c0,1.66,0.35,3.08,1.04,4.26c0.69,1.18,1.6,2.08,2.74,2.69c1.14,0.61,2.38,0.92,3.73,0.92
				c1.47,0,2.84-0.36,4.1-1.08c1.26-0.72,2.25-1.69,2.97-2.9c0.72-1.21,1.08-2.51,1.08-3.89V110.3h1.47v20.08
				c0,1.84-0.38,3.51-1.13,5c-0.75,1.49-1.85,2.66-3.29,3.52c-1.44,0.86-3.16,1.29-5.16,1.29
				C96.67,140.19,93.96,138.97,91.96,136.51z"/>
		</g>
		<g>
			<path fill="#FDE3FF" d="M60.43,187.11c1.84,0,3.39-0.62,4.65-1.87c1.26-1.24,1.89-2.79,1.89-4.63v-22.06h1.47v22.06
				c0,1.47-0.35,2.81-1.06,4.01c-0.71,1.2-1.67,2.13-2.9,2.79c-1.23,0.66-2.58,0.99-4.05,0.99V187.11z M66.63,153.35
				c-0.32-0.31-0.48-0.69-0.48-1.15c0-0.43,0.16-0.8,0.48-1.11c0.32-0.31,0.7-0.46,1.13-0.46c0.43,0,0.81,0.15,1.13,0.46
				c0.32,0.31,0.48,0.68,0.48,1.11c0,0.46-0.16,0.85-0.48,1.15c-0.32,0.31-0.7,0.46-1.13,0.46
				C67.33,153.81,66.95,153.66,66.63,153.35z"/>
			<path fill="#FDE3FF" d="M81.53,178.31c-1.69-0.98-3.02-2.31-4.01-3.98c-0.98-1.67-1.47-3.48-1.47-5.41
				c0-1.93,0.49-3.74,1.47-5.41c0.98-1.67,2.32-3,4.01-3.98c1.69-0.98,3.51-1.47,5.48-1.47c1.99,0,3.88,0.53,5.66,1.59
				c1.78,1.06,3.02,2.43,3.73,4.12v-5.2h1.47v20.73H96.4v-5.16c-0.83,1.72-2.11,3.09-3.85,4.12c-1.74,1.03-3.59,1.54-5.55,1.54
				C85.04,179.79,83.21,179.29,81.53,178.31z M91.8,177.18c1.44-0.88,2.59-2.04,3.43-3.5c0.84-1.46,1.27-3.05,1.27-4.77
				c0-1.69-0.43-3.27-1.29-4.74c-0.86-1.47-2.01-2.65-3.45-3.52c-1.44-0.88-3.01-1.31-4.7-1.31c-1.69,0-3.26,0.45-4.72,1.34
				c-1.46,0.89-2.63,2.07-3.5,3.55c-0.88,1.47-1.31,3.06-1.31,4.74c0,1.69,0.44,3.26,1.31,4.72c0.88,1.46,2.05,2.63,3.52,3.5
				c1.47,0.88,3.06,1.31,4.74,1.31C88.79,178.5,90.35,178.06,91.8,177.18z"/>
			<path fill="#FDE3FF" d="M105.94,184.76v-2.35c1.01,1.6,2.16,2.79,3.45,3.57c1.29,0.78,2.79,1.17,4.51,1.17
				c1.75,0,3.25-0.37,4.49-1.11c1.24-0.74,2.19-1.74,2.83-3.02c0.65-1.27,0.97-2.69,0.97-4.26v-3.5c-0.74,1.44-1.85,2.56-3.34,3.34
				c-1.49,0.78-3.11,1.17-4.86,1.17c-1.75,0-3.3-0.38-4.65-1.15c-1.35-0.77-2.4-1.84-3.15-3.22c-0.75-1.38-1.13-2.98-1.13-4.79
				v-12.07h1.47v12.07c0,1.66,0.35,3.08,1.04,4.26c0.69,1.18,1.6,2.08,2.74,2.69c1.14,0.61,2.38,0.92,3.73,0.92
				c1.47,0,2.84-0.36,4.1-1.08c1.26-0.72,2.25-1.69,2.97-2.9c0.72-1.21,1.08-2.51,1.08-3.89v-12.07h1.47v20.08
				c0,1.84-0.38,3.51-1.13,5c-0.75,1.49-1.85,2.66-3.29,3.52c-1.44,0.86-3.16,1.29-5.16,1.29
				C110.65,188.44,107.93,187.22,105.94,184.76z"/>
			<path fill="#FDE3FF" d="M135.11,178.45c-1.67-0.95-3-2.26-3.98-3.91s-1.47-3.53-1.47-5.62c0-1.93,0.49-3.72,1.47-5.37
				c0.98-1.64,2.33-2.95,4.03-3.94c1.7-0.98,3.58-1.47,5.64-1.47c1.72,0,3.19,0.28,4.42,0.83c1.23,0.55,2.42,1.41,3.59,2.58v2.49
				c-1.01-1.5-2.14-2.65-3.39-3.43c-1.24-0.78-2.79-1.17-4.63-1.17c-1.69,0-3.28,0.44-4.77,1.31c-1.49,0.87-2.68,2.05-3.57,3.52
				c-0.89,1.47-1.34,3.06-1.34,4.74c0,1.84,0.43,3.49,1.29,4.95c0.86,1.46,2.02,2.6,3.48,3.41c1.46,0.81,3.03,1.22,4.72,1.22
				c3.44,0,6.17-1.55,8.2-4.65v2.49c-1.11,1.17-2.33,2.03-3.66,2.6c-1.34,0.57-2.85,0.85-4.54,0.85
				C138.62,179.88,136.78,179.4,135.11,178.45z"/>
			<path fill="#FDE3FF" d="M155.42,153.35c-0.32-0.31-0.48-0.69-0.48-1.15c0-0.43,0.16-0.8,0.48-1.11c0.32-0.31,0.7-0.46,1.13-0.46
				c0.43,0,0.81,0.15,1.13,0.46c0.32,0.31,0.48,0.68,0.48,1.11c0,0.46-0.16,0.85-0.48,1.15c-0.32,0.31-0.7,0.46-1.13,0.46
				C156.12,153.81,155.74,153.66,155.42,153.35z M155.81,158.55h1.47v20.73h-1.47V158.55z"/>
			<path fill="#FDE3FF" d="M180.64,177.3c1.44-0.83,2.64-1.96,3.59-3.41v2.35c-1.14,1.26-2.38,2.17-3.73,2.74
				c-1.35,0.57-2.89,0.85-4.61,0.85c-1.9,0-3.69-0.51-5.37-1.52c-1.67-1.01-3.01-2.36-4.01-4.05c-1-1.69-1.5-3.48-1.5-5.39
				c0-2.06,0.49-3.91,1.47-5.55c0.98-1.64,2.33-2.92,4.03-3.85c1.7-0.92,3.6-1.38,5.69-1.38c3.19,0,5.91,1.26,8.15,3.78
				l-14.46,14.28c1.01,0.83,2,1.44,2.95,1.82c0.95,0.38,2.03,0.58,3.22,0.58C177.67,178.54,179.19,178.13,180.64,177.3z
				 M169.03,175.27l13.49-13.4c-1.01-0.89-2-1.53-2.95-1.91c-0.95-0.38-2.09-0.58-3.41-0.58c-1.87,0-3.54,0.41-5,1.22
				c-1.46,0.81-2.6,1.93-3.43,3.34c-0.83,1.41-1.24,3.01-1.24,4.79C166.5,171.28,167.34,173.46,169.03,175.27z"/>
		</g>
		<g>
			<path fill="#FDE3FF" d="M63.27,206.81h1.47v3.13c1.41-2.42,3.69-3.64,6.82-3.64c1.5,0,2.81,0.42,3.91,1.27
				c1.11,0.84,1.87,2.11,2.3,3.8c0.4-1.5,1.28-2.72,2.65-3.66c1.37-0.94,2.91-1.4,4.63-1.4c2.24,0,3.98,0.65,5.21,1.96
				c1.23,1.31,1.84,3.15,1.84,5.55v13.72h-1.47v-13.72c0-1.93-0.5-3.45-1.5-4.56c-1-1.11-2.31-1.66-3.94-1.66
				c-1.23,0-2.37,0.3-3.41,0.9c-1.04,0.6-1.87,1.4-2.49,2.42c-0.61,1.01-0.92,2.13-0.92,3.36v13.26H76.9v-12.9
				c0-2.21-0.52-3.94-1.57-5.18s-2.4-1.87-4.05-1.87c-1.11,0-2.16,0.28-3.15,0.83s-1.81,1.3-2.44,2.23
				c-0.63,0.94-0.94,1.96-0.94,3.06v13.82h-1.47V206.81z"/>
			<path fill="#FDE3FF" d="M103.93,226.73c-1.69-1.03-3.01-2.4-3.96-4.1c-0.95-1.7-1.43-3.55-1.43-5.55c0-1.96,0.48-3.79,1.45-5.48
				c0.97-1.69,2.29-3.03,3.96-4.03c1.67-1,3.54-1.5,5.6-1.5c2.03,0,3.88,0.5,5.55,1.5c1.67,1,2.99,2.34,3.94,4.03
				c0.95,1.69,1.43,3.52,1.43,5.48c0,2.06-0.46,3.94-1.38,5.64c-0.92,1.7-2.2,3.06-3.85,4.05c-1.64,1-3.52,1.5-5.64,1.5
				C107.51,228.27,105.62,227.75,103.93,226.73z M114.39,225.64c1.44-0.89,2.57-2.08,3.39-3.57c0.81-1.49,1.22-3.12,1.22-4.9
				c0-1.75-0.41-3.38-1.24-4.88c-0.83-1.5-1.96-2.7-3.41-3.59c-1.44-0.89-3.04-1.34-4.79-1.34c-1.75,0-3.35,0.45-4.81,1.36
				c-1.46,0.91-2.61,2.11-3.45,3.62c-0.84,1.5-1.27,3.13-1.27,4.88s0.42,3.37,1.27,4.86c0.84,1.49,2,2.68,3.45,3.57
				c1.46,0.89,3.08,1.34,4.86,1.34C111.35,226.98,112.95,226.53,114.39,225.64z"/>
			<path fill="#FDE3FF" d="M128.69,225.74c-1.49-1.38-2.23-3.29-2.23-5.71v-21.55h1.47v8.34h6.36v1.29h-6.36v11.93
				c0,2.03,0.61,3.62,1.82,4.77c1.21,1.15,2.74,1.73,4.58,1.73v1.29C132.06,227.81,130.18,227.12,128.69,225.74z"/>
			<path fill="#FDE3FF" d="M144.32,226.56c-1.69-0.98-3.02-2.31-4.01-3.98c-0.98-1.67-1.47-3.48-1.47-5.41
				c0-1.93,0.49-3.74,1.47-5.41c0.98-1.67,2.32-3,4.01-3.98c1.69-0.98,3.51-1.47,5.48-1.47c1.99,0,3.88,0.53,5.66,1.59
				c1.78,1.06,3.02,2.43,3.73,4.12v-5.2h1.47v20.72h-1.47v-5.16c-0.83,1.72-2.11,3.09-3.85,4.12c-1.74,1.03-3.59,1.54-5.55,1.54
				C147.84,228.04,146.01,227.55,144.32,226.56z M154.6,225.44c1.44-0.88,2.59-2.04,3.43-3.5c0.84-1.46,1.27-3.05,1.27-4.77
				c0-1.69-0.43-3.27-1.29-4.74c-0.86-1.47-2.01-2.65-3.45-3.52c-1.44-0.88-3.01-1.31-4.7-1.31c-1.69,0-3.26,0.45-4.72,1.34
				c-1.46,0.89-2.63,2.07-3.5,3.55c-0.88,1.47-1.31,3.06-1.31,4.74s0.44,3.26,1.31,4.72c0.88,1.46,2.05,2.63,3.52,3.5
				c1.47,0.87,3.06,1.31,4.74,1.31S153.15,226.31,154.6,225.44z"/>
			<path fill="#FDE3FF" d="M167.47,227.49c-0.32-0.31-0.48-0.69-0.48-1.15c0-0.43,0.16-0.8,0.48-1.11c0.32-0.31,0.7-0.46,1.13-0.46
				c0.43,0,0.81,0.15,1.13,0.46c0.32,0.31,0.48,0.68,0.48,1.11c0,0.46-0.16,0.85-0.48,1.15c-0.32,0.31-0.7,0.46-1.13,0.46
				C168.17,227.95,167.79,227.79,167.47,227.49z"/>
			<path fill="#FDE3FF" d="M180.82,226.7c-1.67-0.95-3-2.26-3.98-3.91c-0.98-1.66-1.47-3.53-1.47-5.62c0-1.93,0.49-3.72,1.47-5.37
				s2.33-2.96,4.03-3.94c1.7-0.98,3.59-1.47,5.64-1.47c1.72,0,3.19,0.28,4.42,0.83c1.23,0.55,2.42,1.41,3.59,2.58v2.49
				c-1.01-1.5-2.14-2.65-3.39-3.43c-1.24-0.78-2.79-1.18-4.63-1.18c-1.69,0-3.28,0.44-4.77,1.31c-1.49,0.88-2.68,2.05-3.57,3.52
				c-0.89,1.47-1.34,3.06-1.34,4.74c0,1.84,0.43,3.49,1.29,4.95c0.86,1.46,2.02,2.59,3.48,3.41c1.46,0.81,3.03,1.22,4.72,1.22
				c3.44,0,6.17-1.55,8.2-4.65v2.49c-1.11,1.17-2.33,2.03-3.66,2.6c-1.34,0.57-2.85,0.85-4.54,0.85
				C184.33,228.13,182.5,227.65,180.82,226.7z"/>
			<path fill="#FDE3FF" d="M205.12,226.73c-1.69-1.03-3.01-2.4-3.96-4.1c-0.95-1.7-1.43-3.55-1.43-5.55c0-1.96,0.48-3.79,1.45-5.48
				c0.97-1.69,2.29-3.03,3.96-4.03c1.67-1,3.54-1.5,5.6-1.5c2.03,0,3.88,0.5,5.55,1.5c1.67,1,2.99,2.34,3.94,4.03
				c0.95,1.69,1.43,3.52,1.43,5.48c0,2.06-0.46,3.94-1.38,5.64c-0.92,1.7-2.2,3.06-3.85,4.05c-1.64,1-3.52,1.5-5.64,1.5
				C208.69,228.27,206.81,227.75,205.12,226.73z M215.57,225.64c1.44-0.89,2.57-2.08,3.39-3.57c0.81-1.49,1.22-3.12,1.22-4.9
				c0-1.75-0.41-3.38-1.24-4.88c-0.83-1.5-1.96-2.7-3.41-3.59c-1.44-0.89-3.04-1.34-4.79-1.34s-3.35,0.45-4.81,1.36
				c-1.46,0.91-2.61,2.11-3.45,3.62c-0.84,1.5-1.27,3.13-1.27,4.88s0.42,3.37,1.27,4.86c0.84,1.49,2,2.68,3.45,3.57
				c1.46,0.89,3.08,1.34,4.86,1.34C212.53,226.98,214.13,226.53,215.57,225.64z"/>
			<path fill="#FDE3FF" d="M227.64,206.81h1.47v3.13c1.41-2.42,3.69-3.64,6.82-3.64c1.5,0,2.81,0.42,3.91,1.27
				c1.11,0.84,1.87,2.11,2.3,3.8c0.4-1.5,1.28-2.72,2.65-3.66c1.37-0.94,2.91-1.4,4.63-1.4c2.24,0,3.98,0.65,5.21,1.96
				c1.23,1.31,1.84,3.15,1.84,5.55v13.72H255v-13.72c0-1.93-0.5-3.45-1.5-4.56c-1-1.11-2.31-1.66-3.94-1.66
				c-1.23,0-2.37,0.3-3.41,0.9c-1.04,0.6-1.87,1.4-2.49,2.42c-0.61,1.01-0.92,2.13-0.92,3.36v13.26h-1.47v-12.9
				c0-2.21-0.52-3.94-1.57-5.18c-1.04-1.24-2.4-1.87-4.05-1.87c-1.11,0-2.16,0.28-3.15,0.83c-1,0.55-1.81,1.3-2.44,2.23
				c-0.63,0.94-0.94,1.96-0.94,3.06v13.82h-1.47V206.81z"/>
		</g>
	</g>
	<path fill="#FDE3FF" d="M126.55,68.42l133.52,125.41V68.42H126.55z M241.05,104.85c0,2.58-0.96,5.05-2.67,6.86l-15.1,15.95
		l-15.1-15.95c-1.71-1.8-2.67-4.28-2.67-6.86v0c0-8.64,8.94-13.75,15.53-8.88l2.24,1.66l2.24-1.66
		C232.11,91.11,241.05,96.21,241.05,104.85L241.05,104.85z"/>
</g>
<g>
	<polygon fill="#ECCCFF" points="-32.31,274.07 -115.96,274.07 -115.96,136.72 -122.43,136.72 -122.43,274.07 -556.72,274.07 
		-556.72,-131.88 -408.76,-131.88 -408.76,-138.35 -556.72,-138.35 -556.72,-227.48 -563.19,-227.48 -563.19,-138.35 
		-657.39,-138.35 -657.39,-131.88 -563.19,-131.88 -563.19,280.54 -122.43,280.54 -122.43,355.42 -115.96,355.42 -115.96,280.54 
		-32.31,280.54 	"/>
	<path fill="#ECCCFF" d="M-408.31-133.12l289.3,271.73v-271.73H-408.31z M-160.24-54.18c0,5.59-2.09,10.95-5.79,14.86l-32.71,34.55
		l-32.71-34.55c-3.7-3.91-5.79-9.26-5.79-14.86v0c0-18.72,19.37-29.79,33.65-19.23l4.85,3.59l4.85-3.59
		C-179.6-83.97-160.24-72.9-160.24-54.18L-160.24-54.18z"/>
	<g>
		<path fill="#ECCCFF" d="M-525.15-11.93c-3.88-2.27-6.85-5.26-8.92-8.97v11.23h-3.3v-77.3h3.3v42.67c1.85-3.92,4.74-7.04,8.66-9.38
			c3.92-2.34,8.04-3.5,12.37-3.5c4.47,0,8.57,1.1,12.32,3.3c3.74,2.2,6.72,5.15,8.92,8.86c2.2,3.71,3.3,7.77,3.3,12.16
			c0,4.4-1.1,8.45-3.3,12.16c-2.2,3.71-5.17,6.67-8.92,8.86c-3.75,2.2-7.85,3.3-12.32,3.3C-517.23-8.53-521.26-9.66-525.15-11.93z
			 M-502.32-14.35c3.23-1.96,5.79-4.57,7.68-7.83c1.89-3.26,2.83-6.82,2.83-10.67c0-3.78-0.96-7.32-2.89-10.62
			c-1.92-3.3-4.5-5.93-7.73-7.88c-3.23-1.96-6.73-2.94-10.51-2.94c-3.78,0-7.3,1-10.56,2.99c-3.26,1.99-5.88,4.64-7.83,7.94
			s-2.94,6.84-2.94,10.62c0,3.78,0.98,7.3,2.94,10.56c1.96,3.26,4.59,5.87,7.88,7.83c3.3,1.96,6.84,2.94,10.62,2.94
			C-509.05-11.42-505.55-12.4-502.32-14.35z"/>
		<path fill="#ECCCFF" d="M-477.27,2.6v-5.26c2.27,3.57,4.84,6.24,7.73,7.99c2.89,1.75,6.25,2.63,10.1,2.63
			c3.92,0,7.27-0.82,10.05-2.47s4.9-3.9,6.34-6.75c1.44-2.85,2.16-6.03,2.16-9.53v-7.83c-1.65,3.23-4.14,5.72-7.47,7.47
			c-3.33,1.75-6.96,2.63-10.87,2.63c-3.92,0-7.39-0.86-10.41-2.58c-3.02-1.72-5.38-4.12-7.06-7.21c-1.68-3.09-2.52-6.66-2.52-10.72
			v-27h3.3v27c0,3.71,0.77,6.89,2.32,9.53c1.55,2.65,3.59,4.66,6.13,6.03c2.54,1.38,5.32,2.06,8.35,2.06c3.3,0,6.35-0.81,9.17-2.42
			c2.82-1.61,5.03-3.78,6.65-6.49c1.61-2.71,2.42-5.62,2.42-8.71v-27h3.3v44.94c0,4.12-0.84,7.85-2.52,11.18
			c-1.68,3.33-4.14,5.96-7.37,7.88c-3.23,1.92-7.08,2.89-11.54,2.89C-466.73,10.85-472.81,8.1-477.27,2.6z"/>
		<path fill="#ECCCFF" d="M-547.15,130.26c4.12,0,7.59-1.39,10.41-4.17c2.82-2.78,4.23-6.24,4.23-10.36V66.36h3.3v49.37
			c0,3.3-0.79,6.29-2.37,8.97c-1.58,2.68-3.75,4.76-6.49,6.24c-2.75,1.48-5.77,2.22-9.07,2.22V130.26z M-533.29,54.71
			c-0.72-0.69-1.08-1.55-1.08-2.58c0-0.96,0.36-1.79,1.08-2.47c0.72-0.69,1.56-1.03,2.53-1.03c0.96,0,1.8,0.34,2.53,1.03
			c0.72,0.69,1.08,1.51,1.08,2.47c0,1.03-0.36,1.89-1.08,2.58c-0.72,0.69-1.56,1.03-2.53,1.03
			C-531.73,55.74-532.57,55.4-533.29,54.71z"/>
		<path fill="#ECCCFF" d="M-504.07,110.57c-3.78-2.2-6.77-5.17-8.97-8.92c-2.2-3.74-3.3-7.78-3.3-12.11c0-4.33,1.1-8.36,3.3-12.11
			c2.2-3.74,5.19-6.72,8.97-8.92c3.78-2.2,7.87-3.3,12.26-3.3c4.47,0,8.69,1.19,12.68,3.56c3.98,2.37,6.77,5.45,8.35,9.22V66.36h3.3
			v46.38h-3.3v-11.54c-1.85,3.85-4.72,6.92-8.61,9.22c-3.88,2.3-8.02,3.45-12.42,3.45C-496.2,113.87-500.29,112.77-504.07,110.57z
			 M-481.09,108.05c3.23-1.96,5.79-4.57,7.68-7.83c1.89-3.26,2.84-6.82,2.84-10.67c0-3.78-0.96-7.32-2.89-10.62
			c-1.92-3.3-4.5-5.93-7.73-7.88c-3.23-1.96-6.74-2.94-10.51-2.94c-3.78,0-7.3,1-10.56,2.99c-3.26,1.99-5.87,4.64-7.83,7.94
			c-1.96,3.3-2.94,6.84-2.94,10.62c0,3.78,0.98,7.3,2.94,10.56c1.96,3.26,4.59,5.87,7.88,7.83c3.3,1.96,6.84,2.94,10.62,2.94
			C-487.82,110.99-484.32,110.01-481.09,108.05z"/>
		<path fill="#ECCCFF" d="M-453.57,125v-5.26c2.27,3.57,4.84,6.24,7.73,7.99c2.89,1.75,6.25,2.63,10.1,2.63
			c3.92,0,7.27-0.82,10.05-2.47c2.78-1.65,4.9-3.9,6.34-6.75c1.44-2.85,2.16-6.03,2.16-9.53v-7.83c-1.65,3.23-4.14,5.72-7.47,7.47
			c-3.33,1.75-6.96,2.63-10.87,2.63c-3.92,0-7.39-0.86-10.41-2.58c-3.02-1.72-5.38-4.12-7.06-7.21c-1.68-3.09-2.52-6.66-2.52-10.72
			v-27h3.3v27c0,3.71,0.77,6.89,2.32,9.53c1.55,2.65,3.59,4.66,6.13,6.03c2.54,1.38,5.32,2.06,8.35,2.06c3.3,0,6.35-0.81,9.17-2.42
			c2.82-1.61,5.03-3.78,6.65-6.49c1.61-2.71,2.42-5.62,2.42-8.71v-27h3.3v44.94c0,4.12-0.84,7.85-2.52,11.18
			c-1.68,3.33-4.14,5.96-7.37,7.88c-3.23,1.92-7.08,2.89-11.54,2.89C-443.02,133.25-449.1,130.5-453.57,125z"/>
		<path fill="#ECCCFF" d="M-392.4,110.88c-3.75-2.13-6.72-5.05-8.92-8.76c-2.2-3.71-3.3-7.9-3.3-12.57c0-4.33,1.1-8.33,3.3-12.01
			c2.2-3.68,5.21-6.61,9.02-8.81c3.81-2.2,8.02-3.3,12.62-3.3c3.85,0,7.15,0.62,9.89,1.85c2.75,1.24,5.43,3.16,8.04,5.77v5.57
			c-2.27-3.37-4.79-5.93-7.58-7.68c-2.78-1.75-6.24-2.63-10.36-2.63c-3.78,0-7.34,0.98-10.67,2.94c-3.33,1.96-6,4.59-7.99,7.88
			c-1.99,3.3-2.99,6.84-2.99,10.62c0,4.12,0.96,7.82,2.89,11.08c1.92,3.26,4.52,5.81,7.78,7.63c3.26,1.82,6.79,2.73,10.56,2.73
			c7.69,0,13.81-3.47,18.35-10.41v5.57c-2.47,2.61-5.21,4.55-8.19,5.82c-2.99,1.27-6.37,1.91-10.15,1.91
			C-384.55,114.08-388.66,113.01-392.4,110.88z"/>
		<path fill="#ECCCFF" d="M-351.08,54.71c-0.72-0.69-1.08-1.55-1.08-2.58c0-0.96,0.36-1.79,1.08-2.47c0.72-0.69,1.56-1.03,2.53-1.03
			c0.96,0,1.8,0.34,2.53,1.03c0.72,0.69,1.08,1.51,1.08,2.47c0,1.03-0.36,1.89-1.08,2.58c-0.72,0.69-1.56,1.03-2.53,1.03
			C-349.51,55.74-350.35,55.4-351.08,54.71z M-350.2,66.36h3.3v46.38h-3.3V66.36z"/>
		<path fill="#ECCCFF" d="M-298.77,108.31c3.23-1.85,5.91-4.4,8.04-7.63v5.26c-2.54,2.82-5.33,4.86-8.35,6.13
			c-3.02,1.27-6.46,1.91-10.31,1.91c-4.26,0-8.26-1.13-12.01-3.4c-3.75-2.27-6.73-5.29-8.97-9.07c-2.23-3.78-3.35-7.8-3.35-12.06
			c0-4.6,1.1-8.74,3.3-12.42c2.2-3.68,5.21-6.55,9.02-8.61c3.81-2.06,8.06-3.09,12.73-3.09c7.15,0,13.23,2.82,18.24,8.45
			l-32.36,31.95c2.27,1.86,4.47,3.21,6.6,4.07c2.13,0.86,4.53,1.29,7.21,1.29C-305.4,111.09-302,110.16-298.77,108.31z
			 M-324.74,103.77l30.2-29.99c-2.27-1.99-4.47-3.42-6.6-4.28c-2.13-0.86-4.67-1.29-7.63-1.29c-4.19,0-7.92,0.91-11.18,2.73
			c-3.26,1.82-5.82,4.31-7.68,7.47c-1.85,3.16-2.78,6.73-2.78,10.72C-330.41,94.84-328.52,99.72-324.74,103.77z"/>
		<path fill="#ECCCFF" d="M-537.36,188.76h3.3v7.01c3.16-5.43,8.25-8.14,15.25-8.14c3.37,0,6.29,0.95,8.76,2.83
			c2.47,1.89,4.19,4.72,5.15,8.5c0.89-3.37,2.87-6.1,5.93-8.19c3.06-2.1,6.51-3.14,10.36-3.14c5.02,0,8.9,1.46,11.65,4.38
			c2.75,2.92,4.12,7.06,4.12,12.42v30.71h-3.3v-30.71c0-4.33-1.12-7.73-3.35-10.2c-2.23-2.47-5.17-3.71-8.81-3.71
			c-2.75,0-5.29,0.67-7.63,2.01c-2.34,1.34-4.19,3.14-5.56,5.41c-1.38,2.27-2.06,4.78-2.06,7.52v29.68h-3.3v-28.86
			c0-4.95-1.17-8.81-3.5-11.59c-2.34-2.78-5.36-4.17-9.07-4.17c-2.47,0-4.83,0.62-7.06,1.85c-2.23,1.24-4.05,2.9-5.46,5
			c-1.41,2.1-2.11,4.38-2.11,6.85v30.92h-3.3V188.76z"/>
		<path fill="#ECCCFF" d="M-450.48,233.34c-3.78-2.3-6.74-5.36-8.86-9.17c-2.13-3.81-3.19-7.95-3.19-12.42
			c0-4.4,1.08-8.48,3.25-12.26c2.16-3.78,5.12-6.78,8.86-9.02c3.74-2.23,7.92-3.35,12.52-3.35c4.53,0,8.67,1.12,12.42,3.35
			c3.74,2.23,6.68,5.24,8.81,9.02c2.13,3.78,3.2,7.87,3.2,12.26c0,4.6-1.03,8.81-3.09,12.63c-2.06,3.81-4.93,6.84-8.61,9.07
			c-3.68,2.23-7.88,3.35-12.62,3.35C-442.47,236.79-446.7,235.64-450.48,233.34z M-427.08,230.92c3.23-1.99,5.75-4.65,7.58-7.99
			c1.82-3.33,2.73-6.99,2.73-10.98c0-3.92-0.93-7.56-2.78-10.92c-1.85-3.37-4.4-6.05-7.63-8.04c-3.23-1.99-6.8-2.99-10.72-2.99
			c-3.92,0-7.51,1.01-10.77,3.04c-3.26,2.03-5.84,4.72-7.73,8.09c-1.89,3.37-2.83,7.01-2.83,10.92s0.94,7.54,2.83,10.87
			c1.89,3.33,4.47,6,7.73,7.99c3.26,1.99,6.89,2.99,10.87,2.99C-433.88,233.9-430.31,232.91-427.08,230.92z"/>
		<path fill="#ECCCFF" d="M-399.2,231.12c-3.33-3.09-5-7.35-5-12.78v-48.23h3.3v18.65h14.22v2.89h-14.22v26.69
			c0,4.53,1.36,8.09,4.07,10.67c2.71,2.58,6.13,3.86,10.25,3.86v2.89C-391.66,235.76-395.87,234.21-399.2,231.12z"/>
		<path fill="#ECCCFF" d="M-368.34,232.98c-3.78-2.2-6.77-5.17-8.97-8.92c-2.2-3.74-3.3-7.78-3.3-12.11c0-4.33,1.1-8.36,3.3-12.11
			c2.2-3.74,5.19-6.72,8.97-8.92c3.78-2.2,7.87-3.3,12.26-3.3c4.47,0,8.69,1.19,12.68,3.56c3.98,2.37,6.77,5.45,8.35,9.22v-11.65
			h3.3v46.38h-3.3V223.6c-1.85,3.85-4.72,6.92-8.61,9.22c-3.88,2.3-8.02,3.45-12.42,3.45
			C-360.47,236.27-364.56,235.17-368.34,232.98z M-345.35,230.45c3.23-1.96,5.79-4.57,7.68-7.83c1.89-3.26,2.84-6.82,2.84-10.67
			c0-3.78-0.96-7.32-2.89-10.62c-1.92-3.3-4.5-5.93-7.73-7.88c-3.23-1.96-6.74-2.94-10.51-2.94c-3.78,0-7.3,1-10.56,2.99
			c-3.26,1.99-5.87,4.64-7.83,7.94c-1.96,3.3-2.94,6.84-2.94,10.62c0,3.78,0.98,7.3,2.94,10.56c1.96,3.26,4.59,5.87,7.88,7.83
			c3.3,1.96,6.84,2.94,10.62,2.94C-352.09,233.39-348.58,232.41-345.35,230.45z"/>
		<path fill="#ECCCFF" d="M-320.67,235.04c-0.72-0.69-1.08-1.55-1.08-2.58c0-0.96,0.36-1.79,1.08-2.47
			c0.72-0.69,1.56-1.03,2.52-1.03c0.96,0,1.8,0.34,2.53,1.03c0.72,0.69,1.08,1.51,1.08,2.47c0,1.03-0.36,1.89-1.08,2.58
			c-0.72,0.69-1.56,1.03-2.53,1.03C-319.11,236.07-319.95,235.72-320.67,235.04z"/>
		<path fill="#ECCCFF" d="M-294.91,233.29c-3.75-2.13-6.72-5.05-8.92-8.76c-2.2-3.71-3.3-7.9-3.3-12.57c0-4.33,1.1-8.33,3.3-12.01
			c2.2-3.68,5.21-6.61,9.02-8.81c3.81-2.2,8.02-3.3,12.62-3.3c3.85,0,7.15,0.62,9.89,1.85c2.75,1.24,5.43,3.16,8.04,5.77v5.57
			c-2.27-3.37-4.79-5.93-7.58-7.68s-6.24-2.63-10.36-2.63c-3.78,0-7.34,0.98-10.67,2.94c-3.33,1.96-6,4.59-7.99,7.88
			c-1.99,3.3-2.99,6.84-2.99,10.62c0,4.12,0.96,7.82,2.89,11.08c1.92,3.26,4.52,5.81,7.78,7.63c3.26,1.82,6.79,2.73,10.56,2.73
			c7.69,0,13.81-3.47,18.35-10.41v5.57c-2.47,2.61-5.21,4.55-8.19,5.82c-2.99,1.27-6.37,1.91-10.15,1.91
			C-287.06,236.48-291.16,235.41-294.91,233.29z"/>
		<path fill="#ECCCFF" d="M-244.66,233.34c-3.78-2.3-6.74-5.36-8.86-9.17c-2.13-3.81-3.19-7.95-3.19-12.42
			c0-4.4,1.08-8.48,3.25-12.26c2.16-3.78,5.12-6.78,8.86-9.02c3.74-2.23,7.92-3.35,12.52-3.35c4.53,0,8.67,1.12,12.42,3.35
			c3.74,2.23,6.68,5.24,8.81,9.02c2.13,3.78,3.2,7.87,3.2,12.26c0,4.6-1.03,8.81-3.09,12.63c-2.06,3.81-4.93,6.84-8.61,9.07
			c-3.68,2.23-7.88,3.35-12.62,3.35C-236.66,236.79-240.89,235.64-244.66,233.34z M-221.27,230.92c3.23-1.99,5.75-4.65,7.58-7.99
			c1.82-3.33,2.73-6.99,2.73-10.98c0-3.92-0.93-7.56-2.78-10.92c-1.85-3.37-4.4-6.05-7.63-8.04c-3.23-1.99-6.8-2.99-10.72-2.99
			s-7.51,1.01-10.77,3.04c-3.26,2.03-5.84,4.72-7.73,8.09c-1.89,3.37-2.83,7.01-2.83,10.92s0.94,7.54,2.83,10.87
			c1.89,3.33,4.47,6,7.73,7.99c3.26,1.99,6.89,2.99,10.87,2.99C-228.07,233.9-224.5,232.91-221.27,230.92z"/>
		<path fill="#ECCCFF" d="M-198.39,188.76h3.3v7.01c3.16-5.43,8.25-8.14,15.25-8.14c3.37,0,6.29,0.95,8.76,2.83
			c2.47,1.89,4.19,4.72,5.15,8.5c0.89-3.37,2.87-6.1,5.93-8.19c3.06-2.1,6.51-3.14,10.36-3.14c5.01,0,8.9,1.46,11.65,4.38
			c2.75,2.92,4.12,7.06,4.12,12.42v30.71h-3.3v-30.71c0-4.33-1.12-7.73-3.35-10.2c-2.23-2.47-5.17-3.71-8.81-3.71
			c-2.75,0-5.29,0.67-7.63,2.01c-2.34,1.34-4.19,3.14-5.56,5.41c-1.38,2.27-2.06,4.78-2.06,7.52v29.68h-3.3v-28.86
			c0-4.95-1.17-8.81-3.5-11.59c-2.34-2.78-5.36-4.17-9.07-4.17c-2.47,0-4.83,0.62-7.06,1.85c-2.23,1.24-4.05,2.9-5.46,5
			c-1.41,2.1-2.11,4.38-2.11,6.85v30.92h-3.3V188.76z"/>
	</g>
	<polygon points="-33.78,271.67 -117.43,271.67 -117.43,134.32 -123.9,134.32 -123.9,271.67 -558.2,271.67 -558.2,-134.28 
		-410.23,-134.28 -410.23,-140.75 -558.2,-140.75 -558.2,-229.88 -564.67,-229.88 -564.67,-140.75 -658.87,-140.75 -658.87,-134.28 
		-564.67,-134.28 -564.67,278.14 -123.9,278.14 -123.9,353.02 -117.43,353.02 -117.43,278.14 -33.78,278.14 	"/>
	<path d="M-409.79-135.52l289.3,271.73v-271.73H-409.79z M-161.71-56.58c0,5.59-2.09,10.95-5.79,14.86l-32.71,34.55l-32.71-34.55
		c-3.7-3.91-5.79-9.26-5.79-14.86v0c0-18.72,19.37-29.79,33.65-19.23l4.85,3.59l4.85-3.59C-181.08-86.36-161.71-75.29-161.71-56.58
		L-161.71-56.58z"/>
	<g>
		<path d="M-526.62-14.33c-3.88-2.27-6.85-5.26-8.92-8.97v11.23h-3.3v-77.3h3.3v42.67c1.85-3.92,4.74-7.04,8.66-9.38
			c3.92-2.34,8.04-3.5,12.37-3.5c4.47,0,8.57,1.1,12.32,3.3c3.74,2.2,6.72,5.15,8.92,8.86c2.2,3.71,3.3,7.77,3.3,12.16
			c0,4.4-1.1,8.45-3.3,12.16c-2.2,3.71-5.17,6.67-8.92,8.86c-3.75,2.2-7.85,3.3-12.32,3.3C-518.7-10.93-522.74-12.06-526.62-14.33z
			 M-503.79-16.75c3.23-1.96,5.79-4.57,7.68-7.83c1.89-3.26,2.83-6.82,2.83-10.67c0-3.78-0.96-7.32-2.89-10.62
			c-1.92-3.3-4.5-5.93-7.73-7.88c-3.23-1.96-6.73-2.94-10.51-2.94c-3.78,0-7.3,1-10.56,2.99c-3.26,1.99-5.88,4.64-7.83,7.94
			c-1.96,3.3-2.94,6.84-2.94,10.62c0,3.78,0.98,7.3,2.94,10.56c1.96,3.26,4.59,5.87,7.88,7.83c3.3,1.96,6.84,2.94,10.62,2.94
			C-510.53-13.81-507.02-14.79-503.79-16.75z"/>
		<path d="M-478.75,0.2v-5.26c2.27,3.57,4.84,6.24,7.73,7.99c2.89,1.75,6.25,2.63,10.1,2.63c3.92,0,7.27-0.82,10.05-2.47
			s4.9-3.9,6.34-6.75c1.44-2.85,2.16-6.03,2.16-9.53v-7.83c-1.65,3.23-4.14,5.72-7.47,7.47c-3.33,1.75-6.96,2.63-10.87,2.63
			c-3.92,0-7.39-0.86-10.41-2.58c-3.02-1.72-5.38-4.12-7.06-7.21c-1.68-3.09-2.52-6.66-2.52-10.72v-27h3.3v27
			c0,3.71,0.77,6.89,2.32,9.53c1.55,2.65,3.59,4.66,6.13,6.03c2.54,1.38,5.32,2.06,8.35,2.06c3.3,0,6.35-0.81,9.17-2.42
			c2.82-1.61,5.03-3.78,6.65-6.49c1.61-2.71,2.42-5.62,2.42-8.71v-27h3.3v44.94c0,4.12-0.84,7.85-2.52,11.18
			c-1.68,3.33-4.14,5.96-7.37,7.88c-3.23,1.92-7.08,2.89-11.54,2.89C-468.2,8.45-474.28,5.7-478.75,0.2z"/>
		<path d="M-548.62,127.86c4.12,0,7.59-1.39,10.41-4.17c2.82-2.78,4.23-6.24,4.23-10.36V63.96h3.3v49.37c0,3.3-0.79,6.29-2.37,8.97
			c-1.58,2.68-3.75,4.76-6.49,6.24c-2.75,1.48-5.77,2.22-9.07,2.22V127.86z M-534.76,52.32c-0.72-0.69-1.08-1.55-1.08-2.58
			c0-0.96,0.36-1.79,1.08-2.47c0.72-0.69,1.56-1.03,2.53-1.03c0.96,0,1.8,0.34,2.53,1.03c0.72,0.69,1.08,1.51,1.08,2.47
			c0,1.03-0.36,1.89-1.08,2.58c-0.72,0.69-1.56,1.03-2.53,1.03C-533.2,53.35-534.04,53.01-534.76,52.32z"/>
		<path d="M-505.54,108.18c-3.78-2.2-6.77-5.17-8.97-8.92c-2.2-3.74-3.3-7.78-3.3-12.11c0-4.33,1.1-8.36,3.3-12.11
			c2.2-3.74,5.19-6.72,8.97-8.92c3.78-2.2,7.87-3.3,12.26-3.3c4.47,0,8.69,1.19,12.68,3.56c3.98,2.37,6.77,5.45,8.35,9.22V63.96h3.3
			v46.38h-3.3V98.8c-1.85,3.85-4.72,6.92-8.61,9.22c-3.88,2.3-8.02,3.45-12.42,3.45C-497.68,111.48-501.76,110.38-505.54,108.18z
			 M-482.56,105.65c3.23-1.96,5.79-4.57,7.68-7.83c1.89-3.26,2.84-6.82,2.84-10.67c0-3.78-0.96-7.32-2.89-10.62
			c-1.92-3.3-4.5-5.93-7.73-7.88c-3.23-1.96-6.74-2.94-10.51-2.94c-3.78,0-7.3,1-10.56,2.99c-3.26,1.99-5.87,4.64-7.83,7.94
			c-1.96,3.3-2.94,6.84-2.94,10.62c0,3.78,0.98,7.3,2.94,10.56c1.96,3.26,4.59,5.87,7.88,7.83c3.3,1.96,6.84,2.94,10.62,2.94
			C-489.29,108.59-485.79,107.61-482.56,105.65z"/>
		<path d="M-455.04,122.61v-5.26c2.27,3.57,4.84,6.24,7.73,7.99c2.89,1.75,6.25,2.63,10.1,2.63c3.92,0,7.27-0.82,10.05-2.47
			c2.78-1.65,4.9-3.9,6.34-6.75c1.44-2.85,2.16-6.03,2.16-9.53v-7.83c-1.65,3.23-4.14,5.72-7.47,7.47
			c-3.33,1.75-6.96,2.63-10.87,2.63c-3.92,0-7.39-0.86-10.41-2.58c-3.02-1.72-5.38-4.12-7.06-7.21c-1.68-3.09-2.52-6.66-2.52-10.72
			v-27h3.3v27c0,3.71,0.77,6.89,2.32,9.53c1.55,2.65,3.59,4.66,6.13,6.03c2.54,1.38,5.32,2.06,8.35,2.06c3.3,0,6.35-0.81,9.17-2.42
			c2.82-1.61,5.03-3.78,6.65-6.49c1.61-2.71,2.42-5.62,2.42-8.71v-27h3.3v44.94c0,4.12-0.84,7.85-2.52,11.18
			c-1.68,3.33-4.14,5.96-7.37,7.88c-3.23,1.92-7.08,2.89-11.54,2.89C-444.5,130.85-450.58,128.1-455.04,122.61z"/>
		<path d="M-393.88,108.49c-3.75-2.13-6.72-5.05-8.92-8.76c-2.2-3.71-3.3-7.9-3.3-12.57c0-4.33,1.1-8.33,3.3-12.01
			c2.2-3.68,5.21-6.61,9.02-8.81c3.81-2.2,8.02-3.3,12.62-3.3c3.85,0,7.15,0.62,9.89,1.85c2.75,1.24,5.43,3.16,8.04,5.77v5.57
			c-2.27-3.37-4.79-5.93-7.58-7.68c-2.78-1.75-6.24-2.63-10.36-2.63c-3.78,0-7.34,0.98-10.67,2.94c-3.33,1.96-6,4.59-7.99,7.88
			c-1.99,3.3-2.99,6.84-2.99,10.62c0,4.12,0.96,7.82,2.89,11.08c1.92,3.26,4.52,5.81,7.78,7.63c3.26,1.82,6.79,2.73,10.56,2.73
			c7.69,0,13.81-3.47,18.35-10.41v5.57c-2.47,2.61-5.21,4.55-8.19,5.82c-2.99,1.27-6.37,1.91-10.15,1.91
			C-386.03,111.68-390.13,110.62-393.88,108.49z"/>
		<path d="M-352.55,52.32c-0.72-0.69-1.08-1.55-1.08-2.58c0-0.96,0.36-1.79,1.08-2.47c0.72-0.69,1.56-1.03,2.53-1.03
			c0.96,0,1.8,0.34,2.53,1.03c0.72,0.69,1.08,1.51,1.08,2.47c0,1.03-0.36,1.89-1.08,2.58c-0.72,0.69-1.56,1.03-2.53,1.03
			C-350.99,53.35-351.83,53.01-352.55,52.32z M-351.67,63.96h3.3v46.38h-3.3V63.96z"/>
		<path d="M-300.24,105.91c3.23-1.85,5.91-4.4,8.04-7.63v5.26c-2.54,2.82-5.33,4.86-8.35,6.13c-3.02,1.27-6.46,1.91-10.31,1.91
			c-4.26,0-8.26-1.13-12.01-3.4c-3.75-2.27-6.73-5.29-8.97-9.07c-2.23-3.78-3.35-7.8-3.35-12.06c0-4.6,1.1-8.74,3.3-12.42
			c2.2-3.68,5.21-6.55,9.02-8.61c3.81-2.06,8.06-3.09,12.73-3.09c7.15,0,13.23,2.82,18.24,8.45l-32.36,31.95
			c2.27,1.86,4.47,3.21,6.6,4.07c2.13,0.86,4.53,1.29,7.21,1.29C-306.87,108.69-303.47,107.77-300.24,105.91z M-326.22,101.38
			l30.2-29.99c-2.27-1.99-4.47-3.42-6.6-4.28c-2.13-0.86-4.67-1.29-7.63-1.29c-4.19,0-7.92,0.91-11.18,2.73
			c-3.26,1.82-5.82,4.31-7.68,7.47c-1.85,3.16-2.78,6.73-2.78,10.72C-331.88,92.44-329.99,97.32-326.22,101.38z"/>
		<path d="M-538.83,186.37h3.3v7.01c3.16-5.43,8.25-8.14,15.25-8.14c3.37,0,6.29,0.95,8.76,2.83c2.47,1.89,4.19,4.72,5.15,8.5
			c0.89-3.37,2.87-6.1,5.93-8.19c3.06-2.1,6.51-3.14,10.36-3.14c5.01,0,8.9,1.46,11.65,4.38c2.75,2.92,4.12,7.06,4.12,12.42v30.71
			h-3.3v-30.71c0-4.33-1.12-7.73-3.35-10.2c-2.23-2.47-5.17-3.71-8.81-3.71c-2.75,0-5.29,0.67-7.63,2.01
			c-2.34,1.34-4.19,3.14-5.56,5.41c-1.38,2.27-2.06,4.78-2.06,7.52v29.68h-3.3v-28.86c0-4.95-1.17-8.81-3.5-11.59
			c-2.34-2.78-5.36-4.17-9.07-4.17c-2.47,0-4.83,0.62-7.06,1.85c-2.23,1.24-4.05,2.9-5.46,5c-1.41,2.1-2.11,4.38-2.11,6.85v30.92
			h-3.3V186.37z"/>
		<path d="M-451.95,230.94c-3.78-2.3-6.74-5.36-8.86-9.17c-2.13-3.81-3.19-7.95-3.19-12.42c0-4.4,1.08-8.48,3.25-12.26
			c2.16-3.78,5.12-6.78,8.86-9.02c3.74-2.23,7.92-3.35,12.52-3.35c4.53,0,8.67,1.12,12.42,3.35c3.74,2.23,6.68,5.24,8.81,9.02
			c2.13,3.78,3.2,7.87,3.2,12.26c0,4.6-1.03,8.81-3.09,12.63c-2.06,3.81-4.93,6.84-8.61,9.07c-3.68,2.23-7.88,3.35-12.62,3.35
			C-443.95,234.39-448.17,233.24-451.95,230.94z M-428.55,228.52c3.23-1.99,5.75-4.65,7.58-7.99c1.82-3.33,2.73-6.99,2.73-10.98
			c0-3.92-0.93-7.56-2.78-10.92c-1.85-3.37-4.4-6.05-7.63-8.04c-3.23-1.99-6.8-2.99-10.72-2.99c-3.92,0-7.51,1.01-10.77,3.04
			c-3.26,2.03-5.84,4.72-7.73,8.09c-1.89,3.37-2.83,7.01-2.83,10.92s0.94,7.54,2.83,10.87c1.89,3.33,4.47,6,7.73,7.99
			c3.26,1.99,6.89,2.99,10.87,2.99C-435.36,231.51-431.78,230.51-428.55,228.52z"/>
		<path d="M-400.68,228.73c-3.33-3.09-5-7.35-5-12.78v-48.23h3.3v18.65h14.22v2.89h-14.22v26.69c0,4.53,1.36,8.09,4.07,10.67
			c2.71,2.58,6.13,3.86,10.25,3.86v2.89C-393.14,233.36-397.34,231.82-400.68,228.73z"/>
		<path d="M-369.81,230.58c-3.78-2.2-6.77-5.17-8.97-8.92c-2.2-3.74-3.3-7.78-3.3-12.11c0-4.33,1.1-8.36,3.3-12.11
			c2.2-3.74,5.19-6.72,8.97-8.92c3.78-2.2,7.87-3.3,12.26-3.3c4.47,0,8.69,1.19,12.68,3.56c3.98,2.37,6.77,5.45,8.35,9.22v-11.65
			h3.3v46.38h-3.3V221.2c-1.85,3.85-4.72,6.92-8.61,9.22c-3.88,2.3-8.02,3.45-12.42,3.45
			C-361.94,233.88-366.03,232.78-369.81,230.58z M-346.83,228.06c3.23-1.96,5.79-4.57,7.68-7.83c1.89-3.26,2.84-6.82,2.84-10.67
			c0-3.78-0.96-7.32-2.89-10.62c-1.92-3.3-4.5-5.93-7.73-7.88c-3.23-1.96-6.74-2.94-10.51-2.94c-3.78,0-7.3,1-10.56,2.99
			c-3.26,1.99-5.87,4.64-7.83,7.94s-2.94,6.84-2.94,10.62c0,3.78,0.98,7.3,2.94,10.56c1.96,3.26,4.59,5.87,7.88,7.83
			c3.3,1.96,6.84,2.94,10.62,2.94C-353.56,230.99-350.06,230.01-346.83,228.06z"/>
		<path d="M-322.14,232.64c-0.72-0.69-1.08-1.55-1.08-2.58c0-0.96,0.36-1.79,1.08-2.47c0.72-0.69,1.56-1.03,2.52-1.03
			c0.96,0,1.8,0.34,2.53,1.03c0.72,0.69,1.08,1.51,1.08,2.47c0,1.03-0.36,1.89-1.08,2.58c-0.72,0.69-1.56,1.03-2.53,1.03
			C-320.58,233.67-321.42,233.33-322.14,232.64z"/>
		<path d="M-296.38,230.89c-3.75-2.13-6.72-5.05-8.92-8.76c-2.2-3.71-3.3-7.9-3.3-12.57c0-4.33,1.1-8.33,3.3-12.01
			c2.2-3.68,5.21-6.61,9.02-8.81c3.81-2.2,8.02-3.3,12.62-3.3c3.85,0,7.15,0.62,9.89,1.85c2.75,1.24,5.43,3.16,8.04,5.77v5.57
			c-2.27-3.37-4.79-5.93-7.58-7.68s-6.24-2.63-10.36-2.63c-3.78,0-7.34,0.98-10.67,2.94c-3.33,1.96-6,4.59-7.99,7.88
			c-1.99,3.3-2.99,6.84-2.99,10.62c0,4.12,0.96,7.82,2.89,11.08c1.92,3.26,4.52,5.81,7.78,7.63c3.26,1.82,6.79,2.73,10.56,2.73
			c7.69,0,13.81-3.47,18.35-10.41v5.57c-2.47,2.61-5.21,4.55-8.19,5.82c-2.99,1.27-6.37,1.91-10.15,1.91
			C-288.53,234.08-292.63,233.02-296.38,230.89z"/>
		<path d="M-246.14,230.94c-3.78-2.3-6.74-5.36-8.86-9.17c-2.13-3.81-3.19-7.95-3.19-12.42c0-4.4,1.08-8.48,3.25-12.26
			c2.16-3.78,5.12-6.78,8.86-9.02c3.74-2.23,7.92-3.35,12.52-3.35c4.53,0,8.67,1.12,12.42,3.35c3.74,2.23,6.68,5.24,8.81,9.02
			c2.13,3.78,3.2,7.87,3.2,12.26c0,4.6-1.03,8.81-3.09,12.63c-2.06,3.81-4.93,6.84-8.61,9.07c-3.68,2.23-7.88,3.35-12.62,3.35
			C-238.13,234.39-242.36,233.24-246.14,230.94z M-222.74,228.52c3.23-1.99,5.75-4.65,7.58-7.99c1.82-3.33,2.73-6.99,2.73-10.98
			c0-3.92-0.93-7.56-2.78-10.92c-1.85-3.37-4.4-6.05-7.63-8.04c-3.23-1.99-6.8-2.99-10.72-2.99s-7.51,1.01-10.77,3.04
			c-3.26,2.03-5.84,4.72-7.73,8.09c-1.89,3.37-2.83,7.01-2.83,10.92s0.94,7.54,2.83,10.87c1.89,3.33,4.47,6,7.73,7.99
			c3.26,1.99,6.89,2.99,10.87,2.99C-229.54,231.51-225.97,230.51-222.74,228.52z"/>
		<path d="M-199.86,186.37h3.3v7.01c3.16-5.43,8.25-8.14,15.25-8.14c3.37,0,6.29,0.95,8.76,2.83c2.47,1.89,4.19,4.72,5.15,8.5
			c0.89-3.37,2.87-6.1,5.93-8.19c3.06-2.1,6.51-3.14,10.36-3.14c5.01,0,8.9,1.46,11.65,4.38c2.75,2.92,4.12,7.06,4.12,12.42v30.71
			h-3.3v-30.71c0-4.33-1.12-7.73-3.35-10.2c-2.23-2.47-5.17-3.71-8.81-3.71c-2.75,0-5.29,0.67-7.63,2.01
			c-2.34,1.34-4.19,3.14-5.56,5.41c-1.38,2.27-2.06,4.78-2.06,7.52v29.68h-3.3v-28.86c0-4.95-1.17-8.81-3.5-11.59
			c-2.34-2.78-5.36-4.17-9.07-4.17c-2.47,0-4.83,0.62-7.06,1.85c-2.23,1.24-4.05,2.9-5.46,5c-1.41,2.1-2.11,4.38-2.11,6.85v30.92
			h-3.3V186.37z"/>
	</g>
</g>
</svg>
