<?xml version="1.0" encoding="utf-8"?>
<!-- Generator: Adobe Illustrator 25.2.3, SVG Export Plug-In . SVG Version: 6.00 Build 0)  -->
<svg version="1.1" id="Layer_1" xmlns="http://www.w3.org/2000/svg" xmlns:xlink="http://www.w3.org/1999/xlink" x="0px" y="0px"
	 viewBox="0 0 326.03 326.03" enable-background="new 0 0 326.03 326.03" xml:space="preserve">
<g>
	<polygon fill="#ECCCFF" points="324.98,276.26 281.73,276.26 281.73,205.25 278.39,205.25 278.39,276.26 53.86,276.26 53.86,66.38 
		130.36,66.38 130.36,63.04 53.86,63.04 53.86,16.96 50.52,16.96 50.52,63.04 1.81,63.04 1.81,66.38 50.52,66.38 50.52,279.6 
		278.39,279.6 278.39,318.31 281.73,318.31 281.73,279.6 324.98,279.6 	"/>
	<path fill="#ECCCFF" d="M130.59,65.74l149.57,140.48V65.74H130.59z M258.84,106.55c0,2.89-1.08,5.66-2.99,7.68l-16.91,17.86
		l-16.91-17.86c-1.91-2.02-2.99-4.79-2.99-7.68v0c0-9.68,10.01-15.4,17.39-9.94l2.51,1.85l2.51-1.85
		C248.83,91.15,258.84,96.88,258.84,106.55L258.84,106.55z"/>
	<g>
		<path fill="#ECCCFF" d="M70.19,128.4c-2.01-1.17-3.54-2.72-4.61-4.64v5.81h-1.71V89.61h1.71v22.06c0.96-2.02,2.45-3.64,4.48-4.85
			c2.02-1.21,4.16-1.81,6.39-1.81c2.31,0,4.43,0.57,6.37,1.71c1.94,1.14,3.47,2.66,4.61,4.58c1.14,1.92,1.71,4.01,1.71,6.29
			c0,2.27-0.57,4.37-1.71,6.29c-1.14,1.92-2.67,3.45-4.61,4.58c-1.94,1.14-4.06,1.71-6.37,1.71
			C74.28,130.15,72.19,129.57,70.19,128.4z M81.99,127.14c1.67-1.01,2.99-2.36,3.97-4.05c0.98-1.69,1.47-3.53,1.47-5.51
			c0-1.95-0.5-3.78-1.49-5.49c-0.99-1.71-2.33-3.06-4-4.08c-1.67-1.01-3.48-1.52-5.43-1.52c-1.95,0-3.77,0.52-5.46,1.55
			c-1.69,1.03-3.04,2.4-4.05,4.1c-1.01,1.71-1.52,3.54-1.52,5.49c0,1.95,0.51,3.77,1.52,5.46c1.01,1.69,2.37,3.04,4.08,4.05
			c1.71,1.01,3.53,1.52,5.49,1.52C78.51,128.66,80.32,128.16,81.99,127.14z"/>
		<path fill="#ECCCFF" d="M94.93,135.91v-2.72c1.17,1.85,2.5,3.22,4,4.13c1.49,0.91,3.23,1.36,5.22,1.36c2.02,0,3.76-0.43,5.19-1.28
			c1.44-0.85,2.53-2.02,3.28-3.49c0.75-1.47,1.12-3.12,1.12-4.93v-4.05c-0.85,1.67-2.14,2.96-3.86,3.86
			c-1.72,0.91-3.6,1.36-5.62,1.36s-3.82-0.44-5.38-1.33c-1.56-0.89-2.78-2.13-3.65-3.73c-0.87-1.6-1.31-3.44-1.31-5.54v-13.96h1.71
			v13.96c0,1.92,0.4,3.56,1.2,4.93c0.8,1.37,1.86,2.41,3.17,3.12c1.31,0.71,2.75,1.07,4.32,1.07c1.71,0,3.29-0.42,4.74-1.25
			c1.46-0.83,2.6-1.95,3.44-3.36c0.83-1.4,1.25-2.9,1.25-4.5v-13.96h1.71v23.23c0,2.13-0.44,4.06-1.31,5.78
			c-0.87,1.72-2.14,3.08-3.81,4.08c-1.67,0.99-3.66,1.49-5.97,1.49C100.39,140.17,97.24,138.75,94.93,135.91z"/>
		<path fill="#ECCCFF" d="M58.81,201.91c2.13,0,3.92-0.72,5.38-2.16c1.46-1.44,2.18-3.22,2.18-5.35v-25.52h1.71v25.52
			c0,1.71-0.41,3.25-1.23,4.64c-0.82,1.39-1.94,2.46-3.36,3.22c-1.42,0.76-2.98,1.15-4.69,1.15V201.91z M65.98,162.85
			c-0.37-0.35-0.56-0.8-0.56-1.33c0-0.5,0.19-0.92,0.56-1.28c0.37-0.35,0.81-0.53,1.31-0.53c0.5,0,0.93,0.18,1.31,0.53
			c0.37,0.36,0.56,0.78,0.56,1.28c0,0.53-0.19,0.98-0.56,1.33c-0.37,0.36-0.81,0.53-1.31,0.53
			C66.78,163.38,66.35,163.21,65.98,162.85z"/>
		<path fill="#ECCCFF" d="M81.08,191.73c-1.95-1.14-3.5-2.67-4.64-4.61c-1.14-1.94-1.71-4.02-1.71-6.26c0-2.24,0.57-4.32,1.71-6.26
			c1.14-1.94,2.68-3.47,4.64-4.61c1.95-1.14,4.07-1.71,6.34-1.71c2.31,0,4.49,0.61,6.55,1.84c2.06,1.23,3.5,2.82,4.32,4.77v-6.02
			H100v23.98h-1.71v-5.97c-0.96,1.99-2.44,3.58-4.45,4.77c-2.01,1.19-4.15,1.79-6.42,1.79C85.15,193.44,83.03,192.87,81.08,191.73z
			 M92.96,190.42c1.67-1.01,2.99-2.36,3.97-4.05c0.98-1.69,1.47-3.53,1.47-5.51c0-1.95-0.5-3.78-1.49-5.49
			c-0.99-1.71-2.33-3.06-4-4.08c-1.67-1.01-3.48-1.52-5.43-1.52c-1.95,0-3.77,0.52-5.46,1.55c-1.69,1.03-3.04,2.4-4.05,4.1
			c-1.01,1.71-1.52,3.54-1.52,5.49c0,1.95,0.51,3.77,1.52,5.46c1.01,1.69,2.37,3.04,4.08,4.05c1.71,1.01,3.53,1.52,5.49,1.52
			C89.48,191.94,91.29,191.44,92.96,190.42z"/>
		<path fill="#ECCCFF" d="M107.19,199.19v-2.72c1.17,1.85,2.5,3.22,4,4.13c1.49,0.91,3.23,1.36,5.22,1.36
			c2.02,0,3.76-0.43,5.19-1.28s2.53-2.02,3.28-3.49c0.75-1.47,1.12-3.12,1.12-4.93v-4.05c-0.85,1.67-2.14,2.96-3.86,3.86
			c-1.72,0.91-3.6,1.36-5.62,1.36c-2.02,0-3.82-0.44-5.38-1.33c-1.56-0.89-2.78-2.13-3.65-3.73c-0.87-1.6-1.31-3.44-1.31-5.54
			v-13.96h1.71v13.96c0,1.92,0.4,3.56,1.2,4.93c0.8,1.37,1.86,2.41,3.17,3.12c1.31,0.71,2.75,1.07,4.32,1.07
			c1.71,0,3.29-0.42,4.74-1.25c1.46-0.83,2.6-1.95,3.44-3.36c0.83-1.4,1.25-2.9,1.25-4.5v-13.96h1.71v23.23
			c0,2.13-0.44,4.06-1.31,5.78c-0.87,1.72-2.14,3.08-3.81,4.08c-1.67,0.99-3.66,1.49-5.97,1.49
			C112.64,203.45,109.5,202.03,107.19,199.19z"/>
		<path fill="#ECCCFF" d="M138.81,191.89c-1.94-1.1-3.47-2.61-4.61-4.53c-1.14-1.92-1.71-4.08-1.71-6.5c0-2.24,0.57-4.31,1.71-6.21
			c1.14-1.9,2.69-3.42,4.66-4.56c1.97-1.14,4.15-1.71,6.53-1.71c1.99,0,3.69,0.32,5.12,0.96c1.42,0.64,2.81,1.63,4.16,2.98v2.88
			c-1.17-1.74-2.48-3.06-3.92-3.97c-1.44-0.91-3.22-1.36-5.36-1.36c-1.95,0-3.79,0.51-5.51,1.52c-1.72,1.01-3.1,2.37-4.13,4.08
			c-1.03,1.71-1.55,3.54-1.55,5.49c0,2.13,0.5,4.04,1.49,5.73c0.99,1.69,2.34,3,4.02,3.94c1.69,0.94,3.51,1.41,5.46,1.41
			c3.98,0,7.14-1.79,9.48-5.38v2.88c-1.28,1.35-2.69,2.35-4.24,3.01c-1.54,0.66-3.29,0.99-5.25,0.99
			C142.87,193.54,140.75,192.99,138.81,191.89z"/>
		<path fill="#ECCCFF" d="M160.18,162.85c-0.37-0.35-0.56-0.8-0.56-1.33c0-0.5,0.19-0.92,0.56-1.28c0.37-0.35,0.81-0.53,1.31-0.53
			c0.5,0,0.93,0.18,1.31,0.53c0.37,0.36,0.56,0.78,0.56,1.28c0,0.53-0.19,0.98-0.56,1.33c-0.37,0.36-0.81,0.53-1.31,0.53
			C160.99,163.38,160.55,163.21,160.18,162.85z M160.63,168.87h1.71v23.98h-1.71V168.87z"/>
		<path fill="#ECCCFF" d="M187.22,190.56c1.67-0.96,3.05-2.27,4.16-3.94v2.72c-1.31,1.46-2.75,2.51-4.32,3.17
			c-1.56,0.66-3.34,0.99-5.33,0.99c-2.2,0-4.27-0.59-6.21-1.76c-1.94-1.17-3.48-2.74-4.64-4.69c-1.16-1.95-1.73-4.03-1.73-6.23
			c0-2.38,0.57-4.52,1.71-6.42c1.14-1.9,2.69-3.38,4.66-4.45c1.97-1.07,4.16-1.6,6.58-1.6c3.69,0,6.84,1.46,9.43,4.37l-16.73,16.52
			c1.17,0.96,2.31,1.66,3.41,2.1c1.1,0.44,2.34,0.67,3.73,0.67C183.79,192,185.55,191.52,187.22,190.56z M173.79,188.21l15.61-15.51
			c-1.17-1.03-2.31-1.77-3.41-2.21c-1.1-0.44-2.42-0.67-3.94-0.67c-2.17,0-4.09,0.47-5.78,1.41c-1.69,0.94-3.01,2.23-3.97,3.86
			c-0.96,1.63-1.44,3.48-1.44,5.54C170.86,183.6,171.84,186.12,173.79,188.21z"/>
		<path fill="#ECCCFF" d="M63.87,232.15h1.71v3.62c1.63-2.81,4.26-4.21,7.89-4.21c1.74,0,3.25,0.49,4.53,1.47
			c1.28,0.98,2.17,2.44,2.66,4.4c0.46-1.74,1.48-3.15,3.06-4.24c1.58-1.08,3.37-1.63,5.36-1.63c2.59,0,4.6,0.76,6.02,2.26
			c1.42,1.51,2.13,3.65,2.13,6.42v15.88h-1.71v-15.88c0-2.24-0.58-4-1.73-5.28c-1.16-1.28-2.67-1.92-4.56-1.92
			c-1.42,0-2.74,0.35-3.94,1.04c-1.21,0.69-2.17,1.63-2.88,2.8c-0.71,1.17-1.07,2.47-1.07,3.89v15.35h-1.71v-14.92
			c0-2.56-0.6-4.56-1.81-5.99c-1.21-1.44-2.77-2.16-4.69-2.16c-1.28,0-2.5,0.32-3.65,0.96c-1.15,0.64-2.1,1.5-2.82,2.58
			c-0.73,1.08-1.09,2.26-1.09,3.54v15.98h-1.71V232.15z"/>
		<path fill="#ECCCFF" d="M108.79,255.2c-1.95-1.19-3.48-2.77-4.58-4.74c-1.1-1.97-1.65-4.11-1.65-6.42c0-2.27,0.56-4.39,1.68-6.34
			c1.12-1.95,2.65-3.51,4.58-4.66c1.94-1.15,4.09-1.73,6.47-1.73c2.34,0,4.48,0.58,6.42,1.73c1.94,1.15,3.45,2.71,4.56,4.66
			c1.1,1.95,1.65,4.07,1.65,6.34c0,2.38-0.53,4.56-1.6,6.53c-1.07,1.97-2.55,3.53-4.45,4.69c-1.9,1.15-4.08,1.73-6.53,1.73
			C112.93,256.98,110.74,256.39,108.79,255.2z M120.88,253.95c1.67-1.03,2.97-2.41,3.92-4.13c0.94-1.72,1.41-3.61,1.41-5.67
			c0-2.03-0.48-3.91-1.44-5.65c-0.96-1.74-2.27-3.13-3.94-4.16c-1.67-1.03-3.52-1.55-5.54-1.55c-2.02,0-3.88,0.52-5.57,1.57
			c-1.69,1.05-3.02,2.44-4,4.18c-0.98,1.74-1.47,3.62-1.47,5.65c0,2.02,0.49,3.9,1.47,5.62c0.98,1.72,2.31,3.1,4,4.13
			c1.69,1.03,3.56,1.55,5.62,1.55C117.37,255.49,119.21,254.98,120.88,253.95z"/>
		<path fill="#ECCCFF" d="M135.3,254.05c-1.72-1.6-2.58-3.8-2.58-6.61v-24.94h1.71v9.64h7.35v1.49h-7.35v13.8
			c0,2.34,0.7,4.18,2.1,5.51c1.4,1.33,3.17,2,5.3,2v1.49C139.19,256.45,137.02,255.65,135.3,254.05z"/>
		<path fill="#ECCCFF" d="M151.26,255.01c-1.95-1.14-3.5-2.67-4.64-4.61c-1.14-1.94-1.71-4.02-1.71-6.26c0-2.24,0.57-4.32,1.71-6.26
			c1.14-1.94,2.68-3.47,4.64-4.61c1.95-1.14,4.07-1.71,6.34-1.71c2.31,0,4.49,0.61,6.55,1.84c2.06,1.23,3.5,2.82,4.32,4.77v-6.02
			h1.71v23.98h-1.71v-5.97c-0.96,1.99-2.44,3.58-4.45,4.77c-2.01,1.19-4.15,1.79-6.42,1.79
			C155.32,256.72,153.21,256.15,151.26,255.01z M163.14,253.71c1.67-1.01,2.99-2.36,3.97-4.05c0.98-1.69,1.47-3.53,1.47-5.51
			c0-1.95-0.5-3.78-1.49-5.49c-0.99-1.71-2.33-3.06-4-4.08c-1.67-1.01-3.48-1.52-5.43-1.52c-1.95,0-3.77,0.52-5.46,1.55
			c-1.69,1.03-3.04,2.4-4.05,4.1c-1.01,1.71-1.52,3.54-1.52,5.49c0,1.95,0.51,3.77,1.52,5.46c1.01,1.69,2.37,3.04,4.08,4.05
			c1.71,1.01,3.53,1.52,5.49,1.52C159.66,255.22,161.47,254.72,163.14,253.71z"/>
		<path fill="#ECCCFF" d="M175.9,256.08c-0.37-0.35-0.56-0.8-0.56-1.33c0-0.5,0.19-0.92,0.56-1.28c0.37-0.35,0.81-0.53,1.31-0.53
			c0.5,0,0.93,0.18,1.31,0.53c0.37,0.36,0.56,0.78,0.56,1.28c0,0.53-0.19,0.98-0.56,1.33c-0.37,0.35-0.81,0.53-1.31,0.53
			C176.71,256.61,176.27,256.43,175.9,256.08z"/>
		<path fill="#ECCCFF" d="M189.22,255.17c-1.94-1.1-3.47-2.61-4.61-4.53c-1.14-1.92-1.71-4.08-1.71-6.5c0-2.24,0.57-4.31,1.71-6.21
			c1.14-1.9,2.69-3.42,4.66-4.56c1.97-1.14,4.15-1.71,6.53-1.71c1.99,0,3.69,0.32,5.12,0.96c1.42,0.64,2.81,1.63,4.16,2.98v2.88
			c-1.17-1.74-2.48-3.06-3.92-3.97c-1.44-0.91-3.22-1.36-5.36-1.36c-1.95,0-3.79,0.51-5.51,1.52c-1.72,1.01-3.1,2.37-4.13,4.08
			c-1.03,1.71-1.55,3.54-1.55,5.49c0,2.13,0.5,4.04,1.49,5.73c0.99,1.69,2.34,3,4.02,3.94c1.69,0.94,3.51,1.41,5.46,1.41
			c3.98,0,7.14-1.79,9.48-5.38v2.88c-1.28,1.35-2.69,2.35-4.24,3.01c-1.54,0.66-3.29,0.99-5.25,0.99
			C193.28,256.82,191.15,256.27,189.22,255.17z"/>
		<path fill="#ECCCFF" d="M215.19,255.2c-1.95-1.19-3.48-2.77-4.58-4.74c-1.1-1.97-1.65-4.11-1.65-6.42c0-2.27,0.56-4.39,1.68-6.34
			c1.12-1.95,2.65-3.51,4.58-4.66c1.94-1.15,4.09-1.73,6.47-1.73c2.34,0,4.48,0.58,6.42,1.73c1.94,1.15,3.45,2.71,4.56,4.66
			c1.1,1.95,1.65,4.07,1.65,6.34c0,2.38-0.53,4.56-1.6,6.53c-1.07,1.97-2.55,3.53-4.45,4.69c-1.9,1.15-4.08,1.73-6.53,1.73
			C219.33,256.98,217.15,256.39,215.19,255.2z M227.29,253.95c1.67-1.03,2.97-2.41,3.92-4.13c0.94-1.72,1.41-3.61,1.41-5.67
			c0-2.03-0.48-3.91-1.44-5.65c-0.96-1.74-2.27-3.13-3.94-4.16c-1.67-1.03-3.52-1.55-5.54-1.55c-2.02,0-3.88,0.52-5.57,1.57
			c-1.69,1.05-3.02,2.44-4,4.18c-0.98,1.74-1.47,3.62-1.47,5.65c0,2.02,0.49,3.9,1.47,5.62c0.98,1.72,2.31,3.1,4,4.13
			c1.69,1.03,3.56,1.55,5.62,1.55C223.77,255.49,225.62,254.98,227.29,253.95z"/>
		<path fill="#ECCCFF" d="M239.12,232.15h1.71v3.62c1.63-2.81,4.26-4.21,7.89-4.21c1.74,0,3.25,0.49,4.53,1.47
			c1.28,0.98,2.17,2.44,2.66,4.4c0.46-1.74,1.48-3.15,3.06-4.24c1.58-1.08,3.37-1.63,5.36-1.63c2.59,0,4.6,0.76,6.02,2.26
			c1.42,1.51,2.13,3.65,2.13,6.42v15.88h-1.71v-15.88c0-2.24-0.58-4-1.73-5.28c-1.16-1.28-2.67-1.92-4.56-1.92
			c-1.42,0-2.74,0.35-3.94,1.04c-1.21,0.69-2.17,1.63-2.88,2.8c-0.71,1.17-1.07,2.47-1.07,3.89v15.35h-1.71v-14.92
			c0-2.56-0.6-4.56-1.81-5.99c-1.21-1.44-2.77-2.16-4.69-2.16c-1.28,0-2.5,0.32-3.65,0.96c-1.15,0.64-2.1,1.5-2.82,2.58
			c-0.73,1.08-1.09,2.26-1.09,3.54v15.98h-1.71V232.15z"/>
	</g>
	<polygon points="324.22,275.02 280.97,275.02 280.97,204.01 277.63,204.01 277.63,275.02 53.1,275.02 53.1,65.14 129.6,65.14 
		129.6,61.8 53.1,61.8 53.1,15.72 49.75,15.72 49.75,61.8 1.05,61.8 1.05,65.14 49.75,65.14 49.75,278.36 277.63,278.36 
		277.63,317.08 280.97,317.08 280.97,278.36 324.22,278.36 	"/>
	<path d="M129.82,64.5l149.57,140.48V64.5H129.82z M258.08,105.31c0,2.89-1.08,5.66-2.99,7.68l-16.91,17.86L221.26,113
		c-1.91-2.02-2.99-4.79-2.99-7.68v0c0-9.68,10.01-15.4,17.39-9.94l2.51,1.85l2.51-1.85C248.07,89.91,258.08,95.64,258.08,105.31
		L258.08,105.31z"/>
	<g>
		<path d="M69.42,127.16c-2.01-1.17-3.54-2.72-4.61-4.64v5.81h-1.71V88.37h1.71v22.06c0.96-2.02,2.45-3.64,4.48-4.85
			c2.02-1.21,4.16-1.81,6.39-1.81c2.31,0,4.43,0.57,6.37,1.71c1.94,1.14,3.47,2.66,4.61,4.58c1.14,1.92,1.71,4.01,1.71,6.29
			c0,2.27-0.57,4.37-1.71,6.29c-1.14,1.92-2.67,3.45-4.61,4.58c-1.94,1.14-4.06,1.71-6.37,1.71
			C73.52,128.92,71.43,128.33,69.42,127.16z M81.23,125.9c1.67-1.01,2.99-2.36,3.97-4.05c0.98-1.69,1.47-3.53,1.47-5.51
			c0-1.95-0.5-3.78-1.49-5.49c-0.99-1.71-2.33-3.06-4-4.08c-1.67-1.01-3.48-1.52-5.43-1.52c-1.95,0-3.77,0.52-5.46,1.55
			c-1.69,1.03-3.04,2.4-4.05,4.1c-1.01,1.71-1.52,3.54-1.52,5.49c0,1.95,0.51,3.77,1.52,5.46c1.01,1.69,2.37,3.04,4.08,4.05
			c1.71,1.01,3.53,1.52,5.49,1.52C77.74,127.42,79.56,126.92,81.23,125.9z"/>
		<path d="M94.17,134.67v-2.72c1.17,1.85,2.5,3.22,4,4.13c1.49,0.91,3.23,1.36,5.22,1.36c2.02,0,3.76-0.43,5.19-1.28
			c1.44-0.85,2.53-2.02,3.28-3.49c0.75-1.47,1.12-3.12,1.12-4.93v-4.05c-0.85,1.67-2.14,2.96-3.86,3.86
			c-1.72,0.91-3.6,1.36-5.62,1.36s-3.82-0.44-5.38-1.33c-1.56-0.89-2.78-2.13-3.65-3.73c-0.87-1.6-1.31-3.44-1.31-5.54v-13.96h1.71
			v13.96c0,1.92,0.4,3.56,1.2,4.93c0.8,1.37,1.86,2.41,3.17,3.12c1.31,0.71,2.75,1.07,4.32,1.07c1.71,0,3.29-0.42,4.74-1.25
			c1.46-0.83,2.6-1.95,3.44-3.36c0.83-1.4,1.25-2.9,1.25-4.5v-13.96h1.71v23.23c0,2.13-0.44,4.06-1.31,5.78
			c-0.87,1.72-2.14,3.08-3.81,4.08c-1.67,0.99-3.66,1.49-5.97,1.49C99.63,138.93,96.48,137.51,94.17,134.67z"/>
		<path d="M58.05,200.67c2.13,0,3.92-0.72,5.38-2.16c1.46-1.44,2.18-3.22,2.18-5.35v-25.52h1.71v25.52c0,1.71-0.41,3.25-1.23,4.64
			c-0.82,1.39-1.94,2.46-3.36,3.22c-1.42,0.76-2.98,1.15-4.69,1.15V200.67z M65.21,161.61c-0.37-0.35-0.56-0.8-0.56-1.33
			c0-0.5,0.19-0.92,0.56-1.28c0.37-0.35,0.81-0.53,1.31-0.53c0.5,0,0.93,0.18,1.31,0.53c0.37,0.36,0.56,0.78,0.56,1.28
			c0,0.53-0.19,0.98-0.56,1.33c-0.37,0.36-0.81,0.53-1.31,0.53C66.02,162.14,65.59,161.97,65.21,161.61z"/>
		<path d="M80.32,190.49c-1.95-1.14-3.5-2.67-4.64-4.61c-1.14-1.94-1.71-4.02-1.71-6.26c0-2.24,0.57-4.32,1.71-6.26
			c1.14-1.94,2.68-3.47,4.64-4.61c1.95-1.14,4.07-1.71,6.34-1.71c2.31,0,4.49,0.61,6.55,1.84c2.06,1.23,3.5,2.82,4.32,4.77v-6.02
			h1.71v23.98h-1.71v-5.97c-0.96,1.99-2.44,3.58-4.45,4.77c-2.01,1.19-4.15,1.79-6.42,1.79C84.39,192.2,82.27,191.63,80.32,190.49z
			 M92.2,189.19c1.67-1.01,2.99-2.36,3.97-4.05c0.98-1.69,1.47-3.53,1.47-5.51c0-1.95-0.5-3.78-1.49-5.49
			c-0.99-1.71-2.33-3.06-4-4.08c-1.67-1.01-3.48-1.52-5.43-1.52c-1.95,0-3.77,0.52-5.46,1.55c-1.69,1.03-3.04,2.4-4.05,4.1
			c-1.01,1.71-1.52,3.54-1.52,5.49c0,1.95,0.51,3.77,1.52,5.46c1.01,1.69,2.37,3.04,4.08,4.05c1.71,1.01,3.53,1.52,5.49,1.52
			C88.72,190.7,90.53,190.2,92.2,189.19z"/>
		<path d="M106.43,197.95v-2.72c1.17,1.85,2.5,3.22,4,4.13c1.49,0.91,3.23,1.36,5.22,1.36c2.02,0,3.76-0.43,5.19-1.28
			c1.44-0.85,2.53-2.02,3.28-3.49c0.75-1.47,1.12-3.12,1.12-4.93v-4.05c-0.85,1.67-2.14,2.96-3.86,3.86
			c-1.72,0.91-3.6,1.36-5.62,1.36s-3.82-0.44-5.38-1.33c-1.56-0.89-2.78-2.13-3.65-3.73c-0.87-1.6-1.31-3.44-1.31-5.54v-13.96h1.71
			v13.96c0,1.92,0.4,3.56,1.2,4.93c0.8,1.37,1.86,2.41,3.17,3.12c1.31,0.71,2.75,1.07,4.32,1.07c1.71,0,3.29-0.42,4.74-1.25
			c1.46-0.83,2.6-1.95,3.44-3.36c0.83-1.4,1.25-2.9,1.25-4.5v-13.96h1.71v23.23c0,2.13-0.44,4.06-1.31,5.78
			c-0.87,1.72-2.14,3.08-3.81,4.08c-1.67,0.99-3.66,1.49-5.97,1.49C111.88,202.21,108.74,200.79,106.43,197.95z"/>
		<path d="M138.05,190.65c-1.94-1.1-3.47-2.61-4.61-4.53c-1.14-1.92-1.71-4.08-1.71-6.5c0-2.24,0.57-4.31,1.71-6.21
			c1.14-1.9,2.69-3.42,4.66-4.56c1.97-1.14,4.15-1.71,6.53-1.71c1.99,0,3.69,0.32,5.12,0.96c1.42,0.64,2.81,1.63,4.16,2.98v2.88
			c-1.17-1.74-2.48-3.06-3.92-3.97c-1.44-0.91-3.22-1.36-5.36-1.36c-1.95,0-3.79,0.51-5.51,1.52c-1.72,1.01-3.1,2.37-4.13,4.08
			c-1.03,1.71-1.55,3.54-1.55,5.49c0,2.13,0.5,4.04,1.49,5.73c0.99,1.69,2.34,3,4.02,3.94c1.69,0.94,3.51,1.41,5.46,1.41
			c3.98,0,7.14-1.79,9.48-5.38v2.88c-1.28,1.35-2.69,2.35-4.24,3.01c-1.54,0.66-3.29,0.99-5.25,0.99
			C142.11,192.3,139.99,191.75,138.05,190.65z"/>
		<path d="M159.42,161.61c-0.37-0.35-0.56-0.8-0.56-1.33c0-0.5,0.19-0.92,0.56-1.28c0.37-0.35,0.81-0.53,1.31-0.53
			c0.5,0,0.93,0.18,1.31,0.53c0.37,0.36,0.56,0.78,0.56,1.28c0,0.53-0.19,0.98-0.56,1.33c-0.37,0.36-0.81,0.53-1.31,0.53
			C160.23,162.14,159.79,161.97,159.42,161.61z M159.87,167.63h1.71v23.98h-1.71V167.63z"/>
		<path d="M186.46,189.32c1.67-0.96,3.05-2.27,4.16-3.94v2.72c-1.31,1.46-2.75,2.51-4.32,3.17c-1.56,0.66-3.34,0.99-5.33,0.99
			c-2.2,0-4.27-0.59-6.21-1.76c-1.94-1.17-3.48-2.74-4.64-4.69c-1.16-1.95-1.73-4.03-1.73-6.23c0-2.38,0.57-4.52,1.71-6.42
			c1.14-1.9,2.69-3.38,4.66-4.45c1.97-1.07,4.16-1.6,6.58-1.6c3.69,0,6.84,1.46,9.43,4.37l-16.73,16.52
			c1.17,0.96,2.31,1.66,3.41,2.1c1.1,0.44,2.34,0.67,3.73,0.67C183.03,190.76,184.79,190.28,186.46,189.32z M173.03,186.97
			l15.61-15.51c-1.17-1.03-2.31-1.77-3.41-2.21c-1.1-0.44-2.42-0.67-3.94-0.67c-2.17,0-4.09,0.47-5.78,1.41
			c-1.69,0.94-3.01,2.23-3.97,3.86c-0.96,1.63-1.44,3.48-1.44,5.54C170.1,182.36,171.08,184.88,173.03,186.97z"/>
		<path d="M63.11,230.91h1.71v3.62c1.63-2.81,4.26-4.21,7.89-4.21c1.74,0,3.25,0.49,4.53,1.47c1.28,0.98,2.17,2.44,2.66,4.4
			c0.46-1.74,1.48-3.15,3.06-4.24c1.58-1.08,3.37-1.63,5.36-1.63c2.59,0,4.6,0.76,6.02,2.26c1.42,1.51,2.13,3.65,2.13,6.42v15.88
			h-1.71v-15.88c0-2.24-0.58-4-1.73-5.28c-1.16-1.28-2.67-1.92-4.56-1.92c-1.42,0-2.74,0.35-3.94,1.04
			c-1.21,0.69-2.17,1.63-2.88,2.8c-0.71,1.17-1.07,2.47-1.07,3.89v15.35h-1.71v-14.92c0-2.56-0.6-4.56-1.81-5.99
			c-1.21-1.44-2.77-2.16-4.69-2.16c-1.28,0-2.5,0.32-3.65,0.96c-1.15,0.64-2.1,1.5-2.82,2.58c-0.73,1.08-1.09,2.26-1.09,3.54v15.99
			h-1.71V230.91z"/>
		<path d="M108.03,253.96c-1.95-1.19-3.48-2.77-4.58-4.74c-1.1-1.97-1.65-4.11-1.65-6.42c0-2.27,0.56-4.39,1.68-6.34
			c1.12-1.95,2.65-3.51,4.58-4.66c1.94-1.15,4.09-1.73,6.47-1.73c2.34,0,4.48,0.58,6.42,1.73c1.94,1.15,3.45,2.71,4.56,4.66
			c1.1,1.95,1.65,4.07,1.65,6.34c0,2.38-0.53,4.56-1.6,6.53c-1.07,1.97-2.55,3.53-4.45,4.69c-1.9,1.15-4.08,1.73-6.53,1.73
			C112.17,255.74,109.98,255.15,108.03,253.96z M120.12,252.71c1.67-1.03,2.97-2.41,3.92-4.13c0.94-1.72,1.41-3.61,1.41-5.67
			c0-2.03-0.48-3.91-1.44-5.65c-0.96-1.74-2.27-3.13-3.94-4.16c-1.67-1.03-3.52-1.55-5.54-1.55c-2.02,0-3.88,0.52-5.57,1.57
			c-1.69,1.05-3.02,2.44-4,4.18c-0.98,1.74-1.47,3.62-1.47,5.65c0,2.02,0.49,3.9,1.47,5.62c0.98,1.72,2.31,3.1,4,4.13
			c1.69,1.03,3.56,1.55,5.62,1.55C116.61,254.25,118.45,253.74,120.12,252.71z"/>
		<path d="M134.54,252.81c-1.72-1.6-2.58-3.8-2.58-6.61v-24.94h1.71v9.64h7.35v1.49h-7.35v13.8c0,2.34,0.7,4.18,2.1,5.51
			c1.4,1.33,3.17,2,5.3,2v1.49C138.43,255.21,136.26,254.41,134.54,252.81z"/>
		<path d="M150.49,253.77c-1.95-1.14-3.5-2.67-4.64-4.61c-1.14-1.94-1.71-4.02-1.71-6.26c0-2.24,0.57-4.32,1.71-6.26
			c1.14-1.94,2.68-3.47,4.64-4.61c1.95-1.14,4.07-1.71,6.34-1.71c2.31,0,4.49,0.61,6.55,1.84c2.06,1.23,3.5,2.82,4.32,4.77v-6.02
			h1.71v23.98h-1.71v-5.97c-0.96,1.99-2.44,3.58-4.45,4.77c-2.01,1.19-4.15,1.79-6.42,1.79
			C154.56,255.48,152.45,254.91,150.49,253.77z M162.38,252.47c1.67-1.01,2.99-2.36,3.97-4.05c0.98-1.69,1.47-3.53,1.47-5.51
			c0-1.95-0.5-3.78-1.49-5.49c-0.99-1.71-2.33-3.06-4-4.08c-1.67-1.01-3.48-1.52-5.43-1.52c-1.95,0-3.77,0.52-5.46,1.55
			c-1.69,1.03-3.04,2.4-4.05,4.1c-1.01,1.71-1.52,3.54-1.52,5.49c0,1.95,0.51,3.77,1.52,5.46c1.01,1.69,2.37,3.04,4.08,4.05
			c1.71,1.01,3.53,1.52,5.49,1.52C158.89,253.99,160.71,253.48,162.38,252.47z"/>
		<path d="M175.14,254.84c-0.37-0.35-0.56-0.8-0.56-1.33c0-0.5,0.19-0.92,0.56-1.28c0.37-0.35,0.81-0.53,1.31-0.53
			c0.5,0,0.93,0.18,1.31,0.53c0.37,0.36,0.56,0.78,0.56,1.28c0,0.53-0.19,0.98-0.56,1.33c-0.37,0.35-0.81,0.53-1.31,0.53
			C175.94,255.37,175.51,255.19,175.14,254.84z"/>
		<path d="M188.46,253.93c-1.94-1.1-3.47-2.61-4.61-4.53c-1.14-1.92-1.71-4.08-1.71-6.5c0-2.24,0.57-4.31,1.71-6.21
			c1.14-1.9,2.69-3.42,4.66-4.56c1.97-1.14,4.15-1.71,6.53-1.71c1.99,0,3.69,0.32,5.12,0.96c1.42,0.64,2.81,1.63,4.16,2.98v2.88
			c-1.17-1.74-2.48-3.06-3.92-3.97s-3.22-1.36-5.36-1.36c-1.95,0-3.79,0.51-5.51,1.52c-1.72,1.01-3.1,2.37-4.13,4.08
			c-1.03,1.71-1.55,3.54-1.55,5.49c0,2.13,0.5,4.04,1.49,5.73c0.99,1.69,2.34,3,4.02,3.94c1.69,0.94,3.51,1.41,5.46,1.41
			c3.98,0,7.14-1.79,9.48-5.38v2.88c-1.28,1.35-2.69,2.35-4.24,3.01c-1.54,0.66-3.29,0.99-5.25,0.99
			C192.51,255.58,190.39,255.03,188.46,253.93z"/>
		<path d="M214.43,253.96c-1.95-1.19-3.48-2.77-4.58-4.74c-1.1-1.97-1.65-4.11-1.65-6.42c0-2.27,0.56-4.39,1.68-6.34
			c1.12-1.95,2.65-3.51,4.58-4.66c1.94-1.15,4.09-1.73,6.47-1.73c2.34,0,4.48,0.58,6.42,1.73c1.94,1.15,3.45,2.71,4.56,4.66
			c1.1,1.95,1.65,4.07,1.65,6.34c0,2.38-0.53,4.56-1.6,6.53c-1.07,1.97-2.55,3.53-4.45,4.69c-1.9,1.15-4.08,1.73-6.53,1.73
			C218.57,255.74,216.38,255.15,214.43,253.96z M226.53,252.71c1.67-1.03,2.97-2.41,3.92-4.13c0.94-1.72,1.41-3.61,1.41-5.67
			c0-2.03-0.48-3.91-1.44-5.65c-0.96-1.74-2.27-3.13-3.94-4.16c-1.67-1.03-3.52-1.55-5.54-1.55c-2.02,0-3.88,0.52-5.57,1.57
			c-1.69,1.05-3.02,2.44-4,4.18c-0.98,1.74-1.47,3.62-1.47,5.65c0,2.02,0.49,3.9,1.47,5.62c0.98,1.72,2.31,3.1,4,4.13
			c1.69,1.03,3.56,1.55,5.62,1.55C223.01,254.25,224.86,253.74,226.53,252.71z"/>
		<path d="M238.36,230.91h1.71v3.62c1.63-2.81,4.26-4.21,7.89-4.21c1.74,0,3.25,0.49,4.53,1.47c1.28,0.98,2.17,2.44,2.66,4.4
			c0.46-1.74,1.48-3.15,3.06-4.24c1.58-1.08,3.37-1.63,5.36-1.63c2.59,0,4.6,0.76,6.02,2.26c1.42,1.51,2.13,3.65,2.13,6.42v15.88
			h-1.71v-15.88c0-2.24-0.58-4-1.73-5.28c-1.16-1.28-2.67-1.92-4.56-1.92c-1.42,0-2.74,0.35-3.94,1.04
			c-1.21,0.69-2.17,1.63-2.88,2.8c-0.71,1.17-1.07,2.47-1.07,3.89v15.35h-1.71v-14.92c0-2.56-0.6-4.56-1.81-5.99
			c-1.21-1.44-2.77-2.16-4.69-2.16c-1.28,0-2.5,0.32-3.65,0.96c-1.15,0.64-2.1,1.5-2.82,2.58c-0.73,1.08-1.09,2.26-1.09,3.54v15.99
			h-1.71V230.91z"/>
	</g>
</g>
</svg>
