<?xml version="1.0" encoding="utf-8"?>
<!-- Generator: Adobe Illustrator 25.2.3, SVG Export Plug-In . SVG Version: 6.00 Build 0)  -->
<svg version="1.1" id="Layer_1" xmlns="http://www.w3.org/2000/svg" xmlns:xlink="http://www.w3.org/1999/xlink" x="0px" y="0px"
	 viewBox="0 0 107 101" enable-background="new 0 0 107 101" xml:space="preserve">
<path fill="#FEE550" d="M66.13,99.07H30.01c-14.81,0-26.81-12-26.81-26.81V36.13c0-14.81,12-26.81,26.81-26.81h36.12
	c14.81,0,26.81,12,26.81,26.81v36.12C92.94,87.06,80.94,99.07,66.13,99.07z"/>
<path fill="#05DBF2" stroke="#231F20" stroke-width="5" stroke-miterlimit="10" d="M82.09,92.96H34.48
	c-11.64,0-21.07-9.43-21.07-21.07V24.28c0-11.64,9.43-21.07,21.07-21.07h47.61c11.64,0,21.07,9.43,21.07,21.07v47.61
	C103.16,83.52,93.73,92.96,82.09,92.96z"/>
<path fill="#FFFFFF" stroke="#000000" stroke-width="4" stroke-miterlimit="10" d="M86.6,26.21h-1.86c-1.84,0-3.33-1.49-3.33-3.33
	v-1.86c0-1.84,1.49-3.33,3.33-3.33h1.86c1.84,0,3.33,1.49,3.33,3.33v1.86C89.94,24.72,88.45,26.21,86.6,26.21z"/>
<circle fill="#FFFFFF" stroke="#000000" stroke-width="5" stroke-miterlimit="10" cx="58.29" cy="48.08" r="20.35"/>
</svg>
