<?xml version="1.0" encoding="utf-8"?>
<!-- Generator: Adobe Illustrator 25.2.3, SVG Export Plug-In . SVG Version: 6.00 Build 0)  -->
<svg version="1.1" id="Layer_1" xmlns="http://www.w3.org/2000/svg" xmlns:xlink="http://www.w3.org/1999/xlink" x="0px" y="0px"
	 viewBox="0 0 104 102" enable-background="new 0 0 104 102" xml:space="preserve">
<path fill="#05DBF2" d="M64.81,100.83H28.69c-14.81,0-26.81-12-26.81-26.81V37.89c0-14.81,12-26.81,26.81-26.81h36.12
	c14.81,0,26.81,12,26.81,26.81v36.12C91.62,88.82,79.62,100.83,64.81,100.83z"/>
<path fill="#F24BD6" stroke="#231F20" stroke-width="4" stroke-miterlimit="10" d="M80.24,92.78H31.47
	c-11.32,0-20.49-9.17-20.49-20.49V23.53c0-11.32,9.17-20.49,20.49-20.49h48.77c11.32,0,20.49,9.17,20.49,20.49V72.3
	C100.72,83.61,91.55,92.78,80.24,92.78z"/>
<g>
	<ellipse fill="#FFFFFF" stroke="#000000" stroke-width="3" stroke-miterlimit="10" cx="31.2" cy="23.09" rx="6.83" ry="5.75"/>
	<path fill="#FFFFFF" stroke="#000000" stroke-width="3" stroke-miterlimit="10" d="M37.8,78.49H24.61c-0.13,0-0.24-0.11-0.24-0.24
		V35.74c0-0.13,0.11-0.24,0.24-0.24H37.8c0.13,0,0.24,0.11,0.24,0.24v42.51C38.03,78.38,37.93,78.49,37.8,78.49z"/>
	<path fill="#FFFFFF" stroke="#000000" stroke-width="3" stroke-miterlimit="10" d="M44.65,36.1v42.23c0,0.08,0.07,0.15,0.15,0.15
		h13.62c0.08,0,0.15-0.07,0.15-0.15V53.87c0,0,0.3-7.59,7.57-7.18c0,0,6.96-0.39,7.57,7.48v24.16c0,0.08,0.07,0.15,0.15,0.15h13.31
		c0.08,0,0.15-0.07,0.15-0.15V51.14c0,0-0.17-13.65-13.88-15.85c-3.39-0.54-6.9-0.17-9.95,1.4c-1.68,0.86-3.36,2.13-4.4,4
		c-0.11,0.2-0.42,0.13-0.42-0.1c0-1.2,0-3.23,0-4.49c0-0.61-0.5-1.1-1.11-1.1H45.76C45.15,34.99,44.65,35.49,44.65,36.1z"/>
</g>
</svg>
