<?xml version="1.0" encoding="utf-8"?>
<!-- Generator: Adobe Illustrator 25.2.3, SVG Export Plug-In . SVG Version: 6.00 Build 0)  -->
<svg version="1.1" id="Layer_1" xmlns="http://www.w3.org/2000/svg" xmlns:xlink="http://www.w3.org/1999/xlink" x="0px" y="0px"
	 viewBox="0 0 122.21 118.46" enable-background="new 0 0 122.21 118.46" xml:space="preserve">
<polygon fill="#705BF2" points="-646.82,191.28 -645.76,211.33 -627.82,199.72 "/>
<g>
	<path fill="#F24CD6" d="M-1029.38,231.36h-68.82c-5.04,0-9.12-4.08-9.12-9.12v-42.08c0-5.04,4.08-9.12,9.12-9.12h68.82
		c5.04,0,9.12,4.08,9.12,9.12v42.08C-1020.26,227.27-1024.35,231.36-1029.38,231.36z"/>
	<g>
		<path fill="#05DBF2" stroke="#000000" stroke-width="6" stroke-miterlimit="10" d="M-1035.43,224.63h-68.82
			c-5.04,0-9.12-4.08-9.12-9.12v-42.08c0-5.04,4.08-9.12,9.12-9.12h68.82c5.04,0,9.12,4.08,9.12,9.12v42.08
			C-1026.31,220.55-1030.39,224.63-1035.43,224.63z"/>
		<polyline fill="none" stroke="#231F20" stroke-width="5" stroke-miterlimit="10" points="-1110.1,170.72 -1069.84,205.19 
			-1029.59,170.72 		"/>
	</g>
</g>
<g>
	<path fill="#F24CD6" d="M-1031.38,388.86h-68.82c-5.04,0-9.12-4.08-9.12-9.12v-42.08c0-5.04,4.08-9.12,9.12-9.12h68.82
		c5.04,0,9.12,4.08,9.12,9.12v42.08C-1022.26,384.77-1026.35,388.86-1031.38,388.86z"/>
	<g>
		<path fill="#FEE550" stroke="#000000" stroke-width="6" stroke-miterlimit="10" d="M-1037.43,382.13h-68.82
			c-5.04,0-9.12-4.08-9.12-9.12v-42.08c0-5.04,4.08-9.12,9.12-9.12h68.82c5.04,0,9.12,4.08,9.12,9.12v42.08
			C-1028.31,378.05-1032.39,382.13-1037.43,382.13z"/>
		<polyline fill="none" stroke="#231F20" stroke-width="5" stroke-miterlimit="10" points="-1112.1,328.22 -1071.84,362.7 
			-1031.59,328.22 		"/>
	</g>
</g>
<g>
	<g>
		
			<line fill="#3B51A2" stroke="#EE5383" stroke-width="6" stroke-miterlimit="10" x1="-926.01" y1="155.76" x2="-926.01" y2="241.58"/>
		
			<line fill="#3B51A2" stroke="#EE5383" stroke-width="6" stroke-miterlimit="10" x1="-966.64" y1="197.98" x2="-880.49" y2="197.98"/>
	</g>
	<g>
		
			<line fill="#3B51A2" stroke="#000000" stroke-width="6" stroke-miterlimit="10" x1="-930.51" y1="153.09" x2="-930.51" y2="238.9"/>
		<line fill="#3B51A2" stroke="#000000" stroke-width="6" stroke-miterlimit="10" x1="-971.14" y1="195.3" x2="-885" y2="195.3"/>
	</g>
</g>
<path fill="#F24CD6" d="M-760.7,215.55c-15.66,0-28.36-12.7-28.36-28.36c0-7.98,3.3-15.19,8.6-20.34
	c-16.9,3.34-29.64,18.24-29.64,36.12c0,20.34,16.49,36.82,36.82,36.82s36.82-16.49,36.82-36.82c0-0.35-0.01-0.69-0.02-1.03
	C-741.45,210.1-750.44,215.55-760.7,215.55z"/>
<path fill="#3B51A2" stroke="#231F20" stroke-width="5" stroke-miterlimit="10" d="M-768.28,208.66c-15.66,0-28.36-12.7-28.36-28.36
	c0-7.98,3.3-15.19,8.6-20.34c-16.9,3.34-29.64,18.24-29.64,36.12c0,20.34,16.49,36.82,36.82,36.82c20.34,0,36.82-16.49,36.82-36.82
	c0-0.35-0.01-0.69-0.02-1.03C-749.03,203.21-758.02,208.66-768.28,208.66z"/>
<polygon fill="#F24CD6" points="-655.82,87.86 -655.82,116.11 -647.62,108.39 -637.38,108.39 "/>
<polygon fill="#FFFFFF" stroke="#3C51A2" stroke-width="2" stroke-miterlimit="10" points="-656.26,84 -656.26,108.8 
	-649.06,102.03 -640.07,102.03 "/>
<g>
	<polygon fill="#05DBF2" points="-609.25,89.35 -609.25,112.99 -602.39,106.53 -593.82,106.53 	"/>
	<polygon fill="none" stroke="#3C51A2" stroke-width="2" stroke-miterlimit="10" points="-611.82,85.67 -611.82,109.31 
		-604.96,102.85 -596.38,102.85 	"/>
</g>
<g>
	<path fill="#F24CD6" d="M-766.19,319.04c-16.2,0-29.34-13.14-29.34-29.34c0-8.25,3.41-15.71,8.9-21.04
		c-17.48,3.46-30.67,18.87-30.67,37.37c0,21.04,17.06,38.1,38.1,38.1c21.04,0,38.1-17.06,38.1-38.1c0-0.36-0.01-0.71-0.02-1.07
		C-746.27,313.4-755.57,319.04-766.19,319.04z"/>
	<path fill="#05F240" stroke="#231F20" stroke-width="5" stroke-miterlimit="10" d="M-770.92,315.02
		c-16.2,0-29.34-13.14-29.34-29.34c0-8.25,3.41-15.71,8.9-21.04c-17.48,3.46-30.67,18.87-30.67,37.37c0,21.04,17.06,38.1,38.1,38.1
		c21.04,0,38.1-17.06,38.1-38.1c0-0.36-0.01-0.71-0.02-1.07C-751.01,309.38-760.3,315.02-770.92,315.02z"/>
</g>
<polygon fill="#705BF2" points="-308.1,241.53 -374.75,153.45 -414.03,210.24 "/>
<polygon fill="#F24CD6" points="-24.65,153.18 -130.14,185.9 -90.1,242.15 "/>
<polygon fill="#F24BD6" stroke="#231F20" stroke-width="5" stroke-miterlimit="10" points="-456.62,237.41 -521.16,157.5 
	-554.17,205.22 "/>
<polygon fill="#05DBF2" stroke="#231F20" stroke-width="5" stroke-miterlimit="10" points="-171.14,157.95 -268.24,191.46 
	-234.59,238.73 "/>
<polygon fill="#FFFFFF" stroke="#231F20" stroke-width="2" stroke-miterlimit="10" points="-647.82,187.33 -646.82,206.33 
	-629.82,195.33 "/>
<path fill="#FEE550" d="M-623.69,351.4h-36.12c-14.81,0-26.81-12-26.81-26.81v-36.12c0-14.81,12-26.81,26.81-26.81h36.12
	c14.81,0,26.81,12,26.81,26.81v36.12C-596.88,339.39-608.88,351.4-623.69,351.4z"/>
<path fill="#05DBF2" d="M-495.01,350.16h-36.12c-14.81,0-26.81-12-26.81-26.81v-36.12c0-14.81,12-26.81,26.81-26.81h36.12
	c14.81,0,26.81,12,26.81,26.81v36.12C-468.2,338.15-480.2,350.16-495.01,350.16z"/>
<path fill="#05DBF2" stroke="#231F20" stroke-width="5" stroke-miterlimit="10" d="M-607.73,345.29h-47.61
	c-11.64,0-21.07-9.43-21.07-21.07v-47.61c0-11.64,9.43-21.07,21.07-21.07h47.61c11.64,0,21.07,9.43,21.07,21.07v47.61
	C-586.66,335.86-596.09,345.29-607.73,345.29z"/>
<path fill="#F24BD6" stroke="#231F20" stroke-width="4" stroke-miterlimit="10" d="M-479.58,342.12h-48.77
	c-11.32,0-20.49-9.17-20.49-20.49v-48.77c0-11.32,9.17-20.49,20.49-20.49h48.77c11.32,0,20.49,9.17,20.49,20.49v48.77
	C-459.1,332.94-468.27,342.12-479.58,342.12z"/>
<path fill="#FFFFFF" stroke="#000000" stroke-width="4" stroke-miterlimit="10" d="M-603.21,278.54h-1.86
	c-1.84,0-3.33-1.49-3.33-3.33v-1.86c0-1.84,1.49-3.33,3.33-3.33h1.86c1.84,0,3.33,1.49,3.33,3.33v1.86
	C-599.88,277.05-601.37,278.54-603.21,278.54z"/>
<g>
	<ellipse fill="#FFFFFF" stroke="#000000" stroke-width="3" stroke-miterlimit="10" cx="-528.62" cy="272.42" rx="6.83" ry="5.75"/>
	<path fill="#FFFFFF" stroke="#000000" stroke-width="3" stroke-miterlimit="10" d="M-522.02,327.82h-13.19
		c-0.13,0-0.24-0.11-0.24-0.24v-42.51c0-0.13,0.11-0.24,0.24-0.24h13.19c0.13,0,0.24,0.11,0.24,0.24v42.51
		C-521.78,327.71-521.89,327.82-522.02,327.82z"/>
	<path fill="#FFFFFF" stroke="#000000" stroke-width="3" stroke-miterlimit="10" d="M-515.17,285.43v42.23
		c0,0.08,0.07,0.15,0.15,0.15h13.62c0.08,0,0.15-0.07,0.15-0.15V303.2c0,0,0.3-7.59,7.57-7.18c0,0,6.96-0.39,7.57,7.48v24.16
		c0,0.08,0.07,0.15,0.15,0.15h13.31c0.08,0,0.15-0.07,0.15-0.15v-27.19c0,0-0.17-13.65-13.88-15.85c-3.39-0.54-6.9-0.17-9.95,1.4
		c-1.68,0.86-3.36,2.13-4.4,4c-0.11,0.2-0.42,0.13-0.42-0.1c0-1.2,0-3.23,0-4.49c0-0.61-0.5-1.1-1.11-1.1h-11.81
		C-514.67,284.33-515.17,284.82-515.17,285.43z"/>
</g>
<circle fill="#FFFFFF" stroke="#000000" stroke-width="5" stroke-miterlimit="10" cx="-631.53" cy="300.42" r="20.35"/>
<polygon fill="#705BF2" points="-250.51,377.62 -292.04,485.96 -177.45,467.76 "/>
<polygon fill="#05F240" stroke="#231F20" stroke-width="5" stroke-miterlimit="10" points="-372.33,395.78 -414.42,505.58 
	-298.28,487.13 "/>
<circle fill="#07F243" cx="61.11" cy="59.23" r="54.39"/>
<circle fill="#705CF2" stroke="#231F20" stroke-width="4" stroke-miterlimit="10" cx="-94.2" cy="59.45" r="55.88"/>
<polygon fill="#05DBF2" points="330.86,5.92 290.97,109.99 401.05,92.5 "/>
<polygon fill="#F24CD6" stroke="#231F20" stroke-width="5" stroke-miterlimit="10" points="188.99,6.74 150.1,108.2 257.41,91.15 
	"/>
<polygon fill="#F90303" stroke="#231F20" stroke-width="5" stroke-miterlimit="10" points="-349.52,323.99 -374.33,299.17 
	-349.52,274.36 -360.56,263.31 -385.38,288.12 -410.2,263.31 -421.25,274.36 -396.43,299.17 -421.25,323.99 -410.2,335.04 
	-385.38,310.22 -360.56,335.04 "/>
<polygon fill="#05F240" stroke="#000000" stroke-width="5" stroke-miterlimit="10" points="-268.2,330.56 -294.5,302.73 
	-283.46,291.68 -267.2,308.61 -229.53,268.31 -218.11,280.4 "/>
<polygon fill="#FFF800" stroke="#000000" stroke-width="4" stroke-miterlimit="10" points="312.8,263.36 377.6,181.21 
	373.69,285.22 476.86,263.36 406.08,340.55 499.36,389.22 394.83,403.48 434.57,499.9 345.2,444.56 312.8,543.61 280.41,444.56 
	191.04,499.9 230.78,403.48 126.25,389.22 219.53,340.55 148.75,263.36 251.92,285.22 248.01,181.21 "/>
<g>
	<rect x="630.66" y="180.3" fill="none" stroke="#00B1E8" stroke-width="5" stroke-miterlimit="10" width="57.19" height="57.19"/>
	
		<text transform="matrix(1 0 0 1 642.3419 219.7813)" fill="#00B1E8" font-family="'AdobeFanHeitiStd-Bold-B5pc-H'" font-size="33.2312px">Ps</text>
</g>
<g>
	<g>
		
			<rect x="1004.19" y="180.3" fill="none" stroke="#B400EF" stroke-width="5" stroke-miterlimit="10" width="57.19" height="57.19"/>
	</g>
	
		<text transform="matrix(1 0 0 1 1012.5147 218.8165)" fill="#B400EF" font-family="'AdobeFanHeitiStd-Bold-B5pc-H'" font-size="33.2312px">Xd</text>
</g>
<g>
	<g>
		<rect x="537.28" y="180.3" fill="none" stroke="#ED8700" stroke-width="5" stroke-miterlimit="10" width="57.19" height="57.19"/>
	</g>
	
		<text transform="matrix(1 0 0 1 550.4849 219.6304)" fill="#E58200" font-family="'AdobeFanHeitiStd-Bold-B5pc-H'" font-size="33.2312px">Ai</text>
</g>
<g>
	<g>
		<g>
			<polygon fill="#E44F26" points="723.03,227.84 719.62,189.67 757.02,189.67 753.61,227.84 738.3,232.08 			"/>
			<polygon fill="#F1662A" points="738.32,228.84 750.69,225.41 753.61,192.79 738.32,192.79 			"/>
			<polygon fill="#EBEBEB" points="738.32,206.95 732.13,206.95 731.7,202.16 738.32,202.16 738.32,197.48 738.3,197.48 
				726.58,197.48 726.69,198.73 727.84,211.63 738.32,211.63 			"/>
			<polygon fill="#EBEBEB" points="738.32,219.11 738.3,219.11 733.09,217.71 732.75,213.97 730.22,213.97 728.05,213.97 
				728.71,221.32 738.3,223.98 738.32,223.98 			"/>
			<polygon fill="#E44F26" points="723.1,179.3 725.48,179.3 725.48,181.65 727.66,181.65 727.66,179.3 730.04,179.3 730.04,186.42 
				727.66,186.42 727.66,184.03 725.48,184.03 725.48,186.42 723.1,186.42 			"/>
			<polygon fill="#E44F26" points="733.17,181.66 731.07,181.66 731.07,179.3 737.64,179.3 737.64,181.66 735.55,181.66 
				735.55,186.42 733.17,186.42 			"/>
			<polygon fill="#E44F26" points="738.68,179.3 741.16,179.3 742.69,181.8 744.21,179.3 746.7,179.3 746.7,186.42 744.33,186.42 
				744.33,182.89 742.69,185.42 742.65,185.42 741.01,182.89 741.01,186.42 738.68,186.42 			"/>
			<polygon fill="#E44F26" points="747.88,179.3 750.26,179.3 750.26,184.07 753.6,184.07 753.6,186.42 747.88,186.42 			"/>
			<polygon fill="#FFFFFF" points="738.3,206.95 738.3,211.63 744.07,211.63 743.53,217.7 738.3,219.11 738.3,223.98 747.9,221.32 
				747.97,220.53 749.07,208.21 749.19,206.95 747.93,206.95 			"/>
			<polygon fill="#FFFFFF" points="738.3,197.48 738.3,200.38 738.3,202.15 738.3,202.16 749.6,202.16 749.6,202.16 749.61,202.16 
				749.71,201.11 749.92,198.73 750.03,197.48 			"/>
		</g>
		<g transform="translate(26.008 5.817)">
			<path fill="#1572B6" d="M751.55,181.85h-3.1l3.23,3.5v1.67h-6.65v-1.95h3.23l-3.23-3.5v-1.67h6.52V181.85z M743.71,181.85h-3.1
				l3.23,3.5v1.67h-6.65v-1.95h3.23l-3.23-3.5v-1.67h6.52V181.85z M735.95,181.93h-3.35v3.06h3.35v2.03h-5.73v-7.12h5.73V181.93z"/>
			<polygon fill="#1572B6" points="725.65,228.44 722.25,190.27 759.64,190.27 756.24,228.43 740.92,232.68 			"/>
			<polygon fill="#33A9DC" points="740.95,229.43 753.32,226 756.23,193.39 740.95,193.39 			"/>
			<g transform="translate(6.274 16.198)">
				<polygon fill="#FFFFFF" points="734.67,191.02 740.87,191.02 741.29,186.23 734.67,186.23 734.67,181.55 734.69,181.55 
					746.41,181.55 746.3,182.8 745.15,195.7 734.67,195.7 				"/>
				<polygon fill="#EBEBEB" points="734.7,203.18 734.68,203.19 729.47,201.78 729.13,198.04 726.6,198.04 724.43,198.04 
					725.09,205.39 734.68,208.06 734.7,208.05 				"/>
				<polygon fill="#FFFFFF" points="740.47,195.5 739.9,201.77 734.68,203.18 734.68,208.05 744.28,205.39 744.35,204.6 
					745.17,195.5 				"/>
				<polygon fill="#EBEBEB" points="734.69,181.55 734.69,184.45 734.69,186.22 734.69,186.23 723.4,186.23 723.4,186.23 
					723.38,186.23 723.29,185.18 723.07,182.8 722.96,181.55 				"/>
				<polygon fill="#EBEBEB" points="734.67,191.02 734.67,193.93 734.67,195.69 734.67,195.7 729.54,195.7 729.54,195.7 
					729.53,195.7 729.43,194.65 729.22,192.28 729.11,191.02 				"/>
			</g>
		</g>
	</g>
</g>
<g>
	<g>
		<polygon fill="#F7DF1E" points="906.34,175.84 972.47,175.84 972.47,241.96 906.34,241.96 		"/>
		<path d="M923.73,231.09l5.06-3.06c0.98,1.73,1.86,3.2,3.99,3.2c2.04,0,3.33-0.8,3.33-3.91v-21.13h6.21v21.22
			c0,6.44-3.77,9.37-9.28,9.37C928.08,236.78,925.19,234.2,923.73,231.09 M945.7,230.43l5.06-2.93c1.33,2.18,3.06,3.77,6.13,3.77
			c2.57,0,4.22-1.29,4.22-3.06c0-2.13-1.69-2.89-4.53-4.13l-1.55-0.67c-4.48-1.91-7.46-4.31-7.46-9.37c0-4.66,3.55-8.21,9.1-8.21
			c3.95,0,6.79,1.38,8.83,4.97l-4.84,3.11c-1.07-1.91-2.22-2.66-3.99-2.66c-1.82,0-2.97,1.15-2.97,2.66c0,1.86,1.15,2.62,3.82,3.77
			l1.55,0.67c5.28,2.26,8.26,4.57,8.26,9.77c0,5.59-4.39,8.66-10.3,8.66C951.25,236.78,947.52,234.02,945.7,230.43"/>
	</g>
</g>
<g>
	<path fill="#464342" d="M817.77,208.9c0,11.18,6.5,20.85,15.92,25.43l-13.48-36.93C818.64,200.91,817.77,204.8,817.77,208.9z
		 M865.09,207.47c0-3.49-1.25-5.91-2.33-7.79c-1.43-2.33-2.77-4.3-2.77-6.63c0-2.6,1.97-5.01,4.74-5.01c0.13,0,0.24,0.02,0.37,0.02
		c-5.03-4.61-11.72-7.42-19.08-7.42c-9.87,0-18.55,5.06-23.61,12.73c0.66,0.02,1.29,0.03,1.82,0.03c2.96,0,7.53-0.36,7.53-0.36
		c1.52-0.09,1.7,2.15,0.18,2.33c0,0-1.53,0.18-3.23,0.27l10.29,30.6l6.18-18.54l-4.4-12.06c-1.52-0.09-2.96-0.27-2.96-0.27
		c-1.52-0.09-1.34-2.42,0.18-2.33c0,0,4.67,0.36,7.44,0.36c2.95,0,7.53-0.36,7.53-0.36c1.52-0.09,1.7,2.15,0.18,2.33
		c0,0-1.53,0.18-3.23,0.27l10.21,30.37l2.82-9.42C864.16,212.7,865.09,209.89,865.09,207.47z M846.52,211.37L838.04,236
		c2.53,0.74,5.21,1.15,7.98,1.15c3.29,0,6.45-0.57,9.38-1.6c-0.08-0.12-0.14-0.25-0.2-0.39L846.52,211.37z M870.81,195.34
		c0.12,0.9,0.19,1.87,0.19,2.91c0,2.87-0.54,6.09-2.15,10.12l-8.63,24.95c8.4-4.9,14.05-14,14.05-24.42
		C874.27,203.99,873.02,199.37,870.81,195.34z M846.02,175.96c-18.16,0-32.93,14.77-32.93,32.93c0,18.16,14.78,32.94,32.93,32.94
		c18.16,0,32.94-14.77,32.94-32.94C878.96,190.74,864.18,175.96,846.02,175.96z M846.02,240.32c-17.33,0-31.42-14.1-31.42-31.43
		c0-17.33,14.1-31.42,31.42-31.42c17.33,0,31.42,14.1,31.42,31.42C877.44,226.23,863.35,240.32,846.02,240.32z"/>
</g>
</svg>
