<?xml version="1.0" encoding="utf-8"?>
<!-- Generator: Adobe Illustrator 25.2.3, SVG Export Plug-In . SVG Version: 6.00 Build 0)  -->
<svg version="1.1" id="Layer_1" xmlns="http://www.w3.org/2000/svg" xmlns:xlink="http://www.w3.org/1999/xlink" x="0px" y="0px"
	 viewBox="0 0 122 92" enable-background="new 0 0 122 92" xml:space="preserve">
<g>
	<path fill="#F24CD6" d="M98.44,79.52H29.61c-5.04,0-9.12-4.08-9.12-9.12V28.32c0-5.04,4.08-9.12,9.12-9.12h68.82
		c5.04,0,9.12,4.08,9.12,9.12V70.4C107.56,75.44,103.47,79.52,98.44,79.52z"/>
	<g>
		<path fill="#FEE550" stroke="#000000" stroke-width="6" stroke-miterlimit="10" d="M92.39,72.8H23.56c-5.04,0-9.12-4.08-9.12-9.12
			V21.6c0-5.04,4.08-9.12,9.12-9.12h68.82c5.04,0,9.12,4.08,9.12,9.12v42.08C101.51,68.72,97.43,72.8,92.39,72.8z"/>
		<polyline fill="none" stroke="#231F20" stroke-width="5" stroke-miterlimit="10" points="17.72,18.89 57.98,53.36 98.23,18.89 		
			"/>
	</g>
</g>
</svg>
