<?xml version="1.0" encoding="utf-8"?>
<!-- Generator: Adobe Illustrator 25.2.3, SVG Export Plug-In . SVG Version: 6.00 Build 0)  -->
<svg version="1.1" id="Layer_1" xmlns="http://www.w3.org/2000/svg" xmlns:xlink="http://www.w3.org/1999/xlink" x="0px" y="0px"
	 viewBox="0 0 122 91" enable-background="new 0 0 122 91" xml:space="preserve">
<g>
	<path fill="#F24CD6" d="M98.44,79.02H29.61c-5.04,0-9.12-4.08-9.12-9.12V27.82c0-5.04,4.08-9.12,9.12-9.12h68.82
		c5.04,0,9.12,4.08,9.12,9.12V69.9C107.56,74.94,103.47,79.02,98.44,79.02z"/>
	<g>
		<path fill="#05DBF2" stroke="#000000" stroke-width="6" stroke-miterlimit="10" d="M92.39,72.3H23.56c-5.04,0-9.12-4.08-9.12-9.12
			V21.1c0-5.04,4.08-9.12,9.12-9.12h68.82c5.04,0,9.12,4.08,9.12,9.12v42.08C101.51,68.22,97.43,72.3,92.39,72.3z"/>
		<polyline fill="none" stroke="#231F20" stroke-width="5" stroke-miterlimit="10" points="17.72,18.39 57.98,52.86 98.23,18.39 		
			"/>
	</g>
</g>
<g>
	<path fill="#F24CD6" d="M98.44,183.52H29.61c-5.04,0-9.12-4.08-9.12-9.12v-42.08c0-5.04,4.08-9.12,9.12-9.12h68.82
		c5.04,0,9.12,4.08,9.12,9.12v42.08C107.56,179.44,103.47,183.52,98.44,183.52z"/>
	<g>
		<path fill="#FEE550" stroke="#000000" stroke-width="6" stroke-miterlimit="10" d="M92.39,176.8H23.56
			c-5.04,0-9.12-4.08-9.12-9.12V125.6c0-5.04,4.08-9.12,9.12-9.12h68.82c5.04,0,9.12,4.08,9.12,9.12v42.08
			C101.51,172.72,97.43,176.8,92.39,176.8z"/>
		<polyline fill="none" stroke="#231F20" stroke-width="5" stroke-miterlimit="10" points="17.72,122.89 57.98,157.36 98.23,122.89 
					"/>
	</g>
</g>
<g>
	<g>
		<line fill="#3B51A2" stroke="#EE5383" stroke-width="6" stroke-miterlimit="10" x1="201.81" y1="3.43" x2="201.81" y2="89.25"/>
		<line fill="#3B51A2" stroke="#EE5383" stroke-width="6" stroke-miterlimit="10" x1="161.18" y1="45.64" x2="247.32" y2="45.64"/>
	</g>
	<g>
		<line fill="#3B51A2" stroke="#000000" stroke-width="6" stroke-miterlimit="10" x1="197.31" y1="0.75" x2="197.31" y2="86.57"/>
		<line fill="#3B51A2" stroke="#000000" stroke-width="6" stroke-miterlimit="10" x1="156.68" y1="42.97" x2="242.82" y2="42.97"/>
	</g>
</g>
<g>
	<path fill="#F24CD6" d="M364.12,60.22c-15.66,0-28.36-12.7-28.36-28.36c0-7.98,3.3-15.19,8.6-20.34
		c-16.9,3.34-29.64,18.24-29.64,36.12c0,20.34,16.49,36.82,36.82,36.82c20.34,0,36.82-16.49,36.82-36.82c0-0.35-0.01-0.69-0.02-1.03
		C383.37,54.77,374.38,60.22,364.12,60.22z"/>
	<path fill="#3B51A2" stroke="#231F20" stroke-width="5" stroke-miterlimit="10" d="M359.54,56.33c-15.66,0-28.36-12.7-28.36-28.36
		c0-7.98,3.3-15.19,8.6-20.34c-16.9,3.34-29.64,18.24-29.64,36.12c0,20.34,16.49,36.82,36.82,36.82c20.34,0,36.82-16.49,36.82-36.82
		c0-0.35-0.01-0.69-0.02-1.03C378.79,50.88,369.8,56.33,359.54,56.33z"/>
</g>
<g>
	<polygon fill="#F24CD6" points="486.25,35.53 486.25,60.33 493.45,53.55 502.44,53.55 	"/>
	<polygon fill="none" stroke="#3C51A2" stroke-width="2" stroke-miterlimit="10" points="483.56,31.67 483.56,56.47 490.76,49.69 
		499.75,49.69 	"/>
</g>
<g>
	<polygon fill="#05DBF2" points="530.57,37.02 530.57,60.66 537.42,54.2 546,54.2 	"/>
	<polygon fill="none" stroke="#3C51A2" stroke-width="2" stroke-miterlimit="10" points="528,33.34 528,56.98 534.86,50.52 
		543.43,50.52 	"/>
</g>
<g>
	<path fill="#F24CD6" d="M361.63,166.71c-16.2,0-29.34-13.14-29.34-29.34c0-8.25,3.41-15.71,8.9-21.04
		c-17.48,3.46-30.67,18.87-30.67,37.37c0,21.04,17.06,38.1,38.1,38.1s38.1-17.06,38.1-38.1c0-0.36-0.01-0.71-0.02-1.07
		C381.55,161.07,372.25,166.71,361.63,166.71z"/>
	<path fill="#05F240" stroke="#231F20" stroke-width="5" stroke-miterlimit="10" d="M356.9,162.69c-16.2,0-29.34-13.14-29.34-29.34
		c0-8.25,3.41-15.71,8.9-21.04c-17.48,3.46-30.67,18.87-30.67,37.37c0,21.04,17.06,38.1,38.1,38.1s38.1-17.06,38.1-38.1
		c0-0.36-0.01-0.71-0.02-1.07C376.81,157.05,367.51,162.69,356.9,162.69z"/>
</g>
</svg>
