<?xml version="1.0" encoding="utf-8"?>
<!-- Generator: Adobe Illustrator 25.2.3, SVG Export Plug-In . SVG Version: 6.00 Build 0)  -->
<svg version="1.1" id="Layer_1" xmlns="http://www.w3.org/2000/svg" xmlns:xlink="http://www.w3.org/1999/xlink" x="0px" y="0px"
	 viewBox="0 0 122 92" enable-background="new 0 0 122 92" xml:space="preserve">
<g>
	<path fill="#F24CD6" d="M80.12,60.22c-15.66,0-28.36-12.7-28.36-28.36c0-7.98,3.3-15.19,8.6-20.34
		c-16.9,3.34-29.64,18.24-29.64,36.12c0,20.34,16.49,36.82,36.82,36.82s36.82-16.49,36.82-36.82c0-0.35-0.01-0.69-0.02-1.03
		C99.37,54.77,90.38,60.22,80.12,60.22z"/>
	<path fill="#3B51A2" stroke="#231F20" stroke-width="5" stroke-miterlimit="10" d="M75.54,56.33c-15.66,0-28.36-12.7-28.36-28.36
		c0-7.98,3.3-15.19,8.6-20.34c-16.9,3.34-29.64,18.24-29.64,36.12c0,20.34,16.49,36.82,36.82,36.82s36.82-16.49,36.82-36.82
		c0-0.35-0.01-0.69-0.02-1.03C94.79,50.88,85.8,56.33,75.54,56.33z"/>
</g>
</svg>
